/* XPM */
static char *_7afef8b677743f4c6011bb392fb1f75r3e35UDwjRvfqde8[] = {
/* columns rows colors chars-per-pixel */
"32 32 48 1 ",
"  c black",
". c #222C34",
"X c #232E36",
"o c #00611C",
"O c #237521",
"+ c #2D3A44",
"@ c #313E49",
"# c #34424D",
"$ c #384753",
"% c #40515E",
"& c #445563",
"* c #485A68",
"= c #4B5B69",
"- c #4C5D6B",
"; c #4C5F6D",
": c #4E5F6D",
"> c #516270",
", c #506473",
"< c #526675",
"1 c #556776",
"2 c #546878",
"3 c #566B7A",
"4 c #586A79",
"5 c #586D7D",
"6 c #2C9126",
"7 c #42911A",
"8 c #3BFF2F",
"9 c #69FF1E",
"0 c #51CD33",
"q c #4BFF28",
"w c #54FF3B",
"e c #60F135",
"r c #8EFF28",
"t c #87CD48",
"y c #92C97A",
"u c #A6CB62",
"i c #607383",
"p c #617483",
"a c #647686",
"s c #6D8293",
"d c #6F8292",
"f c #66869C",
"g c #708394",
"h c #5B8CAB",
"j c #7C90A1",
"k c #8297A9",
"l c #FAC587",
"z c #C9FA87",
/* pixels */
"oooooooooooooooooooooooooooooooo",
"o                              o",
"o                              o",
"o   :>>>>>>>>>>>>>>>>>>>>>>>   o",
"o  $isssssssssssssssssssssssp  o",
"o  $%5555555555555555555555554 o",
"o  $%555:%%%%%%%%%%%%%%<55555* o",
"o  $%555*tt6...........@,5555* o",
"o  $&555*08eO...........#5555* o",
"o  $,555*0qw7...........+5555* o",
"o  $,555*0qw7...........+5555* o",
"o  $,555*0qw7...........+5555* o",
"o  $,555*yuw7...........+5555* o",
"o  $,555*ulw7...........+5555* o",
"o  $,555*uz97...........+5555* o",
"o  $,555*uu97...........+5555* o",
"o  $,555*yy97...........+5555* o",
"o  $,555*yr97...........+5<,2* o",
"o  $,555*0r97...........+2sj1* o",
"o  $,555*0r97...........+,gk** o",
"o  $,555*0r97...........+,rh** o",
"o  $,555*0r97...........+,gf** o",
"o  $,555*0r97...........+<ag-* o",
"o  $,555*0r97...........+5:*2* o",
"o  $,555*0r97...........+5555* o",
"o  $,555*0r99...........+5555* o",
"o  $,555*0r99...........+5555* o",
"o  $,555*0r99...........+5555* o",
"o  $%555*0r97...........+5555* o",
"o  $%555*0r97...........+5555* o",
"o  $%555*0r97...........+5555* o",
"o  $$$$$$$$$$$$$$$$$$$$$$$$$$$$o"
};
