/* XPM */
static char *result[] = {
/* columns rows colors chars-per-pixel */
"32 32 53 1 ",
"  c #011627",
". c #222C34",
"X c #232E36",
"o c #753D21",
"O c #2D3A44",
"+ c #313E49",
"@ c #34424D",
"# c #384753",
"$ c #40515E",
"% c #445563",
"& c #485A68",
"* c #4B5B69",
"= c #4C5D6B",
"- c #4C5F6D",
"; c #4E5F6D",
": c #516270",
"> c #506473",
", c #526675",
"< c #556776",
"1 c #546878",
"2 c #566B7A",
"3 c #586A79",
"4 c #586D7D",
"5 c #91431A",
"6 c #915226",
"7 c #BC7528",
"8 c #FF8C1E",
"9 c #CD8733",
"0 c #FF9C28",
"q c #F19935",
"w c #FFA32F",
"e c #FFA133",
"r c #FFA83B",
"t c #CD9C48",
"y c #FEA640",
"u c #FCB158",
"i c #CB9B62",
"p c #CAA06E",
"a c #C9A67A",
"s c #607383",
"d c #617483",
"f c #647686",
"g c #6D8293",
"h c #6F8292",
"j c #66869C",
"k c #6D899F",
"l c #708394",
"z c #5B8CAB",
"x c #7C90A1",
"c c #8297A9",
"v c #C8AB86",
"b c #FAC587",
"n c white",
/* pixels */
"                                ",
"                                ",
"                                ",
"   ;:::::::::::::::::::::::     ",
"  #sgggggggggggggggggggggggd    ",
"  #$4444444444444444444444443   ",
"77#$444-$$$$$$$$$$$$$$,44444&777",
"77#$444&tr6...........+>4444&777",
"nn#%444&9wqo..........X@4444&nnn",
"nn#>444&90r5...........O4444&nnn",
"nn#>444&90r5...........O4444&nnn",
"nn#>444&90r5...........O4444&nnn",
"nn#>444&vye5...........O4444&nnn",
"kk#>444&ib85...........O4444&kkk",
"kk#>444&ib85...........O4444&kkk",
"kk#>444&py85...........O4444&kkk",
"kk#>444&au85...........O4444&kkk",
"kk#>444&a085...........O4,>2&kkk",
"kk#>444&9085...........O1hx<&kkk",
"kk#>444&9085...........O>lc*&kkk",
"kk#>444&9085...........O>lz*&kkk",
"nn#>444&9085...........O>lj*&nnn",
"nn#>444&9085...........O,fl=&nnn",
"77#>444&9085...........O4-&1&777",
"77#>444&9085...........O4444&777",
"kk#>444&9085...........O4444&kkk",
"kk#>444&9085...........O4444&kkk",
"  #>444&9085...........O4444&   ",
"  #$444&9085...........O4444&   ",
"  #$444&9085...........O4444&   ",
"  #$444&9085...........O4444&   ",
"  #%444&9085...........O4444&   "
};
