/* XPM */
static char *_29d4b893e564026eb33fa13a5cd54d5PGVZqCmvgFPOBwEw[] = {
/* columns rows colors chars-per-pixel */
"32 32 28 1 ",
"  c black",
". c #3C5569",
"X c #3D5768",
"o c #3F556A",
"O c #3D566A",
"+ c #3C576A",
"@ c #3E576B",
"# c #3D566C",
"$ c #3C576C",
"% c #435F75",
"& c #455F76",
"* c #426176",
"= c #446076",
"- c #456177",
"; c #5B758C",
": c #5B778D",
"> c #5C768D",
", c #5D778E",
"< c #6B8A9F",
"1 c #6D899F",
"2 c #A592AC",
"3 c #B5DBAC",
"4 c #D9DBAC",
"5 c #C6B6CC",
"6 c #CCACDB",
"7 c #ACD2DB",
"8 c #DBD0EF",
"9 c white",
/* pixels */
"OOOOOOOOOOOOOOOOOOOOOOOOOOOOO##O",
"1=======*===;>>>>>====>>=======#",
"1====>=>>>>>>>>>>>>;=>>>>>>>>=*O",
"1===>;>>>>>>>>>>>>>>&>>>>;>>>>=O",
"1==>>>>>>>>          >>>;>>>>>=O",
"1==;>>>>>   99999999   >>>>>>>;O",
"1=>>>>>>  669999999999  >;>>>>>O",
"1=>>>>;  76669999999999  >>>>;>O",
"1=>>>>  3776699999999999  >>>>>O",
"1=>>>  433776699999999999  >>>>O",
"1=>>> 44433779999999999999 >>>>O",
"1=>>  44443379    99998998  >>>O",
"1=>> 3344443  9999  8555599 >>>O",
"1=>> 3334444 9    9 5555555 >>>O",
"1=>> 223334 9 >>>> 9 222555 >>>O",
"1;>> 222222 9 >>>> 9 222222 >>>O",
"1>>> 555222 9 >>>> 9 433322 >>>O",
"1>>> 5555555 9    9 4444333 >>>O",
"1>>> 9955558  9999  3444433 >>>O",
"1>>> 989989999    673344444 >>>O",
"1>>>> 99999999999967733444 >>>>O",
"1>>>>  999999999996677334  ;>>>O",
"1>>>>>  9999999999966773  >>>>>O",
"1>>>>>>  99999999996677  ;>>>>>O",
"1>>>>>>;  99999999996   >>>>>>;O",
"1>>>>>>>>   99999999  >>>>>>>>=O",
"1>>>>>>>>>>          >>>>>>>;;=O",
"1=>>>>>>>>>>>>>>>>>>>>>>>>>>>>=O",
"1=>>>>>>>>;>>>>>;>>>>>>>>>>>>>=O",
"1==>>>>>>>>>>>>>>>>>>>>>>>>>>&=O",
"1===%==>>>>&>>>>>>&>>>>>=%===%=O",
"11111<1111111111111111111111111O"
};
