/* XPM */
static char *result[] = {
/* columns rows colors chars-per-pixel */
"32 32 26 1 ",
"  c black",
". c #7C3A67",
"X c #3C5569",
"o c #3D5768",
"O c #3F556A",
"+ c #3D566A",
"@ c #3C576A",
"# c #3E576B",
"$ c #3D566C",
"% c #3C576C",
"& c #435F75",
"* c #455F76",
"= c #426176",
"- c #446076",
"; c #456177",
": c #FBF236",
"> c #99E550",
", c #5B758C",
"< c #5B778D",
"1 c #5C768D",
"2 c #5D778E",
"3 c #CC2296",
"4 c #D77BBA",
"5 c #6B8A9F",
"6 c #6D899F",
"7 c #EDD7E6",
/* pixels */
"+++++@++++++X+++++++++#++++++$$o",
"6---;---=---<11111----11-------%",
"6----1-11  11111211<-1  11111-=+",
"6---1,11    11111111*    <1111-O",
"6--1111  3   1111111   3  1111-+",
"6--,111 33             33 1111<#",
"6-11111                   11112X",
"6-1111<                   111<1+",
"6-11112     44      44    11111+",
"6-11111    44.4    44.4   11111+",
"6-111111   4744    4744   11111+",
"6-111111    44      44    11111+",
"6-111,11::      :      :: 11111+",
"6-11111, ::   :::::   ::  11111+",
"6-111111::            ::: 11111+",
"6<1111111                111111+",
"61111111111111   11111111111111+",
"611111111111133333111111   1111+",
"61111111111         1111   1111+",
"6111111111           11   11111+",
"611111111             1  112111+",
"611111111             1  *1,111+",
"61111111                 111111+",
"61111111                 ,11121+",
"6111112,                111111<+",
"611111111            ,11111111-#",
"611111111            1111111,,-X",
"6-11111111          1111111111-@",
"6-11111111    >>    1111111111-+",
"6--1111111 >  >>  > 111111111*-+",
"6---&-;111>>>>>1 >> 1111-&---&-+",
"6666656666666666>>>>66666666666+"
};
