/* XPM */
static char *result[] = {
/* columns rows colors chars-per-pixel */
"32 32 28 1 ",
"  c black",
". c #446F1B",
"X c #3C5569",
"o c #3D5768",
"O c #3F556A",
"+ c #3D566A",
"@ c #3C576A",
"# c #3E576B",
"$ c #3D566C",
"% c #3C576C",
"& c #435F75",
"* c #455F76",
"= c #426176",
"- c #446076",
"; c #456177",
": c #862C6A",
"> c #FBF236",
", c #99E550",
"< c #5B758C",
"1 c #5B778D",
"2 c #5C768D",
"3 c #5D778E",
"4 c #CC2296",
"5 c #9B4D83",
"6 c #D77BBA",
"7 c #6B8A9F",
"8 c #6D899F",
"9 c #CBDBFC",
/* pixels */
"+++++@+#+#++X+++++++++#++++++$$o",
"8---;--  ---122222----22-------%",
"8----2-   2-22223221-22222222-=+",
"8---2<1     222222222222212222-O",
"8--2222 4      222222222222222-+",
"8--<22  44      223222222222221#",
"8-222            22222222222223X",
"8-122            22222222122212+",
"8-222  6          2222222322222+",
"8-222  :9         <222222222222+",
"8-22>  6          <2<2222222222+",
"8-22>> >>>        2222222222222+",
"8-222  >         222222222<2222+",
"8-2222  >        2222222  22222+",
"8-22222         22222322   2222+",
"8122222222   222222222222  2222+",
"8222222224445422222222222   222+",
"82222222             22222   22+",
"8222222                222   22+",
"822222                  22   22+",
"822232                       22+",
"8222<2                      222+",
"822222                      222+",
"822222<                    2232+",
"8222222                    2221+",
"8222222                    222-#",
"822<222                    22<-X",
"8-222222                  2222-@",
"8-222222     22<22       22222-+",
"8--22222     222222      2222*-+",
"8---&-;,  2 ..2222,  22  .---&-+",
"8888878,,,8...8888,,,88...78888+"
};
