/* XPM */
static char *_8a9a33185394a29d7fc4a03abce9bc9AjXZun5GU5UulhWx[] = {
/* columns rows colors chars-per-pixel */
"32 32 13 1 ",
"  c black",
". c #3D566A",
"X c #3D566C",
"o c #435F75",
"O c #455F76",
"+ c #426176",
"@ c #446076",
"# c #99E550",
"$ c #5B758C",
"% c #5C768D",
"& c #CC2296",
"* c #6B8A9F",
"= c #6D899F",
/* pixels */
".............................XX.",
"=@@@@@@@+@@@$%%%%%@@@@%%@@@@@@@X",
"=@@@@%@%%  %%%%%%%%$@%  %%%%%@+.",
"=@@@%$%%    %%%%%%%%O    $%%%%@.",
"=@@%%%%      %%%%%%%      %%%%@.",
"=@@$%%%                   %%%%$.",
"=@%%%%%                   %%%%%.",
"=@%%%%$                   %%%$%.",
"=@%%%%%                   %%%%%.",
"=@%%%%%                   %%%%%.",
"=@%%%%%%                  %%%%%.",
"=@%%%%%%                  %%%%%.",
"=@%%%$%%                  %%%%%.",
"=@%%%%%$                  %%%%%.",
"=@%%%%%%                  %%%%%.",
"=$%%%%%%%                %%%%%%.",
"=%%%%%%%%%%%%%   %%%%%%%%%%%%%%.",
"=%%%%%%%%%%%%&&&&&%%%%%%   %%%%.",
"=%%%%%%%%%%         %%%%   %%%%.",
"=%%%%%%%%%           %%   %%%%%.",
"=%%%%%%%%             %  %%%%%%.",
"=%%%%%%%%             %  O%$%%%.",
"=%%%%%%%                 %%%%%%.",
"=%%%%%%%                 $%%%%%.",
"=%%%%%%$                %%%%%%$.",
"=%%%%%%%%            $%%%%%%%%@.",
"=%%%%%%%%            %%%%%%%$$@.",
"=@%%%%%%%%          %%%%%%%%%%@.",
"=@%%%%%%%%    ##    %%%%%%%%%%@.",
"=@@%%%%%%% #  ##  # %%%%%%%%%O@.",
"=@@@o@@%%%#####% ## %%%%@o@@@o@.",
"=====*==========####===========."
};
