/* XPM */
static char *_d149c38dc2a4e30a334bd43887a12ffLtXvDFs4PX5RpMA2[] = {
/* columns rows colors chars-per-pixel */
"32 32 164 2 ",
"   c black",
".  c #010000",
"X  c #000100",
"o  c #010101",
"O  c #000300",
"+  c #000002",
"@  c #000103",
"#  c #000400",
"$  c #000500",
"%  c #000600",
"&  c #000004",
"*  c #000104",
"=  c #000005",
"-  c #000105",
";  c #000205",
":  c #000106",
">  c #000007",
",  c #000107",
"<  c #000206",
"1  c #040007",
"2  c #070007",
"3  c #000405",
"4  c #080005",
"5  c #0A0005",
"6  c #080007",
"7  c #0B0007",
"8  c #000900",
"9  c #000B00",
"0  c #000C00",
"q  c #000008",
"w  c #000009",
"e  c #010009",
"r  c #000109",
"t  c #000208",
"y  c #000209",
"u  c #00020B",
"i  c #00030B",
"p  c #00040B",
"a  c #00020C",
"s  c #00030C",
"d  c #00020E",
"f  c #00030E",
"g  c #001000",
"h  c #001100",
"j  c #000310",
"k  c #000412",
"l  c #180012",
"z  c #1F0012",
"x  c #220015",
"c  c #3B546A",
"v  c #3B566B",
"b  c #3C556B",
"n  c #3A566C",
"m  c #3B576D",
"M  c #3D556D",
"N  c #3D566C",
"B  c #3C576C",
"V  c #3C566D",
"C  c #3E576D",
"Z  c #3D586D",
"A  c #485D6E",
"S  c #495E6F",
"D  c #4C5E6C",
"F  c #465F73",
"G  c #435F75",
"H  c #445F74",
"J  c #465F75",
"K  c #455F76",
"L  c #485F71",
"P  c #485E73",
"I  c #705679",
"U  c #785279",
"Y  c #446075",
"T  c #456075",
"R  c #446076",
"E  c #456177",
"W  c #466176",
"Q  c #5D7A75",
"!  c #5C7A7A",
"~  c #5B7A7C",
"^  c #66786A",
"/  c #67737F",
"(  c #66747F",
")  c #68727B",
"_  c #6B727A",
"`  c #68757E",
"'  c #60787A",
"]  c #844D77",
"[  c #825075",
"{  c #825A7C",
"}  c #598353",
"|  c #669A5A",
" . c #699A58",
".. c #679763",
"X. c #67966C",
"o. c #689375",
"O. c #5F7485",
"+. c #5F7487",
"@. c #5F7686",
"#. c #5C7884",
"$. c #5B768B",
"%. c #5E7489",
"&. c #5F7688",
"*. c #5C758B",
"=. c #5F758A",
"-. c #5D768A",
";. c #5B758C",
":. c #5B778D",
">. c #5D758D",
",. c #5F758C",
"<. c #5D768C",
"1. c #5C778C",
"2. c #5C768D",
"3. c #5E778D",
"4. c #5D778E",
"5. c #5C768F",
"6. c #5D788D",
"7. c #6E6E86",
"8. c #7F6588",
"9. c #726B8A",
"0. c #746B8A",
"q. c #667383",
"w. c #617483",
"e. c #627482",
"r. c #637583",
"t. c #647481",
"y. c #667481",
"u. c #657582",
"i. c #647483",
"p. c #677582",
"a. c #667187",
"s. c #617485",
"d. c #637484",
"f. c #627584",
"g. c #607586",
"h. c #637486",
"j. c #627586",
"k. c #637687",
"l. c #657584",
"z. c #647684",
"x. c #667288",
"c. c #607588",
"v. c #60758A",
"b. c #60768B",
"n. c #60768D",
"m. c #876188",
"M. c #6A8F87",
"N. c #6B8D8E",
"B. c #6D8B96",
"V. c #6F879F",
"C. c #6B8A9F",
"Z. c #6D899E",
"A. c #6D899F",
"S. c #6E899E",
"D. c #6E889F",
"F. c #A8D28A",
"G. c #ACCE92",
"H. c #A7CE9F",
"J. c #A8CE9D",
"K. c #A2D391",
"L. c #A5D291",
"P. c #A4CFA2",
"I. c #A8CDA4",
"U. c #AACAB3",
/* pixels */
"B B B B B B B B B B v B v B B B B B B B n n B B B B B B B B B B ",
"S.T T T T T T F L S S L 2.6.2.2.2.$.T T T F d.d.L K T T T T T v ",
"S.T T T K 2.T -.i.d d i.-.2.2.2.2.2.2.2.L d.u u d.-.2.2.2.K K B ",
"S.T T T 2.$.-.d.u < < u d.v.2.2.-.-.-.v.D d < < d d.-.2.2.2.T B ",
"S.T K 2.2.-.d.d <     < u / q.i.r.r.l./ u <     < u v.2.2.2.T B ",
"S.T K ;.2.-.i.u <       < < u u u u u < <         < d.2.2.2.6.Z ",
"S.T 2.2.;.-.r.u <           < < < < <             < d.2.2.2.2.v ",
"S.T 2.2.;.-.r.u <                                 < d.2.2.2.2.B ",
"S.T 2.2.2.-.l.u <                                 < d.2.2.2.-.B ",
"S.T ;.2.2.-.d.d <                                 < d.6.2.2.2.B ",
"S.T 2.2.2.2.2.r.<                                 < d.2.2.2.2.B ",
"S.T ;.2.2.2.2.d.<                                 < d.2.2.2.2.B ",
"S.T 2.2.2.;.2.d.<                                 < d.2.2.2.2.B ",
"S.T 2.2.2.2.2.O.u                                 u d.2.2.2.2.B ",
"S.T 2.2.2.2.2.v.u <                             < u v.2.2.2.2.B ",
"S.;.2.2.;.2.2.-.i.u u < u 1 5 5 5 5 < < < u < < u ` d.2.2.2.2.B ",
"S.;.2.2.2.2.2.2.v.v.d.a.0.8.l z x m.7.d.d.d.d.d.( ( d.-.2.2.2.B ",
"S.;.2.2.2.2.2.2.2.2.-.x.9.I { [ ] U 7.v.-.2.2.v.d d k v.2.2.2.B ",
"S.;.2.2.2.2.2.2.2.-.i.u u 1 5 5 5 1 u u d.v.v.r.u < j -.-.2.2.B ",
"S.;.2.2.2.2.2.2.2.d.u <               < d i.d.j u u l.-.2.2.2.B ",
"S.;.2.2.2.2.2.2.d.d <                   < < / d d ( v.2.2.2.2.B ",
"S.;.2.2.2.2.2.-.i.u <                       _ u d D -.;.2.;.2.B ",
"S.;.2.2.2.2.2.v.u <                         < < d r.n.2.2.2.2.B ",
"S.;.2.2.2.2.2.d.u                           < < d d.2.2.2.2.2.b ",
"S.;.2.2.2.2.2.O.u <                     < < u d d.2.2.2.2.2.2.B ",
"S.;.2.2.2.2.2.-./ <                     < _ i.r.2.2.2.2.2.2.T Z ",
"S.;.2.2.;.;.2.-.i.u <                 < u i.d.-.2.2.2.2.;.;.T v ",
"S.T 2.2.;.;.2.-.d.p $                 < d d.2.2.2.2.2.2.2.;.T B ",
"S.T 2.2.2.2.2.2.2.' 0 9     < <       < d.-.2.2.2.2.;.2.;.;.T B ",
"S.T K 2.2.2.2.2.;.! J.G.9 $ $ ^ $ $ $ 3 O.2.2.;.2.2.2.2.;.T T B ",
"S.T T T G T T ;.;.~ P.L.h h J.} H.I.U.Q #.2.2.2.T G T T T G T B ",
"S.S.S.S.C.C.S.S.S.N.X. .F.F.K.| | ..o.M.B.S.V.S.S.C.S.S.S.S.S.B "
};
