/* XPM */
static char *result[] = {
/* columns rows colors chars-per-pixel */
"32 32 28 1 ",
"  c black",
". c #446F1B",
"X c #3C5569",
"o c #3D5768",
"O c #3F556A",
"+ c #3D566A",
"@ c #3C576A",
"# c #3E576B",
"$ c #3D566C",
"% c #3C576C",
"& c #435F75",
"* c #455F76",
"= c #426176",
"- c #446076",
"; c #456177",
": c #862C6A",
"> c #FBF236",
", c #99E550",
"< c #5B758C",
"1 c #5B778D",
"2 c #5C768D",
"3 c #5D778E",
"4 c #CC2296",
"5 c #9B4D83",
"6 c #D77BBA",
"7 c #6B8A9F",
"8 c #6D899F",
"9 c #CBDBFC",
/* pixels */
"+++++@++++++X++X++++++#+#++++$$o",
"8---;---=---122222----2  ------%",
"8----2-2232222223221-2   2222-=+",
"8---2<22222222222222     12222-O",
"8--222222222<2222      4 22222-+",
"8--<222222222222      44  22221#",
"8-2222222222222            2223X",
"8-2222122222222            2212+",
"8-222232222222          6  2222+",
"8-22222223222<         9:  2222+",
"8-222222**2<2<          6  >222+",
"8-222222222222        >>> >>222+",
"8-222<222222222         >  2222+",
"8-2222  2222222        >  22222+",
"8-222   22322<22         222222+",
"81222  222222222222   222222222+",
"8222   222222222224544422222222+",
"822   22222             2222222+",
"822   222                222222+",
"822   22                  22222+",
"822                       23222+",
"8222                      2<222+",
"8222                      22222+",
"82222                    <22232+",
"82222                    222221+",
"82222                    22222-#",
"82222                    222<<-X",
"8-2222                  222222-@",
"8-22222       22<22     222222-+",
"8--2222      222222     22222*-+",
"8---&-.  22  ,2222.. 2  ,&---&-+",
"888887...88,,,8888...8,,,888888+"
};
