/* XPM */
static char *result[] = {
/* columns rows colors chars-per-pixel */
"32 32 174 2 ",
"   c #4BBACE",
".  c #33B2C8",
"X  c #33B3C9",
"o  c #33B3CA",
"O  c #33B3C8",
"+  c #4BBACC",
"@  c #4BB7CD",
"#  c #30B1C7",
"$  c #2AB3CB",
"%  c #29B4CB",
"&  c #29B4CD",
"*  c #28B4CE",
"=  c #2AB3CC",
"-  c #30B1CA",
";  c #32B0C8",
":  c #49B8CD",
">  c #E8F4F8",
",  c #CFEFF2",
"<  c #43BBCE",
"1  c #2BB5CA",
"2  c #2AB5CB",
"3  c #2AB5CC",
"4  c #2BB5CB",
"5  c #2AB4CB",
"6  c #2AB4CA",
"7  c #29B4CA",
"8  c #2BB3CC",
"9  c #44BACF",
"0  c #CCEBF2",
"q  c #E4F5F6",
"w  c #E6F4F6",
"e  c #DDE9F1",
"r  c #D6E8EE",
"t  c #AEDEE7",
"y  c #4E5F6D",
"u  c #516270",
"i  c #50BFD4",
"p  c #ADDEE9",
"a  c #D4E6EE",
"s  c #D8E7F0",
"d  c #DCE9F0",
"f  c #D6E5F0",
"g  c #D3E4EF",
"h  c #384753",
"j  c #607383",
"k  c #6D8293",
"l  c #617483",
"z  c #C2E0EC",
"x  c #D0E3EF",
"c  c #D5E5EF",
"v  c #D2E4EE",
"b  c #40515E",
"n  c #586D7D",
"m  c #586A79",
"M  c #D0E3EE",
"N  c #D7E5F0",
"B  c #D1E4EE",
"V  c #4C5F6D",
"C  c #526675",
"Z  c #485A68",
"A  c #D0E3ED",
"S  c #D6E4EF",
"D  c #D1E3EF",
"F  c #CD9C48",
"G  c #FFA83B",
"H  c #915226",
"J  c #222C34",
"K  c #313E49",
"L  c #506473",
"P  c #D5E4EF",
"I  c #445563",
"U  c #CD8733",
"Y  c #FFA32F",
"T  c #F19935",
"R  c #753D21",
"E  c #232E36",
"W  c #34424D",
"Q  c #FF9C28",
"!  c #91431A",
"~  c #2D3A44",
"^  c #D1E3EE",
"/  c #BDD2E0",
"(  c #C3D5E1",
")  c #C6D5E2",
"_  c #BFD1E1",
"`  c #6AB9CE",
"'  c #7BBFD2",
"]  c #7EC0D2",
"[  c #6ABACE",
"{  c #C8AB86",
"}  c #FEA640",
"|  c #FFA133",
" . c #2CB2CB",
".. c #46BAD0",
"X. c #46BBD1",
"o. c #28B4CB",
"O. c #CB9B62",
"+. c #FAC587",
"@. c #FF8C1E",
"#. c #2BB3CB",
"$. c #46BAD1",
"%. c #45BCD1",
"&. c #2AB2CB",
"*. c #37B6CC",
"=. c #8ED1DE",
"-. c #8ED2DE",
";. c #36B6CE",
":. c #CAA06E",
">. c #82CFDD",
",. c #9AD5E2",
"<. c #D9EAEC",
"1. c #D5EAF0",
"2. c #6AC5D6",
"3. c #C9A67A",
"4. c #FCB158",
"5. c #C8DFE9",
"6. c #D9E5EC",
"7. c #D6E6EA",
"8. c #CBE7EE",
"9. c #566B7A",
"0. c #87BDD2",
"q. c #91C0D2",
"w. c #C4D9E3",
"e. c #ADDBE9",
"r. c #93D4E3",
"t. c #546878",
"y. c #6F8292",
"u. c #7C90A1",
"i. c #556776",
"p. c #4DB4C9",
"a. c #58B6CB",
"s. c #8DC3D3",
"d. c #49BAD1",
"f. c #2EB3CB",
"g. c #708394",
"h. c #8297A9",
"j. c #4B5B69",
"k. c #77BDCF",
"l. c #7ABDD0",
"z. c #52BBD0",
"x. c #5B8CAB",
"c. c #2EB1CA",
"v. c #47BAD2",
"b. c #2BB3CD",
"n. c #66869C",
"m. c #44BAD0",
"M. c #2BB2CD",
"N. c #647686",
"B. c #4C5D6B",
"V. c #43BBCF",
"C. c #2CB2CD",
"Z. c #44BAD1",
"A. c #46BAD2",
"S. c #2CB4CD",
"D. c #2DB3CD",
"F. c #39B5CA",
"G. c #45B7D1",
"H. c #2DB2CD",
"J. c #37B6C8",
"K. c #95C5D7",
"L. c #3AB5CD",
"P. c #45BBD1",
"I. c #2CB3CB",
"U. c #3FB4CB",
"Y. c #46BBD2",
"T. c #2CB2CA",
"R. c #45BAD0",
"E. c #2BB3CA",
"W. c #44BBCE",
"Q. c #49B9D1",
"!. c #30B3CC",
"~. c #30B2CA",
"^. c #2FB3C8",
"/. c #46BBCC",
/* pixels */
"  . X X o X X X o X X X X X O X X X O X X X O X X X O X X o O + ",
"@ # $ % & & & & & & & & & & & & & & & & & & & & & & & * = - ; : ",
"> , < 1 2 3 4 5 6 6 6 6 6 6 6 6 6 6 6 6 6 6 6 7 % 7 % 8 9 0 q w ",
"e r t y u u u u u u u u u u u u u u u u u u u u u u u i p a s d ",
"f g h j k k k k k k k k k k k k k k k k k k k k k k k l z x x c ",
"f v h b n n n n n n n n n n n n n n n n n n n n n n n n m M x c ",
"N B h b n n n V b b b b b b b b b b b b b b C n n n n n Z A x c ",
"S D h b n n n Z F G H J J J J J J J J J J J K L n n n n Z x x c ",
"P x h I n n n Z U Y T R J J J J J J J J J J E W n n n n Z x x c ",
"P x h L n n n Z U Q G ! J J J J J J J J J J J ~ n n n n Z ^ ^ P ",
"P x h L n n n Z U Q G ! J J J J J J J J J J J ~ n n n n Z / / ( ",
") _ h L n n n Z U Q G ! J J J J J J J J J J J ~ n n n n Z ` ` ' ",
"] [ h L n n n Z { } | ! J J J J J J J J J J J ~ n n n n Z  . ...",
"X.o.h L n n n Z O.+.@.! J J J J J J J J J J J ~ n n n n Z $ #.$.",
"%.% h L n n n Z O.+.@.! J J J J J J J J J J J ~ n n n n Z &.*.=.",
"-.;.h L n n n Z :.} @.! J J J J J J J J J J J ~ n n n n Z >.,.<.",
"1.2.h L n n n Z 3.4.@.! J J J J J J J J J J J ~ n n n n Z 5.6.7.",
"s 8.h L n n n Z 3.Q @.! J J J J J J J J J J J ~ n C L 9.Z 0.q.w.",
"e.r.h L n n n Z U Q @.! J J J J J J J J J J J ~ t.y.u.i.Z p.a.s.",
"d.f.h L n n n Z U Q @.! J J J J J J J J J J J ~ L g.h.j.Z k.l.z.",
"X.= h L n n n Z U Q @.! J J J J J J J J J J J ~ L g.x.j.Z c.c...",
"v.b.h L n n n Z U Q @.! J J J J J J J J J J J ~ L g.n.j.Z $ #.m.",
"v.M.h L n n n Z U Q @.! J J J J J J J J J J J ~ C N.g.B.Z #.#.V.",
"v.C.h L n n n Z U Q @.! J J J J J J J J J J J ~ n V Z t.Z b.b.Z.",
"A.b.h L n n n Z U Q @.! J J J J J J J J J J J ~ n n n n Z S.D.m.",
"X.F.h L n n n Z U Q @.! J J J J J J J J J J J ~ n n n n Z G.H.m.",
"X.J.h L n n n Z U Q @.! J J J J J J J J J J J ~ n n n n Z K.L.m.",
"P.I.h L n n n Z U Q @.! J J J J J J J J J J J ~ n n n n Z U. .m.",
"Y.b.h b n n n Z U Q @.! J J J J J J J J J J J ~ n n n n Z T. .R.",
"Y.b.h b n n n Z U Q @.! J J J J J J J J J J J ~ n n n n Z  . .9 ",
"Y.b.h b n n n Z U Q @.! J J J J J J J J J J J ~ n n n n Z  .E.W.",
"Q.!.h I n n n Z U Q @.! J J J J J J J J J J J ~ n n n n Z ~.^./."
};
