/* XPM */
static char *player_down_11740331117[] = {
/* columns rows colors chars-per-pixel */
"32 32 29 1 ",
"  c #3D566A",
". c #3C576A",
"X c #3D566C",
"o c #4F464C",
"O c #435F75",
"+ c #426176",
"@ c #446076",
"# c #B04D09",
"$ c #DF7126",
"% c #934B52",
"& c #D95763",
"* c #A6CC3D",
"= c #CCC53D",
"- c #DCFB36",
"; c #F1FB36",
": c #D78F5E",
"> c #99E550",
", c #BDFF7D",
"< c #D8E666",
"1 c #76428A",
"2 c #5B758C",
"3 c #5D778E",
"4 c #6B8A9F",
"5 c #6D899F",
"6 c #EEC39A",
"7 c #EEEA9A",
"8 c #D7C0AA",
"9 c #8BABE3",
"0 c #FFF2E4",
/* pixels */
"          ooooooooo           X ",
"5@@@@@@++ooo=====<<oOO33OOOO@@@ ",
"5@@@O3@3oo*=;<-<;-<<o22333233++ ",
"5@@@3233o<<<;o<<<o<<<o32323233@ ",
"5@+32323o<;<<<<;-<<<<o23232332O ",
"5OO23232o<<<<;<<<<<-<o322232233 ",
"5@323223o<<o#$$o$o$o-<o33223233 ",
"5@232322o<o#$$$$$$$oo<o33232322 ",
"5@332332oo#$$$$$$$$$ooo32323232 ",
"5@333223ooo$$$###$$$#ooo3232323 ",
"5O232323o<-##########7oo2323232 ",
"5O32323oo<<<-<--=o6o=<oooo32323 ",
"5O2322oo<<-=ooo-o66oo<7<<o23232 ",
"5O3223o<-o<oo01060106oo7<oo2323 ",
"5+333oo=<ooo60o160o16o<7ooo3232 ",
"53332oooo<-o6091609166o77<o2323 ",
"532323oo<-<o666666666o7<-o23232 ",
"5232323ooo==o666%%66o=-,=o32323 ",
"522323323oo-=o666666o==oo323232 ",
"53323223322ooooooooooo233232323 ",
"5323323222oooo>>o>>oooo23333232 ",
"523223233oooo>ooooo>ooooOO22323 ",
"53233232ooooo>>>o>>ooooo3332322 ",
"523223230000ooo>o>ooo8002323233 ",
"522323323o86ooo>o>>oo8o33232322 ",
"533232322o&&ooooooooo66o232323O ",
"532323233o66ooooooooo66o323223O ",
"5O3232322oooo0000000oooo232333+ ",
"5O3323233223o66o2o66o232333323O ",
"5OO332322332o$:o2o$:o32323333OO ",
"5OOOOOO3322Ooooo3o::o233OOOOOOO ",
"55555455555555555oooo5555555555 "
};
