/* XPM */
static char *player_right_11740331118[] = {
/* columns rows colors chars-per-pixel */
"32 32 31 1 ",
"  c #3D566A",
". c #3C576A",
"X c #3D566C",
"o c #4F464C",
"O c #435F75",
"+ c #426176",
"@ c #446076",
"# c #B04D09",
"$ c #DF7126",
"% c #934B52",
"& c #D95763",
"* c #A6CC3D",
"= c #CCC53D",
"- c #DCFB36",
"; c #F1FB36",
": c #D78F5E",
"> c #99E550",
", c #BDFF7D",
"< c #D8E666",
"1 c #76428A",
"2 c #5B758C",
"3 c #5D778E",
"4 c #6B8A9F",
"5 c #6D899F",
"6 c #C1A891",
"7 c #EEC39A",
"8 c #EEEA9A",
"9 c #D7C0AA",
"0 c #F4D1AB",
"q c #8BABE3",
"w c #FFF2E4",
/* pixels */
"          oooooooo            X ",
"5@@@@@@+Oooo=====ooOOO33OOOO@@@ ",
"5@@@O3@33o*=;<-<;-<o+33233233++ ",
"5@@@3233o=<<;o<<<o<<o323323233@ ",
"5@+3232o==;<<<<;-<<<o232232332O ",
"5OO2323o*=<<<;<<<<<-o3232232233 ",
"5@32322o==<<#$$o$o$$ooo33223233 ",
"5@23232o*=-o#$$$$$$$$$o23232322 ",
"5@33233o==oo#$$$$$$$$oo32323232 ",
"5@33322o==o#$$$$###ooo223232323 ",
"5O2323o=-<-<<<<o<<oo-8o32323232 ",
"5O2oo3o=<<<<-<oo=o7o=<o23232323 ",
"5O2o=oooo<-==oooo77oo<8o2323232 ",
"5@32o==<-<<==o7ow701wo<8o232323 ",
"5+33oo<=<=<=oowq17wq1o<8o323232 ",
"5333o-ooo<-=o9wq17wq1o-8oo32323 ",
"52323oo<<-<<ooo777777o=<-o23232 ",
"532322ooo===<<o77%%77o-,=o32323 ",
"533232232oo-=o667777o==oo323232 ",
"52232332233oooooooooo2323232323 ",
"5232232333oooo>>o>>ooo233333232 ",
"532332322oooo>ooooo>ooo3OO22323 ",
"52322323ooooo>>>o>>ooww23332322 ",
"53233232wwwwooo>o>ooo9o32323233 ",
"533232322o97ooo>o>>oo9o33232322 ",
"522323233o&&ooooooooo77o232323O ",
"533232322o77ooooooooo77o323223O ",
"5O2323233oooowwwwwwwoooo232333+ ",
"5O333232232o77o22o77o332333323O ",
"5OO32323322o$:oooo$:oooo23333OO ",
"5OOOOOO3233o:::wwo:::wwoOOOOOOO ",
"55555455555ooooooooooooo5555555 "
};
