/* XPM */
static char *player_left_11740331118[] = {
/* columns rows colors chars-per-pixel */
"32 32 30 1 ",
"  c #3D566A",
". c #3C576A",
"X c #3D566C",
"o c #4F464C",
"O c #435F75",
"+ c #426176",
"@ c #446076",
"# c #B04D09",
"$ c #DF7126",
"% c #934B52",
"& c #D95763",
"* c #A6CC3D",
"= c #CCC53D",
"- c #DCFB36",
"; c #F1FB36",
": c #D78F5E",
"> c #99E550",
", c #BDFF7D",
"< c #D8E666",
"1 c #76428A",
"2 c #5B758C",
"3 c #5D778E",
"4 c #6D899F",
"5 c #C1A891",
"6 c #EEC39A",
"7 c #EEEA9A",
"8 c #D7C0AA",
"9 c #F4D1AB",
"0 c #8BABE3",
"q c #FFF2E4",
/* pixels */
"              oooooooo        X ",
"4@@@@@@+OOOO2oo=====ooo3O+OO@@@ ",
"4@@@O3@33332o<-;<-<;=*o333233++ ",
"4@@@3233232o<<o<<<o;<<=o323233@ ",
"4@+32323232o<<<-;<<<<;==o32332O ",
"4OO23232323o-<<<<<;<<<=*o232233 ",
"4@3232233ooo$$o$o$$#<<==o223233 ",
"4@2323222o$$$$$$$$$#o-=*o232322 ",
"4@3332332oo$$$$$$$$#oo==o323232 ",
"4@33233233ooo###$$$$#o==o232323 ",
"4O233232Oo7-oo<<o<<<<-<-=o33232 ",
"4O3223233o<=o6o=oo<-<<<<=o2oo23 ",
"4O232232o7<oo66oooo==-<oooo=o32 ",
"4O32232o7<oq196qo6o==<<-<==o323 ",
"4+33323o7<o10q610qoo=<=<=<oo232 ",
"433323oo7-o10q610q8o=-<ooo-o323 ",
"423232o-<=o666666ooo<<-<<oo3232 ",
"432323o=,-o66%%66o<<===ooo23323 ",
"4332322oo==o666655o=-oo23232232 ",
"42232332232oooooooooo2332323323 ",
"4232232333ooo>>o>>oooo323333232 ",
"432332322ooo>ooooo>oooo2OO22323 ",
"423223232qqoo>>o>>>ooooo3332322 ",
"432332323o8ooo>o>oooqqqq2323233 ",
"433232323o8oo>>o>ooo68o33232322 ",
"42232323o66ooooooooo&&o2232323O ",
"43323232o66ooooooooo66o3323223O ",
"4O232323ooooqqqqqqqoooo2232333+ ",
"4O333232322o66o22o66o323233323O ",
"4OO32323oooo:$oooo:$o23233333OO ",
"4@OOOOO3oqq:::oqq:::o323OOO@OOO ",
"44444444ooooooooooooo4444444444 "
};
