/* XPM */
static char *d5086a735861427680b97ffd618ed257NqLcrO4ImO4rUNK9[] = {
/* columns rows colors chars-per-pixel */
"201 95 22 1 ",
"  c black",
". c #4F464C",
"X c #CCC53D",
"o c #A6CC3D",
"O c #F1FB36",
"+ c #D8E666",
"@ c #DCFB36",
"# c #B04D09",
"$ c #DF7126",
"% c #EEEA9A",
"& c #EEC39A",
"* c #FFF2E4",
"= c #F4D1AB",
"- c #76428A",
"; c #8BABE3",
": c #D7C0AA",
"> c #934B52",
", c #BDFF7D",
"< c #C1A891",
"1 c #99E550",
"2 c #D95763",
"3 c #D78F5E",
/* pixels */
"                                                                                                                                                                                                         ",
"                                                                                                                                                                                                         ",
"                                                                                                                                                                                                         ",
"                                                                                                                                                                                                         ",
"                                                                                                                                                                                                         ",
"                                                                                                                                                                                                         ",
"                                                                                                                                                                                                         ",
"                                                                                                                                                                                                         ",
"                                                                                                                                                                                                         ",
"                                                                                                                                                                                                         ",
"                                                                                                                                                                                                         ",
"                                                                                                                                                                                                         ",
"                                                                                                                                                                                                         ",
"                                                                                                                                                                                                         ",
"                                                                                                                                                                                                         ",
"                                                                                                                                                                                                         ",
"                                                                                                                                                                                                         ",
"                                                                                                                                                                                                         ",
"                                                                                                                                                                                                         ",
"                                                                                                                                                                                                         ",
"                                                                                                                                                                                                         ",
"                                                                                                                                                                                                         ",
"                                                                                                                                                                                                         ",
"                                                                                                                                                                                                         ",
"                                                                                                                                                                                                         ",
"                                                                                                                                                                                                         ",
"                                                                                                                                                                                                         ",
"                                                                                                                                                                                                         ",
"                                                                                                                                                                                                         ",
"                                                                                                                                                                                                         ",
"                                                                                                                                                                                                         ",
"                                                                                                                                                                ................                         ",
"                                                                                                                                                                ................                         ",
"                                                                                                                                                              ......XXXXXXXXXX....                       ",
"                                                                                                                                                              ......XXXXXXXXXX....                       ",
"                                                                                                                                                              ..ooXXOO++@@++OO@@++..                     ",
"                                                                                                                                                              ..ooXXOO++@@++OO@@++..                     ",
"                                                                                                                                                            ..XX++++OO..++++++..++++..                   ",
"                                                                                                                                                           ...XX++++OO..++++++..++++..                   ",
"                                                                                                                                                           .XXXXOO++++++++OO@@++++++..                   ",
"                                                                                                                                                           .XXXXOO++++++++OO@@++++++..                   ",
"                                                                                                                                                          ..ooXX++++++OO++++++++++@@..                   ",
"                                                                                                                                                          ..ooXX++++++OO++++++++++@@..                   ",
"                                                                                                                                                          ..XXXX++++##$$$$..$$..$$$$......               ",
"                                                                                                                                                          ..XXXX++++##$$$$..$$..$$$$......               ",
"                                                                                                                                                          ..ooXX@@..##$$$$$$$$$$$$$$$$$$..               ",
"                                                                                                                                                          ..ooXX@@..##$$$$$$$$$$$$$$$$$$..               ",
"                                                                                                                                                          ..XXXX....##$$$$$$$$$$$$$$$$....               ",
"                                                                                                                                                          ..XXXX....##$$$$$$$$$$$$$$$$....               ",
"                                                                                                                                                          ..XXXX..##$$$$$$$$######......                 ",
"                                                                                                                                                          ..XXXX..##$$$$$$$$######......                 ",
"                                                                                                                                                        ..XX@@++@@++++++++..++++....@@%%..               ",
"                                                                                                                                                        ..XX@@++@@++++++++..++++....@@%%..               ",
"                                                                                                                                                  ....  ..XX++++++++@@++....XX..&&..XX++..               ",
"                                                                                                                                                  ....  ..XX++++++++@@++....XX..&&..XX++..               ",
"                                                                                                                                                  ..XX........++@@XXXX........&&&&....++%%..             ",
"                                                                                                                                                  ..XX........++@@XXXX........&&&&....++%%..             ",
"                                                                                                                                                    ..XXXX++@@++++XXXX..&&..**&&==--**..++%%..           ",
"                                                                                                                                                    ..XXXX++@@++++XXXX..&&..**&&==--**..++%%..           ",
"                                                                                                                                                    ....++XX++XX++XX....**;;--&&**;;--..++%%..           ",
"                                                                                                                                                    ....++XX++XX++XX....**;;--&&**;;--..++%%..           ",
"                                                                                                                                                    ..@@......++@@XX..::**;;--&&**;;--..@@%%....         ",
"                                                                                                                                                    ..@@......++@@XX..::**;;--&&**;;--..@@%%....         ",
"                                                                                                                                                      ....++++@@++++......&&&&&&&&&&&&..XX++@@..         ",
"                                                                                                                                                      ....++++@@++++......&&&&&&&&&&&&..XX++@@..         ",
"                                                                                                                                                        ......XXXXXX++++..&&&&>>>>&&&&..@@,,XX..         ",
"                                                                                                                                                        ......XXXXXX++++..&&&&>>>>&&&&..@@,,XX..         ",
"                                                                                                                                                              ....@@XX..<<<<&&&&&&&&..XXXX....           ",
"                                                                                                                                                              ....@@XX..<<<<&&&&&&&&..XXXX....           ",
"                                                                                                                                                                  ....................                   ",
"                                                                                                                                                                  ....................                   ",
"                                                                                                                                                                ........1111..1111......                 ",
"                                                                                                                                                                ........1111..1111......                 ",
"                                                                                                                                                              ........11..........11......               ",
"                                                                                                                                                              ........11..........11......               ",
"                                                                                                                                                            ..........111111..1111....****               ",
"                                                                                                                                                            ..........111111..1111....****               ",
"                                                                                                                                                            ********......11..11......::..               ",
"                                                                                                                                                            ********......11..11......::..               ",
"                                                                                                                                                              ..::&&......11..1111....::..               ",
"                                                                                                                                                              ..::&&......11..1111....::..               ",
"                                                                                                                                                              ..2222..................&&&&..             ",
"                                                                                                                                                              ..2222..................&&&&..             ",
"                                                                                                                                                              ..&&&&..................&&&&..             ",
"                                                                                                                                                              ..&&&&..................&&&&..             ",
"                                                                                                                                                              ........**************........             ",
"                                                                                                                                                              ........**************........             ",
"                                                                                                                                                                  ..&&&&..    ..&&&&..                   ",
"                                                                                                                                                                  ..&&&&..    ..&&&&..                   ",
"                                                                                                                                                                  ..$$33........$$33........             ",
"                                                                                                                                                                  ..$$33........$$33........             ",
"                                                                                                                                                                  ..333333****..333333****..             ",
"                                                                                                                                                                  ..333333****..333333****..             ",
"                                                                                                                                                                  ..........................             ",
"                                                                                                                                                                  ..........................             "
};
