/* XPM */
static char *result[] = {
/* columns rows colors chars-per-pixel */
"32 32 83 1 ",
"  c #2BB3CB",
". c #32B1C7",
"X c #32B3CA",
"o c #3CB5CC",
"O c #3AB8CF",
"+ c #43B6CC",
"@ c #4CB6CC",
"# c #44BACE",
"$ c #4AB9CD",
"% c #59B7CC",
"& c #51BACF",
"* c #5AB8CF",
"= c #45B7D1",
"- c #45BAD1",
"; c #4ABBD1",
": c #52BED3",
"> c #59BDD2",
", c #62B9CE",
"< c #6ABACE",
"1 c #77BDCF",
"2 c #6CBCD0",
"3 c #7ABED1",
"4 c #5CC2D5",
"5 c #61C3D4",
"6 c #6AC5D6",
"7 c #7FC0D3",
"8 c #74CADA",
"9 c #78C8D9",
"0 c #85BECF",
"q c #88BCCE",
"w c #87BDD2",
"e c #88BED2",
"r c #80C1D5",
"t c #8DC3D3",
"y c #82CFDD",
"u c #95C4D5",
"i c #9CC4D4",
"p c #99C6D8",
"a c #9BC8D8",
"s c #8CD2DF",
"d c #A5C1D2",
"f c #A8C0D3",
"g c #A8CBDD",
"h c #B4CDDC",
"j c #B9CDDB",
"k c #BED2DE",
"l c #8DD4E1",
"z c #95D4E2",
"x c #9AD5E2",
"c c #A3D6E5",
"v c #A2D9E4",
"b c #ADDEE7",
"n c #ADDCE9",
"m c #B5D3E2",
"M c #BDD2E1",
"N c #B7DEE9",
"B c #BBDDEC",
"V c #BBE4EB",
"C c #CED9DE",
"Z c #C4D5E3",
"A c #CBD7E0",
"S c #C6D9E4",
"D c #CED9E2",
"F c #C4DDE9",
"G c #CADEEB",
"H c #C2E3EC",
"J c #CDE2ED",
"K c #D1E3EE",
"L c #D9E6EE",
"P c #D6E8EE",
"I c #DBEAEE",
"U c #CEE4F0",
"Y c #CEEDF2",
"T c #D2E4F0",
"R c #D8E7F0",
"E c #D5EAF2",
"W c #DBE9F1",
"Q c #E0EBEF",
"! c #E3EDF2",
"~ c #E8EFF4",
"^ c #E4F2F5",
"/ c #ECF3F5",
"( c #E8F4F8",
/* pixels */
"$XXXXXXX  . XX XXXXX .. XX   XX4",
"$.                            .+",
"(E#                         #Y^^",
"WPbO                       4bPPI",
"RKEn4                      >VKKP",
"RTJF4                     :HJJJP",
"RJJV4                  4VVVRKKKP",
"KTYV4                 $VPRRTJKKK",
"PTJGn; X           8VVHRTTTTJUKP",
"TKKJZ:9ss-        $pDDAZTJKKKKKT",
"TKJm7<F!Iv#8l4    ;<2<<7MMMjkMMZ",
"ZZh2oqhJKIzsz4         X<<<<<<<3",
"w<*X *2gZkJ:                   $",
"=      4<<9O                   =",
"=                             Xz",
"sX                          XyxP",
"P6                         X>FLL",
"PY#                        o3weZ",
"bzX           $4454>>+      X@%u",
";          &44c!!!^EFu+     X11&",
"=          V~!WJKKKJTGu$     X $",
"=          V!JKKKKKTTUGp4      =",
";         $HWGGPKKKJUTTKV:;    #",
";   X.   .VIGCCWKKJTGTJR^Uv    =",
"- $E((5. VRTJkD!TTKTKKKUR^Jc$  -",
"=ouGUKJ^4HRTKTMD//QTKKKKTT~TB= =",
"-XaJJUTJ>VRKUUUjfdffj!KUTKKGFpO=",
"- oiFTUhddFUUUM<....@j^UUUUFpo =",
"-  +efd@XXwfff2      @dfdddeo X=",
"-   ...    XXXX        ...XX   $",
"-                              #",
";X X X .XXXX   XX  .XXX X   X .#"
};
