/* XPM */
static char *result[] = {
/* columns rows colors chars-per-pixel */
"32 32 19 1 ",
"  c #3C5569",
". c #3D5768",
"X c #3F556A",
"o c #3D566A",
"O c #3C576A",
"+ c #3E576B",
"@ c #3D566C",
"# c #3C576C",
"$ c #435F75",
"% c #455F76",
"& c #426176",
"* c #446076",
"= c #456177",
"- c #5B758C",
"; c #5B778D",
": c #5C768D",
"> c #5D778E",
", c #6B8A9F",
"< c #6D899F",
/* pixels */
"oooooOoooooo ooooooooo+oooooo@@.",
"<***=***&***;:::::****::*******#",
"<****:*::>::::::>::;*::::::::*&o",
"<***:-::::::::::::::%::::;::::*X",
"<**:::::::::-:::::::>:::-:::::*o",
"<**-::::::::::::::>:::::::::::;+",
"<*:::::::::::::::::::>:>:-::::> ",
"<*::::;:::::::::-:::::-::::::;:o",
"<*::::>::::::::::::::::::::::::o",
"<*:::::::>:::-:::::::::::::::::o",
"<*::::::%%:-:-:::::::::::::::::o",
"<*:::::::::::::::::::::::::::::o",
"<*:::-:::::::::::::::::::::::::o",
"<*:::::-:::::::::::::::::::::::o",
"<*::::::::>::-:::::::::::::::::o",
"<;:::::::::::::::::::::::::::::o",
"<::::::::::::::::::::::::::::::o",
"<::::::::::::::::::::::::::::::o",
"<::::::::::::::::::::::::::::::o",
"<::::::::::::::::::::::::::::::o",
"<::::::::::::::::::::::::::>:::o",
"<:::::::::::::::::::::::%%:-:::o",
"<::::::::::::::::::::::::::::::o",
"<::::::::::::::::::::::::-:::>:o",
"<:::::>-:>:::::::::>::::::::::;o",
"<:::::::::::-::::::::-::::::::*+",
"<::::::::::::::>:>::::::::::--* ",
"<*::::::::::::::::::::::::::::*O",
"<*::::::::-:::::-:::::::::::::*o",
"<**::::::::::::::::::::::::::%*o",
"<***$*=::::%::::::%:::::*$***$*o",
"<<<<<,<<<<<<<<<<<<<<<<<<<<<<<<<o"
};
