/* XPM */
static char *result[] = {
/* columns rows colors chars-per-pixel */
"32 32 26 1 ",
"  c black",
". c #3C5569",
"X c #3D5768",
"o c #3F556A",
"O c #3D566A",
"+ c #3C576A",
"@ c #3E576B",
"# c #3D566C",
"$ c #3C576C",
"% c #435F75",
"& c #455F76",
"* c #426176",
"= c #446076",
"- c #456177",
"; c #862C6A",
": c #FBF236",
"> c #99E550",
", c #5B758C",
"< c #5B778D",
"1 c #5C768D",
"2 c #5D778E",
"3 c #CC2296",
"4 c #D77BBA",
"5 c #6D899F",
"6 c #C285AF",
"7 c #C39FB7",
/* pixels */
"OOOOO+O@OOOO.OOOOOOOOO@OOOOOO##X",
"5===-==  ===<11111====11=======$",
"5====1=   111111211<=11111111=*O",
"5===1,1     11111111&1111<1111=o",
"5==1111 3     1111112111,11111=O",
"5==,11  33      11211111111111<@",
"5=111            11112121,11112.",
"5=111            11111,111111<1O",
"5=111  4          1111111111111O",
"5=111  ;7         ,111111111111O",
"5=11:  4          ,1,1111111111O",
"5=11:: :::        1111111111111O",
"5=111  :         111111111,1111O",
"5=1111  :        1111111  11111O",
"5=11111         11,11211   1111O",
"5<11111111   111111111111  111<O",
"5111111113336311111111111   111O",
"51111111             11111   11O",
"5111111                111   11O",
"511111                  11   11O",
"511111                       11O",
"511111                      111O",
"511111                      111O",
"511111,                    1121O",
"5111111                    111<O",
"5111111                    111=@",
"5111111                    1,,=.",
"5=1111                    1111=+",
"5=1111   1   11,11   ,   11111=O",
"5==11   11>  111111  >>>>1111&=O",
"5===%>  11>  &11111>>>>>1%===%=O",
"55555>>>55>>>55555>>>>555555555O"
};
