/* XPM */
static char *_b8e0ab2d4dc4026a5dd214d42d1f210jYyqzSLVi3nfYHB0[] = {
/* columns rows colors chars-per-pixel */
"32 32 100 2 ",
"   c #010102",
".  c #0B0003",
"X  c #010A00",
"o  c #0B0A00",
"O  c #00020B",
"+  c #0B000B",
"@  c #130100",
"#  c #120009",
"$  c #1D000E",
"%  c #001100",
"&  c #030111",
"*  c #160010",
"=  c #1C0011",
"-  c #220015",
";  c #29001B",
":  c #7C3867",
">  c #7D3968",
",  c #3C566C",
"<  c #3D586C",
"1  c #6D7951",
"2  c #4B5E6D",
"3  c #455F75",
"4  c #485E72",
"5  c #7B536E",
"6  c #705679",
"7  c #785279",
"8  c #456076",
"9  c #5D7A75",
"0  c #5C7A7B",
"q  c #6B7666",
"w  c #65776B",
"e  c #65786D",
"r  c #657774",
"t  c #697573",
"y  c #64757D",
"u  c #6A727B",
"i  c #62787B",
"p  c #8F4777",
"a  c #844D75",
"s  c #8D4779",
"d  c #8C487B",
"f  c #825075",
"g  c #825A7C",
"h  c #598353",
"j  c #669A5A",
"k  c #699A58",
"l  c #679763",
"z  c #67966C",
"x  c #689375",
"c  c #EEEA7E",
"v  c #5E7686",
"b  c #5C7884",
"n  c #5C768D",
"m  c #6E6E86",
"M  c #7F6588",
"N  c #736B8A",
"B  c #637584",
"V  c #687387",
"C  c #617589",
"Z  c #876188",
"A  c #6A8F87",
"S  c #6B8D8E",
"D  c #6D8B96",
"F  c #6F879F",
"G  c #6D899F",
"H  c #BD8DA5",
"J  c #B68FAA",
"K  c #BB8DAA",
"L  c #BE8EA8",
"P  c #BE8AAE",
"I  c #B491A9",
"U  c #B592AA",
"Y  c #C786B1",
"T  c #C884B3",
"R  c #C887B2",
"E  c #A8D28A",
"W  c #ACCE92",
"Q  c #A7CE9F",
"!  c #A8CE9D",
"~  c #A5D291",
"^  c #A2D391",
"/  c #A4CFA2",
"(  c #A8CDA4",
")  c #AACAB3",
"_  c #EDEA81",
"`  c #EDE78F",
"'  c #EDE988",
"]  c #EEE888",
"[  c #EDE98E",
"{  c #ECE88F",
"}  c #EEE691",
"|  c #ECE796",
" . c #EAE798",
".. c #E7E898",
"X. c #E6E89F",
"o. c #E2E9A3",
"O. c #E7E5AA",
"+. c #E5E6AC",
"@. c #E7E4AF",
"#. c #E8A7D2",
/* pixels */
", , , , , , , , , , , , , , , , , , , , , , , , , , , , , , , , ",
"G 8 8 8 8 3 8 4 4 2 4 4 n n n n n n 8 8 3 4 B B 4 4 8 8 8 8 8 , ",
"G 8 3 3 3 n 3 n y O O B C n n n n n n n 4 B O O B n n n n 3 8 , ",
"G 8 3 3 n n n V & + O O B C n n n n n C 2 O + + & V C n n n 8 , ",
"G 8 3 n n n B & ; s +   O y B B B B B y O + = a * & V n n n 8 , ",
"G 8 3 n n n B & d p +       O O O O O     . $ a 5 + V n n n n < ",
"G 8 n n n n B O + + .                       . . . O B n n n n , ",
"G 8 n n n n B O       . . . .         . . . .       B n n n n , ",
"G 8 n n n n B O     . # P P # .     . # P P # .   O B n n n n , ",
"G 8 n n n n B O     . J T > J . .   . J Y : J . .   B n n n n , ",
"G 8 n n n n n B     . U #.Y U . .   . U #.T U . . O B n n n n , ",
"G 8 n n n n n y   . . @ K L @ . . . . @ K H @ . .   B n n n n , ",
"G 8 n n n n n w X.` . . . . . o ' o . . . . @ } @.  y n n n n , ",
"G 8 n n n n n w o _ O..     @.| ' [ @..     ' c o   y n n n n , ",
"G 8 n n n n n e o...          .   .          .[ @.  y n n n n , ",
"G n n n n n n i 1       O . . . . .           X   q y n n n n , ",
"G n n n n n n v i i B V N M * = - Z m B B B r r t u B n n n n , ",
"G n n n n n n n n n n V N 6 g f a 7 m C n n n C O O & C n n n , ",
"G n n n n n n n n n B O O . . . . . O O B C C B O   & n n n n , ",
"G n n n n n n n n B O                   O B B & O O B n n n n , ",
"G n n n n n n n B O                         y O O y C n n n n , ",
"G n n n n n n n B O                         u O O 2 n n n n n , ",
"G n n n n n n C O                               O B C n n n n , ",
"G n n n n n n B O                               O B n n n n n , ",
"G n n n n n n v O                           O O B n n n n n n , ",
"G n n n n n n n y                         u B B n n n n n n 8 < ",
"G n n n n n n n B O                     O B B n n n n n n n 8 , ",
"G 8 n n n n n n B O                     O B n n n n n n n n 8 , ",
"G 8 n n n n n n n i X X                 B n n n n n n n n n 8 , ",
"G 8 3 n n n n n n 0 ! W X     w         v n n n n n n n n 8 8 , ",
"G 8 8 8 3 8 8 n n 0 / ~ % % ! h Q ( ) 9 b n n n 8 3 8 8 8 3 8 , ",
"G G G G G G G G G S z k E E ^ j j l x A D G F G G G G G G G G , "
};
