/* XPM */
static char *player_up_21740331119[] = {
/* columns rows colors chars-per-pixel */
"32 32 22 1 ",
"  c #3D566A",
". c #3C576A",
"X c #3D566C",
"o c #4F464C",
"O c #435F75",
"+ c #426176",
"@ c #446076",
"# c #DF7126",
"$ c #D95763",
"% c #A6CC3D",
"& c #CCC53D",
"* c #DCFB36",
"= c #F1FB36",
"- c #D78F5E",
"; c #D8E666",
": c #5B758C",
"> c #5D778E",
", c #6B8A9F",
"< c #6D899F",
"1 c #EEC39A",
"2 c #D7C0AA",
"3 c #FFF2E4",
/* pixels */
"          ooooooooo           X ",
"<@@@@@@++ooo&&&&&;;oOO>>OOOO@@@ ",
"<@@@O>@>oo%&=;*;=*;;o::>>>:>>++ ",
"<@@@>:>>o;;;=;;;;;;;;o>:>:>:>>@ ",
"<@+>:>:>o;=;;;;=*;;;;o:>:>:>>:O ",
"<OO:>:>:o;;;==;;;;;*;o>:::>::>> ",
"<@>:>::>o;;;=;;;;;;;;;o>>::>:>> ",
"<@:>:>::o;===;;;;;;;;;o>>:>:>:: ",
"<@>>:>>:o;======;;;;;;o>:>:>:>: ",
"<@>>>::>o;;;;;===;;;;&oo>:>:>:> ",
"<O:>:>:>o;;;&&;;o;;;;&&o:>:>:>: ",
"<O>:>:>ooo;;&&&o&o&&&;oooo>:>:> ",
"<O:>::oo;oo&&ooo&&ooo&o;;o:>:>: ",
"<O>::>o;&&oooo&&&&&&ooo&;oo:>:> ",
"<+>>>oo&;&&&&&&&&&&&&;;;;oo>:>: ",
"<>>>:oooo;&&&&&&&&&&&&&&&;o:>:> ",
"<>:>:>oo;ooo&&&&;;&&&&oooo:>:>: ",
"<:>:>:>ooo&&&&;;;;;;&&&&&o>:>:> ",
"<::>:>>:>oo*&o;&&&;;ooooo>:>:>: ",
"<>>:>::>>::ooooooooooo:>>:>:>:> ",
"<>:>>:>:::ooooooooooooo:>>>>:>: ",
"<:>::>:>>oooooooooooooooOO::>:> ",
"<>:>>:>:oooooooooooooooo>>>:>:: ",
"<:>::>:>3333ooooooooo233:>:>:>> ",
"<::>:>>:>o21ooooooooo2o:>:>:>:: ",
"<>>:>:>::o$$ooooooooo11o:>:>:>O ",
"<>:>:>:>>o11ooooooooo11o>:>::>O ",
"<O>:>:>::oooo3333333oooo:>:>>>+ ",
"<O>>:>:>>::>o11o:o11o>:>:>>>:>O ",
"<OO>>:>::>>:o-#o>o-#o:>:>>>>>OO ",
"<OOOOOO>>:>Oo--o:oooo>:>OOO@OOO ",
"<<<<<,<<<<<<oooo<<<<<<<<<<<<<<< "
};
