/* XPM */
static char *player_right_21740331118[] = {
/* columns rows colors chars-per-pixel */
"32 32 31 1 ",
"  c #3D566A",
". c #3C576A",
"X c #3D566C",
"o c #4F464C",
"O c #435F75",
"+ c #426176",
"@ c #446076",
"# c #B04D09",
"$ c #DF7126",
"% c #934B52",
"& c #D95763",
"* c #A6CC3D",
"= c #CCC53D",
"- c #DCFB36",
"; c #F1FB36",
": c #D78F5E",
"> c #99E550",
", c #BDFF7D",
"< c #D8E666",
"1 c #76428A",
"2 c #5B758C",
"3 c #5D778E",
"4 c #6B8A9F",
"5 c #6D899F",
"6 c #C1A891",
"7 c #EEC39A",
"8 c #EEEA9A",
"9 c #D7C0AA",
"0 c #F4D1AB",
"q c #8BABE3",
"w c #FFF2E4",
/* pixels */
"          oooooooo            X ",
"5@@@@@@+Oooo=====ooOOO33OOOO@@@ ",
"5@@@O3@33o*=;<-<;-<o+33233233++ ",
"5@@@3233o=<<;o<<<o<<o323323233@ ",
"5@+3232o==;<<<<;-<<<o232232332O ",
"5OO2323o*=<<<;<<<<<-o3232232233 ",
"5@32322o==<<#$$o$o$$ooo33223233 ",
"5@23232o*=-o#$$$$$$$$$o23232322 ",
"5@33233o==oo#$$$$$$$$oo32323232 ",
"5@33322o==o#$$$$###ooo223232323 ",
"5O2323o=-<-<<<<o<<oo-8o32323232 ",
"5O2oo3o=<<<<-<oo=o7o=<o23232323 ",
"5O2o=oooo<-==oooo77oo<8o2323232 ",
"5@32o==<-<<==o7ow701wo<8o232323 ",
"5+33oo<=<=<=oowq17wq1o<8o323232 ",
"5333o-ooo<-=o9wq17wq1o-8oo32323 ",
"53232oo<<-<<ooo777777o=<-o23232 ",
"523233ooo===<<o77%%77o-,=o32323 ",
"522323323oo-=o667777o==oo323232 ",
"53323223322oooooooooo2323232323 ",
"5323323222oooo>>o>>ooo233333232 ",
"523223233oooo>ooooo>ooo3OO22323 ",
"53233232ooooo>>>o>>ooww23332322 ",
"52322323wwwwooo>o>ooo9o32323233 ",
"522323323o97ooo>o>>oo9o23232322 ",
"533232322o&&ooooooooo77o232323O ",
"532323233o77ooooooooo77o323223O ",
"5O3232322oooowwwwwwwoooo232333+ ",
"5O3323233223o77oo7o32323333323O ",
"5OO332322332o$:oo:oooo3223333OO ",
"5OOOOOO3322Oo::wo::wwo33OOOOOOO ",
"555554555555oooooooooo555555555 "
};
