/* XPM */
static char *_1f676c2e32c4db4b04ebbf7e884c535[] = {
/* columns rows colors chars-per-pixel */
"32 32 6 1 ",
"  c None",
". c #384753",
"X c #55647D",
"o c #FF5A00",
"O c #FFD461",
"+ c #7891A5",
/* pixels */
"                                ",
"                                ",
"                                ",
"                                ",
"                                ",
"                                ",
"                                ",
"                                ",
"                                ",
"                                ",
"        ................        ",
"       .XXXXXXXXXXXXXXXX.       ",
"       .++++++++++++++++.       ",
"       .+oooooooooooooo+.       ",
"       .+oOOoOOOOoOOoOo+.       ",
"       .+oooooooooooooo+.       ",
"       .+oOoOOOOOOOoOoo+.       ",
"       .+oooooooooooooo+.       ",
"       .+oooooooooooooo+.       ",
"       .+oooooooooooooo+.       ",
"       .+oOOoOOoOOooooo+.       ",
"       .+oOOoOOoOOooooo+.       ",
"       .+oooooooooooooo+.       ",
"       .++++++++++++++++.       ",
"        ................        ",
"                                ",
"                                ",
"                                ",
"                                ",
"                                ",
"                                ",
"                                "
};
