/* XPM */
static char *result[] = {
/* columns rows colors chars-per-pixel */
"32 32 50 1 ",
"  c #222C34",
". c #232E36",
"X c #753D21",
"o c #2D3A44",
"O c #313E49",
"+ c #34424D",
"@ c #384753",
"# c #40515E",
"$ c #445563",
"% c #485A68",
"& c #4B5B69",
"* c #4C5D6B",
"= c #4C5F6D",
"- c #4E5F6D",
"; c #516270",
": c #506473",
"> c #526675",
", c #556776",
"< c #546878",
"1 c #566B7A",
"2 c #586A79",
"3 c #586D7D",
"4 c #91431A",
"5 c #915226",
"6 c #FF8C1E",
"7 c #CD8733",
"8 c #FF9C28",
"9 c #F19935",
"0 c #FFA32F",
"q c #FFA133",
"w c #FFA83B",
"e c #CD9C48",
"r c #FEA640",
"t c #FCB158",
"y c #CB9B62",
"u c #CAA06E",
"i c #C9A67A",
"p c #607383",
"a c #617483",
"s c #647686",
"d c #6D8293",
"f c #6F8292",
"g c #66869C",
"h c #708394",
"j c #5B8CAB",
"k c #7C90A1",
"l c #8297A9",
"z c #C8AB86",
"x c #FAC587",
"c c None",
/* pixels */
"cccccccccccccccccccccccccccccccc",
"cccccccccccccccccccccccccccccccc",
"cccccccccccccccccccccccccccccccc",
"ccc-;;;;;;;;;;;;;;;;;;;;;;;ccccc",
"cc@pdddddddddddddddddddddddacccc",
"cc@#3333333333333333333333332ccc",
"cc@#333=##############>33333%ccc",
"cc@#333%ew5           O:3333%ccc",
"cc@$333%709X          .+3333%ccc",
"cc@:333%78w4           o3333%ccc",
"cc@:333%78w4           o3333%ccc",
"cc@:333%78w4           o3333%ccc",
"cc@:333%zrq4           o3333%ccc",
"cc@:333%yx64           o3333%ccc",
"cc@:333%yx64           o3333%ccc",
"cc@:333%ur64           o3333%ccc",
"cc@:333%it64           o3333%ccc",
"cc@:333%i864           o3>:1%ccc",
"cc@:333%7864           o<fk,%ccc",
"cc@:333%7864           o:hl&%ccc",
"cc@:333%7864           o:hj&%ccc",
"cc@:333%7864           o:hg&%ccc",
"cc@:333%7864           o>sh*%ccc",
"cc@:333%7864           o3=%<%ccc",
"cc@:333%7864           o3333%ccc",
"cc@:333%7864           o3333%ccc",
"cc@:333%7864           o3333%ccc",
"cc@:333%7864           o3333%ccc",
"cc@#333%7864           o3333%ccc",
"cc@#333%7864           o3333%ccc",
"cc@#333%7864           o3333%ccc",
"cc@$333%7864           o3333%ccc"
};
