/* XPM */
static char *result[] = {
/* columns rows colors chars-per-pixel */
"32 32 4 1 ",
"  c #011627",
". c #BC7528",
"X c #6D899F",
"o c white",
/* pixels */
"oooooooooooooooooooooooooooooooo",
"o     o     o      o     o     o",
"o     o     o      o     o     o",
"o     o     o      o     o     o",
"o     o     o      o     o     o",
"o     o     o      o     o     o",
"o.....o.....o......o.....o.....o",
"o.....o.....o......o.....o.....o",
"o     o     o      o     o     o",
"oooooooooooooooooooooooooooooooo",
"oooooooooooooooooooooooooooooooo",
"ooooooooooo..........ooooooooooo",
"ooooooooooo.        .ooooooooooo",
"ooooooooooo. XXXXXX .ooooooooooo",
"ooooooooooo. XXXXXX .ooooooooooo",
"ooooooooooo. XXXXXX .ooooooooooo",
"ooooooooooo. XXXXXX .ooooooooooo",
"ooooooooooo. XXXXXX .ooooooooooo",
"ooooooooooo. XXXXXX .ooooooooooo",
"ooooooooooo. XXXXXX .ooooooooooo",
"ooooooooooo.        .ooooooooooo",
"ooooooooooo..........ooooooooooo",
"oooooooooooooooooooooooooooooooo",
"o.....o.....o......o.....o.....o",
"o.....o.....o......o.....o.....o",
"oXXXXXoXXXXXoXXXXXXoXXXXXoXXXXXo",
"oXXXXXoXXXXXoXXXXXXoXXXXXoXXXXXo",
"o     o     o      o     o     o",
"o     o     o      o     o     o",
"o     o     o      o     o     o",
"o     o     o      o     o     o",
"oooooooooooooooooooooooooooooooo"
};
