/* XPM */
static char *_75c4a93854540eacdd627f069bc5e0e65cVXj3EjYBnQUn6[] = {
/* columns rows colors chars-per-pixel */
"32 32 59 1 ",
"  c black",
". c #132816",
"X c #222C34",
"o c #232E36",
"O c #00611C",
"+ c #1B6524",
"@ c #237521",
"# c #2D3A44",
"$ c #313E49",
"% c #34424D",
"& c #384753",
"* c gray29",
"= c #40515E",
"- c #445563",
"; c #475E64",
": c #485A68",
"> c #4B5B69",
", c #4C5D6B",
"< c #4C5F6D",
"1 c #506473",
"2 c #526675",
"3 c #556776",
"4 c #546878",
"5 c #566B7A",
"6 c #586A79",
"7 c #586D7D",
"8 c #2C9126",
"9 c #42911A",
"0 c #14CC29",
"q c #3BFF2F",
"w c #69FF1E",
"e c #51CD33",
"r c #4BFF28",
"t c #54FF3B",
"y c #60F135",
"u c #3EBC4D",
"i c #38A76F",
"p c #54975C",
"a c #72B179",
"s c #8EFF28",
"d c #87CD48",
"f c #92C97A",
"g c #A6CB62",
"h c #607383",
"j c #617483",
"k c #647686",
"l c #586FC3",
"z c #219AB6",
"x c #38A1A7",
"c c #6D8293",
"v c #6F8292",
"b c #66869C",
"n c #708394",
"m c #5B8CAB",
"M c #7C90A1",
"N c #7CA5AE",
"B c #8297A9",
"V c #FAC587",
"C c #C9FA87",
/* pixels */
"N.x  NOO OOO .ii. .pp.0Ozpz.zpzp",
"N0     0x0   p  iz 0p.0  zzzzppO",
"O aa00NN  0 0. . iz z0zz;zzzzpz.",
"       0. a00..0z    0.zp.zzzzpz",
"Op.&hcccccccccccccccccccccccj ..",
"Oal&=7777777777777777777777776..",
"0lx&=777<==============277777:.O",
"l  &=777:dd8XXXXXXXXXXX$17777:p.",
" lN&-777:eqy@XXXXXXXXXXX%7777:..",
"NNN&1777:ert9XXXXXXXXXXX#7777:  ",
"*ap&1777:ert9XXXXXXXXXXX#7777:pz",
"*pu&1777:ert9XXXXXXXXXXX#7777: .",
"i0N&1777:fgt9XXXXXXXXXXX#7777:z.",
"O0l&1777:gVt9XXXXXXXXXXX#7777:.p",
"i  &1777:gCw9XXXXXXXXXXX#7777:..",
"O0 &1777:ggw9XXXXXXXXXXX#7777:zO",
"i p&1777:ffw9XXXXXXXXXXX#7777:pN",
"Op &1777:fsw9XXXXXXXXXXX#7214: .",
"00N&1777:esw9XXXXXXXXXXX#4cM3:NO",
"0N0&1777:esw9XXXXXXXXXXX#1nB::NN",
"00 &1777:esw9XXXXXXXXXXX#1sm::Np",
"0 *&1777:esw9XXXXXXXXXXX#1nb::NN",
"x p&1777:esw9XXXXXXXXXXX#2kn,:z.",
"0u.&1777:esw9XXXXXXXXXXX#7<:4:. ",
"Ozz&1777:esw9XXXXXXXXXXX#7777:. ",
"0.0&1777:eswwXXXXXXXXXXX#7777:  ",
"   &1777:eswwXXXXXXXXXXX#7777:..",
"00 &1777:eswwXXXXXXXXXXX#7777:..",
"l .&=777:esw9XXXXXXXXXXX#7777: N",
"O +&=777:esw9XXXXXXXXXXX#7777: N",
"0 N&=777:esw9XXXXXXXXXXX#7777:..",
"0O0&&&&&&&&&&&&&&&&&&&&&&&&&&&.."
};
