/* XPM */
static char *_404c9c2e96745aaa5bd410115ee8e47IRTlPQeGK0LoHDt9[] = {
/* columns rows colors chars-per-pixel */
"32 32 15 1 ",
"  c black",
". c #132816",
"X c #00611C",
"o c #1B6524",
"O c gray29",
"+ c #475E64",
"@ c #14CC29",
"# c #3EBC4D",
"$ c #38A76F",
"% c #54975C",
"& c #72B179",
"* c #586FC3",
"= c #219AB6",
"- c #38A1A7",
"; c #7CA5AE",
/* pixels */
";.-  ;XX XXX .$$. .%%.@X=%=.=%=%",
";@     @-@   %  $= @%.@  ====%%X",
"X &&@@;;  @ @. . $= =@==+====%=.",
"       @. &@@..@=    @.=%.====%=",
"X%.-. ;         ..@== =.%.=+==..",
"X&*@#  ;;;@@  ;.@= =%=  .= ;%=..",
"@*- %. @  @; =@ =@= ==@  =.=%..X",
"*  -+ #  @ @* =.  %=@=&X= X=..%.",
" *;@@.@=&%X      =         ;.=..",
";;;%= -@@+@.;@.== .%=%@=%.=     ",
"O&%* ; %%  O +=    %..=%==X== %=",
"O%#@--% @=XX ; @ .% .  . @@%.. .",
"$@;;;%=XOX  @= & %=%.&  XXX.. =.",
"X@*-@    -= ;***   % %X.%==  ..%",
"$    % @ =   =%=;+++ %% ;.;. =..",
"X@ @+ @+ @;== @ ;%;%.@... %.;*=X",
"$ % O%* % *X*;.X==+...&*;..; ;%;",
"X% O                      .=.. .",
"@@;@  OX=*@X =.X;.+X%%=% ;=% ;;X",
"@;@ ;*;X.  ..;XX.@ ..&.  .%;.;;;",
"@@ & O%@o  @ X = +X =.=.;.%.;.;%",
"@ O@#O- = @ %X.X===% =.+;;.% =;;",
"- %.- ;#*; %. ====%=.  ;..% ..=.",
"@#.@   +* ;oXX@=.%Xo;;;.. ...;. ",
"X== =.-@.  oo@XX=;X=X.......... ",
"@.@.  @@ . .. +.  =             ",
"   %o=**.= ..  o;.;.;..=;..%%&..",
"@@             =@ =%;.....%%%%..",
"* ..  =.oo .%.        %.=.%.;% ;",
"X o@@;@@oo@ o ...  o ..=....;  ;",
"@ ;@= o  Oo .@%%o..%%=.%..=. ...",
"@X@@.=@Xoo@.o..X..X =.....%....."
};
