/* XPM */
static char *_991edca2cf9433d9eb968cb9e70adb2t9rf0jomVrRzLN3J[] = {
/* columns rows colors chars-per-pixel */
"32 32 2 1 ",
"  c black",
". c #00611C",
/* pixels */
"................................",
".                              .",
".                              .",
".                              .",
".                              .",
".                              .",
".          ....   ........     .",
".         .....   .........    .",
".        ......   ..........   .",
".       .......          ...   .",
".      ......           ....   .",
".     ......           .....   .",
".    ......           .....    .",
".   ......           .....     .",
".  ......           .....      .",
".  .....           .....       .",
".  .............  .....        .",
".  .............  ....         .",
".  .............  ....         .",
".   ............  ....         .",
".           ....  ....         .",
".           ....  ....         .",
".           ....  .........    .",
".           ....  .........    .",
".           ....  .........    .",
".                              .",
".                              .",
".                              .",
".                              .",
".                              .",
".                              .",
"................................"
};
