/* XPM */
static char *result[] = {
/* columns rows colors chars-per-pixel */
"64 64 256 2 ",
"   c #231A10",
".  c #30271C",
"X  c #30352D",
"o  c #37393A",
"O  c #533929",
"+  c #27442D",
"@  c #34432C",
"#  c #38432D",
"$  c #3D542D",
"%  c #394537",
"&  c #3B4C34",
"*  c #3D5432",
"=  c #376A3C",
"-  c #474639",
";  c #445736",
":  c #525235",
">  c #67542D",
",  c #6B5B37",
"<  c #476235",
"1  c #526635",
"2  c #557B39",
"3  c #6D713B",
"4  c #2D3D46",
"5  c #3B3D44",
"6  c #3E4344",
"7  c #374C55",
"8  c #384B55",
"9  c #367845",
"0  c #367069",
"q  c #424343",
"w  c #464948",
"e  c #4B4C4D",
"r  c #534C4C",
"t  c #4C5548",
"y  c #585749",
"u  c #464B53",
"i  c #4A4D53",
"p  c #4A535A",
"a  c #535355",
"s  c #5A5855",
"d  c #53555B",
"f  c #56595D",
"g  c #5B5C5C",
"h  c #675C50",
"j  c #56684A",
"k  c #6E664E",
"l  c #64625A",
"z  c #465A64",
"x  c #5B5D63",
"c  c #585B65",
"v  c #445E70",
"b  c #605F68",
"n  c #5D6168",
"m  c #4A6474",
"M  c #576876",
"N  c #636364",
"B  c #68686B",
"V  c #75716B",
"C  c #686C75",
"Z  c #6C7177",
"A  c #6D737B",
"S  c #727374",
"D  c #73757B",
"F  c #76797B",
"G  c #7A7B7D",
"H  c #AB3135",
"J  c #B37216",
"K  c #A66E22",
"L  c #D13A43",
"P  c #897647",
"I  c #A46056",
"U  c #DC6E61",
"Y  c #59833D",
"T  c #689B36",
"R  c #75A42F",
"E  c #6AA23C",
"W  c #6CAB3C",
"Q  c #76AC3A",
"!  c #75B53B",
"~  c #588A45",
"^  c #628C4A",
"/  c #718E47",
"(  c #7C9844",
")  c #5AAD51",
"_  c #54BC55",
"`  c #6CA744",
"'  c #71AD44",
"]  c #71AB4A",
"[  c #73B544",
"{  c #76BA44",
"}  c #7ABC46",
"|  c #75B44B",
" . c #79B548",
".. c #77B84B",
"X. c #7ABC4B",
"o. c #6FB356",
"O. c #78B754",
"+. c #7DBD52",
"@. c #61A071",
"#. c #7CC345",
"$. c #7DC24B",
"%. c #7EC251",
"&. c #78C15D",
"*. c #79CB76",
"=. c #AD8B3F",
"-. c #89A939",
";. c #85B53E",
":. c #CF9128",
">. c #D8992C",
",. c #EBAD38",
"<. c #ACC03A",
"1. c #899C53",
"2. c #A78A45",
"3. c #B39752",
"4. c #8AA74D",
"5. c #86BA4A",
"6. c #9FBE44",
"7. c #91BB48",
"8. c #81BD59",
"9. c #9AB55C",
"0. c #BFA25A",
"q. c #8F8576",
"w. c #A4896E",
"e. c #AD9762",
"r. c #A88D72",
"t. c #AB9478",
"y. c #8BB969",
"u. c #AAB670",
"i. c #D69E59",
"p. c #D0A957",
"a. c #EEBA49",
"s. c #CEB169",
"d. c #D6B665",
"f. c #81C54D",
"g. c #85C84A",
"h. c #9BC148",
"j. c #82C453",
"k. c #85CA53",
"l. c #88CA58",
"z. c #9AC955",
"x. c #AED049",
"c. c #A4CA51",
"v. c #90C86C",
"b. c #8DC971",
"n. c #95CA75",
"m. c #ADC971",
"M. c #A7C978",
"N. c #97E17A",
"B. c #FAC64B",
"V. c #F2C753",
"C. c #FCCB55",
"Z. c #FCD659",
"A. c #CFCD78",
"S. c #F2CE6B",
"D. c #FDDA66",
"F. c #E5C977",
"G. c #ECD47D",
"H. c #F8D979",
"J. c #FDE173",
"K. c #6E7683",
"L. c #757B83",
"P. c #747985",
"I. c #7B7D82",
"U. c #F47D80",
"Y. c #7B8288",
"T. c #7A8791",
"R. c #6AAF92",
"E. c #61A29F",
"W. c #69C793",
"Q. c #6ECDA8",
"!. c #6DB5D9",
"~. c #6EB5E9",
"^. c #77B8EA",
"/. c #79D2D8",
"(. c #74D1ED",
"). c #76C6FF",
"_. c #7AC5FB",
"`. c #79C7FA",
"'. c #848588",
"]. c #8B8B8D",
"[. c #91928B",
"{. c #848A93",
"}. c #8B8D92",
"|. c #888C97",
" X c #8D9298",
".X c #94969A",
"XX c #A89B94",
"oX c #8FAD8D",
"OX c #B3AF8D",
"+X c #999CA2",
"@X c #AA9DA7",
"#X c #9DA2A7",
"$X c #ACA0A2",
"%X c #A8A5AA",
"&X c #B6B6AD",
"*X c #EB9088",
"=X c #D4B68A",
"-X c #CFA69B",
";X c #E7B58D",
":X c #ECB196",
">X c #F7B995",
",X c #8CD08C",
"<X c #AFD093",
"1X c #A9E48E",
"2X c #89C9AD",
"3X c #B4D5A4",
"4X c #B8EDA5",
"5X c #D3CA93",
"6X c #EDD583",
"7X c #F4DB88",
"8X c #E6C89A",
"9X c #F8C69B",
"0X c #FECB9D",
"qX c #EAD191",
"wX c #F9D39C",
"eX c #C6EC88",
"rX c #F9E28B",
"tX c #FAE896",
"yX c #EDF790",
"uX c #FBF399",
"iX c #FEF39C",
"pX c #D0D3B3",
"aX c #E3CEA1",
"sX c #FBCBA2",
"dX c #EAD7A8",
"fX c #F4D7A4",
"gX c #FED2A5",
"hX c #C7E7A8",
"jX c #C9EFAF",
"kX c #F8E7A7",
"lX c #FDF6A6",
"zX c #FDFCA3",
"xX c #E9E7BA",
"cX c #F7E6BB",
"vX c #FDFCB8",
"bX c #92BDDC",
"nX c #85BAE4",
"mX c #85C3D9",
"MX c #87C8EB",
"NX c #8ECCE9",
"BX c #97C5E4",
"VX c #84C9FF",
"CX c #8DCDFD",
"ZX c #8FD1FB",
"AX c #91D0FE",
"SX c #9FD4F9",
"DX c #B5D1EC",
"FX c #A1DAFF",
"GX c #BBE1F9",
"HX c #DAD8CE",
"JX c #F2EDCF",
"KX c #FDF7CB",
"LX c #FDFDD8",
"PX c #C1E1FF",
"IX c #F8F7E7",
"UX c #F1F4EE",
/* pixels */
"a y ).).).).).8 4 g ).).).).).~.].s _.).).).).l s _.).).).).8 r _.).~.).JX X).N o ).).).).).v b ^.^.).).`.`.a o ).).).).).).~.u ",
"a a ).JXBX).).8 8 e ).).).).).OX].d _.).).).).l a _.).).).).8 '._.BXUXE.UXoXJX].u ).).).).).v '.^.nX`.E.R.R.V o XXR.R.(.).).~.t ",
"B d ).UXLX).).4 4 e ).).).).).^..Xz ).).S.Z.D.g l rX).).).).p q._.).W.(.W./.).}.8 `.~.Q./.nXr ].-XR.E.R.E.[.g q <XUXUXUXBX`.~.i ",
"B l b.$.R.2X).8 4 e ).).`.(.n.%. Xt ).Z.Z.Z.Z.B N D.rX).).).7 '._.).W.(.Q.MX`.].8 ).).2XQ.E.r |.-XT.E.R.NX[.G - ` JXUXUXmXyX!.n ",
"s l gX8XfXfX0X- - a fXkX8X;XwXfX+Xk Z.C.Z.Z.Z.B B D.J.rXgX;Xy .X5X8XfXfX:X;XdXY.- wXfXwXgXsXk [.8X8XfXfX8XwXF w fXwXfXgX;XwX5XB ",
"l B gX8XfXsX0X- - l sXgX9X:XgX9X%Xh C.Z.C.C.Z.B N D.D.H.cX>Xy %X>XsX0X0X>X>XgXG r sXsXsX0X0Xh %X9X>XfXwXwXsXS y fX8X0XwX>X0X;XV ",
"g B 0X:XgXgXfX- - l 9X0X9X0XwX9X]., C.C.C.C.C.N N Z.D.D.H.0Xh +X9XsXsXsX>XsXsX].: sXgXgXgX0Xk %X8X9X0XsX9XsX].a gX9XgX9X0XwX;XG ",
"g n w.t.r.r.r.s y B w.w.w.w.XXP F y 2.2.2.=.2.B l 2.3.3.e.r.k q.w.r.r.r.r.w.r.].l t.XXt.t.t.V .Xw.r.t.t.t.t..XB r.r.t.w.w.w.w.Y.",
"5 q q o q o o % q q e a a a a g g g x s b g g b B V B '.'.P.P '.S D G S C ].+X.X].#X%X%X+X%X#X].$X%X].Y..X[.%X.X].[.l l l s q.'.",
"5 q q 6 q o 5 - q q e p a a w f s g S B N N s N B S F G T.|.P.G D S S S L.%X}.].'.%X+X{.&X$X%X%X%X+X#X#X+X%X X}.[.'.B V V G '.'.",
"N g 5X*X*Xu.<X- r Z :X>XwX>X;X:X].h S.C.a.a.a.N B B.B.B.kXkX: }.C.S.>X>XU.U sX Xs U u.<X=X9Xk .X;XgX,XfXwXgXS e 9X>X=X>X9X:X;X+X",
"x N u.*X>X1XN.& O b u.5X0X9Xn.=X].y 7XS.kXkXkXN l 7XrXrXwXtX> ].i.:X:X9X*XU.;X'.r U.1XN.M.>Xk {.u.0Xu.M.F.>XS w 9XsXM.>X>Xu.u. X",
"g g 3Xy.=X<XeX& - Z 1XA.@.oX1Xu.].s 1XH.a.kXwXg l S.d.p.L L y .Xi.:XM @.*.*.y.'.a @.<XeXn.m.f  Xu.^ 1X,Xn.>X'.t 5X0Xn.M.oX1Xu.#X",
"x d @.3XxXoX4Xt & A ,X3X@.R.,X<X}.t hX4XS.qX6XA B I H L H H s '.gXJXUX3Xy.,X*.'.6 0 oX4X3X,X9 #X<XE.3XeXb.m..Xa s.@.3X,XR.,X<X#X",
"N a v.;X9XhXhXt t F 3XhX4XhXhX3X}.j hXjXjXjXhXB M 7XlXuXzXzXj ].kXvXvXvXLX4X<X.X6 9 jXhX4XjXV #X<X4XoX4X3X,XY.p 3XR.jXjXjXhX<X+X",
"N y ;X>XwX<Xn.& & I.v.b.b.v.v.v. Xj n.n.n.y.v.C S iXzXlXzXzXk .XlXvXvXvXvXKXKX].7 0 1Xb.n.b.<  Xv.v.hXhXjXjXF p 4X4Xn.n.b.y.O.T.",
"f a $X$X%X%X$Xq q I.$X$X$X@X%XXXI.r @X$X$X$X%XB B zXzXzXzXzXh ].lXzXlXvXvXvXKX+Xe $X$X$X%X%Xa C [.$X$X$X$X$XI.s $X$X$X@X%X$XXX}.",
"a f GXGXPXPXPXd p '.GXGXGXPXPXDXI.M PXPXPXlXiXN g zXzXzXzXzXy }.tXlXzXlXlXzXvX}.p PXPXGXPXGXA #XDXGXPXPXPXPXY.f PXPXGXGXPXPXDX}.",
"g f FXFXZXZXAXp p T.ZXFXFXZXZXMXG m FXSXZXlXiXN g zXzXzXzXzXy .XtXlXzXzXlXlXvX'.s AXAXFXFXAXm T.nXFXFXAXAXAX Xc ZXAXFXFXAXCX!..X",
"f f AXZXVXVXVXp p G VXAXAXVXVX^.S m S.a.lXiXtXN x iXzXiXzXzX, I.rXtXtXiXlXlXkXP.y tXVXAXZXVXm }.^.AXZXVXVXVX+Xd VXVXAXCXVXVX^.P ",
"e r `.`.NXNX_.8 p D _.`.).NXNXbXq.z B.B.lXiXtXB g uXiXtXtXtX: I.F.7X7XrXrXtXG.P.- D.H.nX`.NXM {.~.`.`.NXNX_.+Xc NX_.`.`.NXNX!.b ",
"a a FXFXZXZXCXp 8 B SXSXAXZXZXMX.Xk B.B.iXtXtXb g tXtXtXrX7Xy F G.S.G.G.G.7Xd.P : D.H.FXZXZXK.T.nXFXFXZXZXZX+Xc AXFXFXCXCXAXbXS ",
"f g AXCXVXVXVXp u L.ZXCXVXVXVX^.Y., B.,.tXrX7Xa a 6XG.G.d.H.y }.tXuXyX. . tXkX@.: Z.D.J.`.VXm F nXAXCXVXVXVX].p VXAXCXVXVXCXnX{.",
"x N _.`.NXNX).8 t '.`.`.NXNX_.bX+X, a.,.i.G.F.a a d.  . rXuXy I.uXzXzXIX. k lX'.r C.Z.D.J.NXm ].~.`.`.NXNX_.P z VX`._.NXNX^.!.D ",
"x n h.O.o.h.o.s : '.| Q x.x.! ' #X, a.,.J F.d.s x 6X. . uXuXy S uXuXiX- X . zX.X: B.Z.D.J.$.< F T j.W h.! { F 6 ! z.E f.W h.T '.",
"a x j.y.k.l._ % y F 7.h.Q | 5. ..X, ,.>.K G.rXg e . UX. uXuX, L.yXzXzXzX. , zXG r ,.C.Z.D.rX< ].E W [ Q X. .F - X.j.! Q ' ! E F ",
"f f f.v.b.O._ @ % Y.E 6. .[ ! F.XX> ,.>.3.H.7Xg w uX. . uXuXy Y.JXLXLXzXzXzXzXD y zX,.Z.D.J.1 [.T R j.{  . .V % h.X.Q Q f.{ ` S ",
"f a y.v.y.v.M.o @ S E ;.W { E V.[., ,.>.p.6XrXa w uX. q.uXuXj L.V V q.IXIXzXzXZ t zXiXZ.Z.J.1 '.<.x.[ X.o.o.F w O.Q x.x.[ ..T S ",
"f d y.&.M.[ j.% * D W W ..! W a.[., >.>.i.H.tXd r uXiXiXiXLXs Z xXLXLXLXIX&XIXV y zXiXZ.Z.D.; I.E f.l.k._ ) S % ;.h.[ #.l.k.' S ",
"d i $.9.) l.| & t F %.;.Q kXD.a.].> >.:.d.H.rXf r tXiXiXLXLXs C KXIXLXLXOXLXLXZ t tX7XC.Z.Z.< F E g.;.} _ 9 G % Q 6.[ z.;.} ` S ",
"i i y.8.l.v.k.@ & S [ ..R D.C.V.'.> >.:.d.7XrXx e uXiXLXOXLXs n JXLXLXOXpXLXLXF w rX6XC.C.Z.$ B Q x.{ 5.n.^ n o W ;.! x.| 5.' B ",
"i p v.j.k.8.7.& & A ;.R | C.C.a.'.> :.J d.7XrXf i tXKXKXKXLXq Z U U U U KXKXKXY.a F.>.B.C.a.< c ..%.h.c.$.#.V o 7.Q %.%.h.x. .B ",
"u i j.o.y.&.] % % B W z.Z.B.B.a.G > J K s.6X7Xx r tXKXKXKXKXa B i.:X:X-XJXJXcXY.w s.>.a.a.a.1 a ;.g.#.f.%.l.g o h.Q h.g.g.%.[ S ",
"i f Q O.O.l.+.# # C 7.tXV.B.a.p.F > J J 3.F.G.g i 7XcXJXKXcXs c -X*X*XcXfXdX8XP.% i.i.:.:.#.; n 7.;.#.} %.g.x X R #.c.! #.} ] B ",
"u p c.O.O.j.+.% & N R } a.,.,.>.F O J :.J s.d.d w G.dXdXdXdXy B aXdXaXaX=Xs.3.P.- F.G.8.o.%.$ n -.! %.$.X.+.n X ! { ;.! $.#.` G ",
"w i $.j.v.l.k.& % N W ) ,.,.,.>.V O :.:.J 3.s.a w F.aXaXaX8Xr K.=X=X5X=X0.2.^ P.- G.6Xg.%.$.$ A T h. .{ +.j.g o [ } c.Q [ ;.| S ",
"5 5 ~ j ^ 2 j % % c 2 2 2 2 P j l ; ^ Y 2 ~ 2 d u P P P P P w C P , V O V q.q.A r e.e.j 2 k ; C 2 2 ~ Y ~ 2 n % ^ ~ Y Y 2 2 2 Z ",
"X o o o 5 X % o o 5 5 5 w f d i t f B e o u x N B N a g c C B C B I.I.K.B F M Y.C c @.D S @.Y.C x f x c }..XF ].D c w i e f a g ",
"5 w W  .X.X.X.& @ x | O.| O.l.5.Y.* X.X.O.f.6.d 5 JXJXUXpX1.% Z I DXL I j y 3XB o H.%.l.O.f.; a E {  .z.8.O.G w 7.X.| +. .[  .g ",
"u w ..[ | ` | # X f ] ....[  .| q.* j.l.j.5.8.5 5 IXUXUXUX1.- A ; ; ; ; ; 1 &Xc o +.| +.g.f.; x X.j.$.} j.f.'.e X.| ..j.l.l.' N ",
"5 5 ..[ [ [ } X X s #...%...j.| {.* $.l...6X7Xq 5 s.UXUXHX&X& Z 4.( k < t u.f.i X l.l.O.+.+.< d Q X.+.} $.+.Y.6 +.8.[ %.l.j.` '.",
"5 5 ` { ....[ & - x [ } %.$.$...P.1 ..| 7XrX7Xq o F.HXHX&X[.: Z m.c.z.; UXM.5.i X f.l.X.+.+.< Z ` 5.#.$.$.f.F t W [ X.X.| [ 4.|.",
"o 5 { } { #.#.@ @ i $...} h...X.D ; wXtXtX7XtX5 5 d. .l.9.1.- A A.9.9.m.}.j #.p X 7.%.$.X.j.< T.] c.%.$.f.#.Y.w } h.%.6.j.{ ' }.",
"u u ..5.$.g.g.X X d X.$.g.` { ' }.* 6X6X6XF.d.5 q  .X.5.1.1.X D 9.( 4.u.j j pXn # #.f.$.yX} < T.h.g.%.l.j.6.F t yXZ._ O.{ ..| '.",
"f i { j.#.%.} @ @ x } ..{ #.6...I.; } d.=X .6.i 5 l.7.u.A.m.% K.9.( R 9.j l HXZ % #.;.yXZ.yX*  X| X.%.g.$.#.Y.w yXZ.) _ } { -.L.",
"d a [ 6.....[ @ @ c 6.Q { yXS._ I.; ..g. .] ..p 5 ..eXeX9.( X A * * 9.5X%XUX%XC % f.h.;.yX..=  X[ X.X.+.$.h.Y.6 &.~ 9 _ [ h.' }.",
"e u { h.{ { #.@ @ c [ h.;.yXD.) D $ ! h.X.fXX.5 o | 1.eXeX9.% K.( ( ( 9.@X@X[ n % ! 6.W &.~ + T.Q ! &.8.$.#.Y.6 &...^ M.$.$.' }.",
"i q { [ { { { @ @ n 6.h.W &.~ = B $ 6.} JXcXfXp q G.s.f Y 3 % K.m.m.E 9.; t O.B o W ;.W O...& T.R  ...[ ..#.Z 6 { #.X.} { } ` {.",
"z u  .f.g.$.l.@ @ c #.5.W o...^ Z $ #.j.f.cXcXi u s.K.v z 7 X K./ 1.9.eX* t O.I.- [ l.f.X.j.; T.T g.j.O.%.l.C % %.$.{ ! h.} | {.",
"a i } 6.} $.%.# @ c { [ { ! $.| F $ } X.X.KXcXi 5 0.M z z p X T.5 3 1 k & : f.D % ..+.X.[ { ; I. . .k.O.g.f.Z 6 6.#...} #.k.' {.",
"c i X.l.X.X.+.@ @ c k.6.g.%.#.! Z : [ j.k.cXqXq 6 2.M c z z o T.8 8 8 8 z M 8.C % l.[ g.j.O.< T.O.l.$.g.%.{ D q W  .5.| O.+.`  X",
"p u %.+.+.%.$.@ @ n %.X.} 6.#.` Z $ k.$.l.j.F.q i K.M m v 8 4 T.8 8 8 p p c 8.Z % +...{ k.O.= +XO.j.O.+.$.W Z 6 | ! x.X.5.} ' T.",
"i i +.6.%.j.j.& & C [ #.[ W ..| D & +.O.+.X.| i u M m v z p X T.8 z z v z |.8.A % %.l.l.5.%.< .X| l.X.+.8.[ A q Q k.%.h.c.%.' {.",
"p d f.j.X.k.$.& # C { } k.} [ ] K.* +.| O.O.5.p a j.#Xp v z o T.p z v M K.j.O.P.6 %.l.&.O.+.<  X] j.6.8.X.[ S q W h.f.#.g.j.o. X",
"d d l.f.f.g.W @ % A [ [ 6.+.' W A ; O.| j.8.[ c p +.s.3.2.2.X '.2.F.6XwX%.f.%.Y.t z.j.l.X.+.1 .X` Q z.W } | A % #.c.! g...%.' +X",
"d i +.X.....} - & A +.{ %.X.[ ' L.$ [ j.+.} $.n p +.p.0.2.=.- Y.s.6XtXtXl.5.%.K.% [ } X.[ [ 1 +XT ' R 5.c.c.C 6 ! ;.! %.%...] |.",
"c c j.6.Q X.yX- % K.| ..k.X.} [ P.$ } $.O. .f.f d X.p.p.0.3.- P.F.6X7XkXlX<X} {.* h.%.h.j.{ < {.W ` ` f.$.g.K.w #.} [  .6.+.]  X",
"n d O.{ h.7.yX: % K.} [ h.X.f. .P.; $.k.f.$.f.c c { d.p.:.6.& {.| G.qXtXkXkXQ '.t S._ O. ...<  XT ` ' #.....Z % j.h.j.{ $...` T.",
"d p [ h.h.W &.% + T.W 6.} 8.8.[ A * ..[ #...{ B c f.p.0...%.& {.[ F.G.7XtXwX6.K.t Z.) _ } { 1 {.`  .| 6.Q X.Z w _ O. ...l.O.` |.",
"p u g.$.;.W O.& % K.X.#.f.f.{ ' D $ f.$.6.Q yXf d _ O.{ | k.& |.` +.d.F.6X8X6.P.t ~ 9 _ { 6.< {.E ] | { 6.7.L.e ) _ 5.{ 6.O.` T.",
"c p | { } } ! & & P.! } X.X.$.W C ; { j.{ h.) n c 9 _ { { 6.; T.X.| $.....#. .Y.6 X.^ n.%.$.< |.W k.' 6.h.Q Y.6 9 _ [ 6.} 8.[ L.",
"x i +.l.h.g.$.& % C 6.{ j.l.! [ n $ } X.6.6.W c i ^ _ [ h.} % {...%.X.} X.[ { A % $.$.X.{ #.< |.'  .j.$.! W {.w ^ m.$.#.f.f.] C ",
"c x f.f.} } h.@ # C ..l.f.l.$.} n ; j.%.f.;.W d i ) m.#.$.f.; P.+.+.k.f.#.l.6.C % } { ! h.{ < |.] ! { } { { T.w X.} { } +.+.] C ",
"x c l.[ g.{ W & % C O.+.| +.{ | C * %.%.} [ { d i X.} [ } +.& P.X.j.$.j.+.%.+.C % #.{ #.#.k.< |.] %.%.l.h.g.Y.6 #.{ 6.{ %.j.] P."
};
