/* XPM */
static char *result[] = {
/* columns rows colors chars-per-pixel */
"64 64 255 2 ",
"   c #0A2D17",
".  c #103029",
"X  c #233B35",
"o  c #423B3E",
"O  c #216719",
"+  c #12492F",
"@  c #2A4D38",
"#  c #3B682A",
"$  c #39722A",
"%  c #3C6934",
"&  c #3B7434",
"*  c #544C39",
"=  c #6B5139",
"-  c #437A2C",
";  c #467036",
":  c #467739",
">  c #677F2E",
",  c #1F554E",
"<  c #274645",
"1  c #2E4F4B",
"2  c #2A5849",
"3  c #355B4C",
"4  c #375A54",
"5  c #2D674C",
"6  c #316C4E",
"7  c #386958",
"8  c #2E7357",
"9  c #38765A",
"0  c #307067",
"q  c #397962",
"w  c #495553",
"e  c #4A7B43",
"r  c #4A7947",
"t  c #52734F",
"y  c #446C5B",
"u  c #44785D",
"i  c #716A4B",
"p  c #476A61",
"a  c #516E63",
"s  c #487663",
"d  c #427C63",
"f  c #537966",
"g  c #905C3D",
"h  c #895C4A",
"j  c #936C50",
"k  c #AD7155",
"l  c #AF7764",
"z  c #DD635F",
"x  c #EE7670",
"c  c #309234",
"v  c #4B823C",
"b  c #538E36",
"n  c #5B983A",
"m  c #6A9B39",
"M  c #46A13E",
"N  c #69A63A",
"B  c #6CAC3C",
"V  c #75AA36",
"C  c #70AF3B",
"Z  c #73AD3C",
"A  c #78AE3D",
"S  c #74B23E",
"D  c #79BA3E",
"F  c #3A835A",
"G  c #2A9857",
"H  c #389154",
"J  c #398764",
"K  c #3B9567",
"L  c #349373",
"P  c #3BA76B",
"I  c #558549",
"U  c #4B934E",
"Y  c #458659",
"T  c #578554",
"R  c #67924C",
"E  c #52AE55",
"W  c #6AA547",
"Q  c #6EAC41",
"!  c #72AE42",
"~  c #73AD48",
"^  c #6EB145",
"/  c #65B64A",
"(  c #74B444",
")  c #7AB543",
"_  c #76B945",
"`  c #7ABB45",
"'  c #75B44B",
"]  c #79B54B",
"[  c #76B94A",
"{  c #7BBC4B",
"}  c #6BA75B",
"|  c #78AD5A",
" . c #66B959",
".. c #77B556",
"X. c #7AB753",
"o. c #7CBC53",
"O. c #7EBB5B",
"+. c #448363",
"@. c #4B8464",
"#. c #448B65",
"$. c #4A886A",
"%. c #54886A",
"&. c #46966A",
"*. c #568973",
"=. c #4F9170",
"-. c #4A9A72",
";. c #559773",
":. c #6B916A",
">. c #46A56B",
",. c #47A876",
"<. c #50B070",
"1. c #6AAD6B",
"2. c #7DB860",
"3. c #7DC346",
"4. c #7EC14D",
"5. c #7EC251",
"6. c #72CB71",
"7. c #8F8B3F",
"8. c #82AC31",
"9. c #84B83E",
"0. c #98935A",
"q. c #85B846",
"w. c #82BE4D",
"e. c #9ABC48",
"r. c #95AC59",
"t. c #89B757",
"y. c #82BC53",
"u. c #83BB5D",
"i. c #AF9268",
"p. c #83BB62",
"a. c #88BC65",
"s. c #85B769",
"d. c #92B471",
"f. c #A6AE72",
"g. c #D08C58",
"h. c #CE8B67",
"j. c #E58E76",
"k. c #D8B276",
"l. c #87C64B",
"z. c #81C64D",
"x. c #9AC148",
"c. c #82C453",
"v. c #85CA53",
"b. c #87C958",
"n. c #97C555",
"m. c #9DCE59",
"M. c #91D159",
"N. c #ACCF4C",
"B. c #A4C852",
"V. c #87C465",
"C. c #8CC36D",
"Z. c #98CC6E",
"A. c #8DC871",
"S. c #97C675",
"D. c #93CA73",
"F. c #90C978",
"G. c #ACD26D",
"H. c #A7CB78",
"J. c #B2D57A",
"K. c #97E17A",
"L. c #A8E367",
"P. c #FA7D80",
"I. c #5D9A94",
"U. c #58A991",
"Y. c #6CB08E",
"T. c #68A7A8",
"R. c #75C581",
"E. c #61CD95",
"W. c #6BC990",
"Q. c #7CB3E9",
"!. c #6EBAFD",
"~. c #73BDFD",
"^. c #78BDFC",
"/. c #79D2D8",
"(. c #75D1EE",
"). c #76C6FF",
"_. c #7BC4FD",
"`. c #75C8FA",
"'. c #7CC9FA",
"]. c #B09389",
"[. c #8EB186",
"{. c #91B08F",
"}. c #A5A58B",
"|. c #ACA0A2",
" X c #AFA5AB",
".X c #B2AAB2",
"XX c #F18C87",
"oX c #D5B592",
"OX c #EEA98F",
"+X c #E7B58B",
"@X c #E8BD9C",
"#X c #F3B492",
"$X c #F7BC96",
"%X c #D2A1AB",
"&X c #FCAAA6",
"*X c #8BC689",
"=X c #90D38C",
"-X c #B2D08F",
";X c #88EC9A",
":X c #A6E48D",
">X c #ABE48F",
",X c #8CC5AD",
"<X c #90D9AC",
"1X c #AACFAA",
"2X c #B5D9A1",
"3X c #A7ECA3",
"4X c #B8EAA3",
"5X c #C6C68C",
"6X c #D8CC93",
"7X c #E8CC9A",
"8X c #FCC29A",
"9X c #FAC598",
"0X c #F7CE9C",
"qX c #FECC9D",
"wX c #F5D29E",
"eX c #FED09E",
"rX c #C2EF8D",
"tX c #FAF496",
"yX c #D4D6AC",
"uX c #FBC4A1",
"iX c #FECDA2",
"pX c #EDD7A1",
"aX c #FED3A5",
"sX c #FCDAA4",
"dX c #F8D7A8",
"fX c #FEDBAC",
"gX c #EAD6B8",
"hX c #F4D5B9",
"jX c #C7E6A6",
"kX c #C9EFAF",
"lX c #E4E9B8",
"zX c #FCE1B4",
"xX c #97B6E2",
"cX c #D6B9D3",
"vX c #84C5D4",
"bX c #8BCCEB",
"nX c #96CEEA",
"mX c #84C6F7",
"MX c #84CAFF",
"NX c #8DCDFE",
"BX c #96C9FD",
"VX c #8ED1FD",
"CX c #92D1FD",
"ZX c #9AD1FE",
"AX c #A5CAF8",
"SX c #A2D7FD",
"DX c #BAD8FC",
"FX c #B4E1FF",
"GX c #BBE1F9",
"HX c #CFD4DC",
"JX c #EED6C4",
"KX c #F2E8CC",
"LX c #C1E1FF",
"PX c #EFF5E6",
"IX c #EEFDF8",
/* pixels */
").).).).).).)._.).).^.^._.).).).^.~.).).).).).).).`.}.HX^.).).).).).).).).).cXXX).).).).).).).).).).).).).).).).).).).).).).).).",
").).).).).W.Y.}.].'.Y.T.I.'.'.'.oX~.).).).).).).).PX{.PXI.PXnX^.).).).).).)..XXXoX).).).).).).).).).).).).).`.'.`.).).`.`.).).).",
"`.`.).xXPXPXPX{.PXoX{.I.I.I.{.%X].].xX/.T.).).).'.'./.E.(.E.).`.).).)._.`.`.ZX<X`.).`.'.).).).).).).).).).).).`.).).).`.`.).).).",
"`.(.tXvXIXPXKX} [.6X{.mXY.I.T.oX].].T.T.<X).).vX'.'.bXW.(.z.F.,X,X,X,XF.R.v.F.F.F.F.,X,X,X,XF.R.4.F.F.F.F.F.F.F.5.6.`.`.).`.(.`.",
"qX9XaX7XpX7X7X0X[.>XyX{.jX2X*X9XaX7XpX7X7X0X7X@X,XR.6X@X6XlX@XwXpX+X6X6X6XlX+XF.,X+XpXpX[.>XyXd.4X2X*X,X+XwX9XaXdXF.F.6.`.aX$XqX",
"qX$XaX$XeXiX$XqXsX>X1X-XrXZ.H.iX9XqX$XiX#XsXiX$XiX,X#XaXaXuXiXiXaXiXiX#Xw t #XiX,X#XqXqXaX>X1XjX>XF.G.qX#XeXqX0XiXiXuXiX#XiX8XqX",
"uXiXqX@XaXqX@XuX0X>XoX:XK.H.$XiX@XuXiXqX@XaXuX7XiX$XiXiXaXuXqXqXfXfXfX$X7 +.oXdXfXOXuXqX0X>X}.>XK.Z.8XqXqXeXeXeXdXaXaXqXqXqXqXuX",
"eXeXeXhXsXiXhXiX0Xs.k.d.-Xk.$XiXhXeXeXeXhXaXiXhXaXqXuXaXaXiXqX0XfXsXfX  9 #.Y zXfX$XiXqX0Xs.OXf.J.6X$XeX0XeXqXeXfXfXfXeXeXeXeXeX",
"eXeX8X9XsXsXhXqXaXS.9XF.pXiXiXsXhXeXeX9X8XfXaXzXqXqXhXdXdXuXdXgXqXqX1 5 u Y 8 9XdXsXaXpXaXS.9XS.pXeXaXeXaXfXaXaX-XaXsXaXaX9XeXeX",
"eXeX8X&X#XaXKX&XiXpXiX-XdXfXaXfXKXeXeX8X&X#XfXKXqX&Xh.hXfXgXOXXXgXgX< 2 2 7 7 hX0XeXaXwXiXpXdX-XsXfXsXeXiXiX8X$XS.pXaXaXaX8XqXeX",
"aXqX5XXXOX&XJXOXpXiXiXdXfXfX0XuXJXqXeX5XXXOX&XJX$XP.x uXj.&Xx P.4 7 4 7 y u 6 9 @X0XwXsXpXqXqXfXfXfXeX$X$X#X$XaXf.-Xk.$X$X5XeXeX",
"s.5Xd.XX#XiXXXOXqXhXd.5Xd.XX#XuXhXs.5Xd.XXOXiXgX7XXXP.@Xz OXP.XX0 3 7 7 y u 7 Y Y sX0X>XsX0X>X5X>XK.S.$X#XH.5XiX>XK.Z.9X9Xf.-Xd.",
";XU.-X2.oX2Xs.oXoXJX;XU.2Xs.oXOXJX;XU.1X2.oXOXJXI.2.R.F.=XH.=., 4 < q 7 d $.u &.K +XsX>X1XsX>X1X2XrXZ.G.[.:XJ.:.2X>XK.H.[.2X,.;X",
"3XR.1.2XlX1.2XlXgXgX3XR.1.2XlXlXgX3X6.1.2XlXJXgX1Xd.=X1.=X6.q 5 + 7 6 d q $.#.-.P d.>X>XyX[.>XyX[.4X2X*XY.=X2X,.d.4X2X*XY.} R.3X",
"D.C.S.+X9XZ.+XqX9X+XD.C.D.+XqX$X+XD.A.A.+XuX8X+X{.rXjX4X4XP 8 8 8 7 4 p 7 a f Y F >.4X4XjXjXjX4XjXjX4XkXkXjXjX4XjXjXkXkXkXD.A.A.",
"0XfX+XOXaX+X#X0XqX#X0XaX+X#X0XuX#X0XsX+X#XiXuX#X1.A.a.C.-XW.IX8 8 d y *.y %.%.IX&.,.F.F.D.H.D.F.A.K.F.F.A.A.D.A.-XS.A.D.C.+XdXiX",
" X|.|.|.|.|.|. X.X.X X|.|.|. X.X.X X|.|.|. X.X.X.X|.|.|.|.4 . J J 9 #.;.@.=.;.Y &.>.|.|.|.|.|.|.|.|.|. X|.|.|.|. X.X|.|.|.|.|. X",
"LXLXGXDXLXGXGXLXDXDXLXLXGXGXLXDXGXLXLXDXGXLXDXGXGXLXLXLX5 2 . J + q -.;.@.=.;.Y &.9 LXLXLXLXLXLXLXLXLXLXGXGXLXGXLXGXLXLXLXDXLXLX",
"VXCXSXSXNXVXNXNXNXNXNXbXbXVXNXNXVXNXCXCXCXCXCXVXNXVXVX9 q 8 2 7 2 1 ,.<.1   >.Y y &.=.DXCXNXBXNXVXDXFXVXSXSXNXNXNXVXCXCXFXSXCXVX",
"MXMXCXmX'.MXVXCXCXMXmXMX'.MX_.MXMXMXMX'.MXMXMXCXZXZXZXJ 8 0 q 8 q 2 6 Y 1 . @ 9 u K +.DXDXDXDXDXDXSXZXMXCX'.'.NXCXMXDXDXSXCXMXMX",
"nX^.'.^._.).~._._.~.).~.~.^.~.~.~.~.~.).~.!.).~.mXBXAX7 5 J 9 9 d q ;.%.u @.;.;.=.K >.Y.AXAXAXBXHXmXNXnX'.^._.~.^.~.AXcXmX'._.bX",
"'.(.Q.~.!.!.!.!.~.MX^.~.~.~.~.~.~.!.~.!.!.!.!.~.^.mX0 7 8 #.q q 9 +.;.%.+.#.*.;.=.&.&.K L BXBXBXx ^.NX(.Q.!.!.!.!.BXBXj.mXQ.mX(.",
"a.t.C.O.V.V.*X*XA.a.u.D.D.*X*XC.*X*XC.*X[.*XC.u.u.u.0 q 8 7 2 8 #.&.;.&.Y #.%.>.>.IXF &.&.u.u.x x z *Xd.V.X.V.&.u.p.x x z C.t.C.",
"V.C.C.X.X.X.S.S.s.D.u.S.S.A.F.C.S.D.C.D.D.D.C.u.u.2.J q q 7 7 5 6 IXF &.6 K Y >.>.u 9 >.,.u.a.x XXx S.S.u.l.-.a.u.a.x x x C.C.a.",
"t.o.C.X.y.n.} a.V.D.X.x 2.} s.p.} a.V.} a.s.V.u.u., < X . 0 1 d *.%.*.@.u s %.Y +.#.+.>.<.O.2.a.U.T } a.p.p.z.J.u.a.a.U.T C.c.t.",
"u.u.O.u.XXY.T | p.S.&XOX%Xt 2.2.I | p.I | | 2.u., 2 , X < 7 2 q 9 -.%.*.u @.$.;.=.K + -.F u.] ' c <.c.X.O.G.p.4.z.J.[ c <.u.p.O.",
"S.J.C.f.z |.Z.a.a.| x XX%XB.a.a.Z.a.a.Z.V.a.s.0 q IX4 4 4 1 . f 5 -.6 =.1 $.+.>.,.f 9 q =.>.% } { { p.2.p.t.s.p.p.4.a.{ { C.J.S.",
"c.>.O.r.x h.t.l.J.H.;.z -.a.z.J.t.z.J.u.5.4.J.J q 7 0 7 4 1 1 4   Y.. @.@ ;.. >.;.p d q #.<.2.p.A V.2...O.X.O.p.p.p.J.A ` p.,.z.",
"z.p.T T U M i.j.z T.1.i C.V.u.u.u.u.u.u.u.u.u.L 7 0 9 q q 7 p 4 p w w y a t y a a s $.-.K >.>.u.A y.O.! w.{ p.y.t.G.z.A U T p.5.",
"A A %.T E c f.j.j.U E 8 u.u.u.b.u.u.p.u.u.u.O.F 8 8 9 q q 8 a y w 7 p f f a s a f s $.-.&.K -.-.p.2.p.a.A { O.2.p.t.p.p.u.T S ) ",
"V.t.u.| $ & & h r.I c r r t &.-.t I a.E Y.u.u.8 8 2 5 J J q s s 1 p s *.%.%.@.@.*.J IX>.,.,.#.y A | z.J.) { o...O.X.G.A A O.t.V.",
"t.t.X.u.} $ r I 4.e U t r T 6 : r r I &.>.y.Y 2 2 7 6 F 7 Y q d 3 p d %.%.$.$.#.#.#.#.>.P P L =.A ! u.z.[ z.A ! c.] t.A A y.u.t.",
"V._ u.V.c. .o.E ' p.p.T r r I t : I I T % F 8 7 7 < . 7 8 6 +.s 5 d u -.#.&.r -.F >.9 &.P &.&.Y V a.p.u.z.m.) e.A { X.A A u.( V.",
"X.[ u.V.X.G.y.o.O.W : e r r r R e : e I e 9 IX0 7 4 4 . q K d d =.$.y J 9 9 %.#.9 F Y . 6 r : R S y.O.G.) { [ S ) { [ Z ) u.[ O.",
"u.` B.X.u.u.O.O.X.2.I R s.r Y r r r r r e J q q q p 4 . 7   q s -.-.*.+.@.#.;.$.%.Y 3 y d @.P >.Q 2.p.t.( ( z.B { z.] ! N B.` O.",
"X.z.{ c.O.X.u.O.u.B.Z.I I t r r r I r : & F K 9 q 4 p 7 7 < X . P -.=.#.%.#.Y -.+ 6 y s +.#.&.P ! | O.X.) m.) ` z.m.w.B S { z.X.",
"' [ z.X.[ X.' X.X.t.y.: e e e e r r r : r 5 8 q d s 7 a s 1 < . y 1 3 @ . f . >.5 y u @.Y &.&.<.IXZ z.{ [ X.S A ) { { Q Q z.) X.",
"^ o.) [ M.' ] ' o.{ ' ; : : I : e r I : e H J 5 0 IX7 @.d 7 7 y y a a a 1 y a @.%.@.Y $.&.>.K G B x.A [ w.W B ` ( [ m.N.! ) { ^ ",
"[ z.{ Q L.( [ { ( X.b.R I : R R : : R e : Y @.9 9 2 5 d +.9 9 d y f a a 4 a f *.%.#.#.#.K >.K >.! S ) { [ ~ ! ` ( m.{ Z S { z.[ ",
"~ m.( & l.m.^ X.o.X.5.[ W R e e e ; v v : : : R 9 9 9 &.7 9 d +.%.@.f f 7 s @.;.;.&.Y &.J F <.( ^ ^ { w.{ ] ^ ) [ ] ) V B ( m.~ ",
"~ W ) 6 L.` { o.' O.o.] R : e v : : : & ; : : e 9 q 8 5 7 J #.+.@.@.f f 7 @.$.;.;.&.#.#.IXJ 6.q.! ` z.m.` o.B { c.W m.N.Z ) W ~ ",
"X.W o.KXz.N ' o.] X.' o.W I : : I : : : & ; : : : G J d 9 5 &.&.+.IX+.&.@ %.u >.>.Y #.-.-.E ] ! S A ) { { ] { 5.[ ( X.A Q c.W X.",
"5.X.' {.j i.R ] ' c.c.b.~ ; : e > ; : : : : : : : #.#.d 9 d 9 6 9 d s 9 y T Y 9 H $.#.,.>. .O.( B ` ( [ ] ( A [ { X.W Q B [ X.o.",
"[ ] [ ; :.:.:.# 5.o.o.[ [ b - : ; $ - & - & ; : ; # ; @ # $.* $.;.%.=.@.#.;.;.;.L &.E 4.y.] A B ! ` ( m.B.N x.) ) X.( { { { ] ( ",
"' { { &.:.1.Y.W 4.[ ^ z.4.o.b - - - - - : # # ; # ; # # * * * I.<.f -.&.&.;.-.} U 5.l._ c.q.] Q ^ ) [ ] 3.^ Z [ { ] X.( ! { { ' ",
"b.] { U O  . .6 W N 5.4.v.o.{ ( - $ v - - # $ ; # # % ; # o = o = j k z 0.S N S A N.N.Z ) M.B 4.Q { c.W ` 4.` [ ] o.X.B x.w.] b.",
"o.{ z.! ! n W / ( _ ( { 5.O.v.{ b - $ ; # # # # # # ; # # * = = g g.g.g.i.9.l.9.x.A 9.{ { 5.) ( { 5.[ ( z.) ` ( m.o.' ^ A w.{ O.",
"c.o.m.] c.4.X.' ` [ { _ ` c.o.5.l.v.] N n # # # # # # # # w h h g.g.g.g.7.A D N x.q.! B e.o.3.( ( ) { X.z.v.v.4.` c.o.z.` m.o.z.",
"{ c.z.( { ' v._ 4.4.3._ _ 3.` [ 5.o.3.y.` b W - b b n = j * l k z g.g.h.k.N N B 9.N ` B x.) l.B x.A ` o.l.q.` { ` { o.( ` 5.z.{ ",
"{ { { { { 4.{ o.c._ _ 3.D 3.S ` ` _ ( ( ( ) Z ! ! Z r.h h * l l k l g.g.k 7.N B B ( Q B A l.N.^ A [ { ] N._ z.{ z.z.c.M.v._ { { ",
"[ 5.[ b.{ { 5.] ` ` v.D D 4.4.z.4.` ` ( ! B B ) D C B = 0.* h.h.k k h.j.k N N B 9.V V [ ` [ 4.z.` [ [ X.5.x.N.5.4.z.{ 9.{ ] c._ ",
"4.z.4.5.o.5.5.{ 4.v.3.` _ 3._ 3.{ z.o.( Q ( Z A B B C B W j h.h.k k h.k.7.Z ( _ ` V Z B ~ ) z.( ) ( m.y.z.3.5.5.b.z.{ [ w.4.z.4.",
"5.z.{ 5.5.c.c.4.5.4.D l._ 3.3.3.b.4.5.o.3.S 3.B ` B ] Z N k g.h.k g l j.g./ B 9.V ' ( Z 9.9.z.v.v.4.3.5.` 3.[ 5.3.z.4.x.N.5.4.5.",
"] z.c.5.o.v.5.{ 4.4.3._ 4.4.^ [ [ ' V.u.[ ^ [ S B V q.Z B j j i m 9.q.m h.m B B B.A ( N.x.C e.9.{ { { { ) 4.4.o.5.z.z.3.z.z.z.{ ",
"b.z.b.c.{ c.b.4.5.{ { 4.z.[ ` ^ 3.N :.f. .' 3./ ! 9.N.B Q m N B N V V ) W q.Z B.B { _ 8.Z Z N.( w.3.c.4.3.9.3.5.5.v.4.3.{ b.z.b.",
"c.z.o.c.[ o.o.' ' ' [ ( 3./ E <.G # >.W.<.n P E.E.B { Z ` n.! ! ) Z ) ! ] N Q V q.B.Q ) S _ 5.x.N.o.4.z.B.n.4.4.4.5.5.5.4.5.z.y.",
"4.5.5.] ' c.o.] ^ ( { [ 4.{ W L / $ 6.6.6.n 1.L >.Q ' { { [ o._ B [ ! N A ] Q W ~ B ) B ` ! ` z.z.5.b.z.n.e.( ( 5.5.V D D 5.z.o.",
"c.o.o.c.b.{ o.4.[ 4.[ _ ( 3.^ n W.;. .n U v *.f.1.' 5.[ ` _ _ [ { B B W N ~ B.e.Q B W N Q N q.3.{ c.z.z.! ~ z.v.o.4.v.B ) ] 5.c.",
"5.4.( 5.X.' { { ' 4.^ ( [ ` _ ( 6. .E E P G -.{.Y.^ 5.[ _ S [ ^ ` [ { w.( ~ e.q.~ ~ Q B B ~ 9.5.4.[ o.z.w.[ ` { o._ b.( z.( 5.5.",
"[ z.z.5.[ 5.^ o._ 4._ ( { 3.4.N $.f.<.P <.c <.6.6.N ( [ ( ( ( ( ' o.( c.o.[ X.X.' ' Q ( ~ ) ! A ( 5.o.[ [ o.n.q.5.( o.[ ( z.z.' ",
"o.] ' o.' X.5.^ 4.[ 4.[ ` / P n <.Y.R.E H n 6.6. .Z ( { C ^ ^ o.5.( 4.` ` 4.( 4.] ( [ ( 4.{ 5.( _ v.' ' ' ( o.{ ' { c.V.b.' X.o.",
"o.o.5.o.5.b.b.5.[ [ 4.[ 4.E P L  .M 6./ D / E./  .` 5.` { ` o.{ o.c.] { { { ` { _ _ [ v.v.[ { [ { ( c.[ o.` c.o.c.^ 5.b.c.5.y.o.",
"5.4.4.] v.M.5.5.z.[ 3.3.5.G ,.E ^ N K.N _ ( L ,.H ` { { z.' [ M.c.5.v.z.3.3.{ [ z.{ 3.{ { 3.{ [ 5.S [ [ c.o.z.z.w.G.m.c.b.4.4.5.",
"b.4.b.b.4.] c.c.5.5.5.4.3.z.5.3.v.3._ 4.4.3. .[ 3.3.` _ S z.5.{ 5.c.4.c.o.{ ( _ 4.{ ` M.{ o.[ 5.5.5.4.{ [ v.) l.z.q.c.5.c.b.{ b."
};
