/* XPM */
static char *result[] = {
/* columns rows colors chars-per-pixel */
"64 64 242 2 ",
"   c #17100B",
".  c #2B0501",
"X  c #2D0903",
"o  c #260704",
"O  c #340600",
"+  c #390701",
"@  c #350A02",
"#  c #3A0A02",
"$  c #350D0B",
"%  c #3D1103",
"&  c #3D120B",
"*  c #331208",
"=  c #361715",
"-  c #023821",
";  c #022D21",
":  c #2E3934",
">  c #2C3531",
",  c #313B36",
"<  c #343E39",
"1  c #2B2A28",
"2  c #0C2515",
"3  c #421305",
"4  c #461A01",
"5  c #4A1C01",
"6  c #43140C",
"7  c #49190B",
"8  c #4A1A12",
"9  c #481A15",
"0  c #4D0A05",
"q  c #790806",
"w  c #4E2102",
"e  c #4A220D",
"r  c #532301",
"t  c #5C2A01",
"y  c #592607",
"u  c #592817",
"i  c #503317",
"p  c #642C01",
"a  c #632D0C",
"s  c #6A3301",
"d  c #683204",
"f  c #793A03",
"g  c #662E16",
"h  c #6A3519",
"j  c #763C17",
"k  c #502A23",
"l  c #643322",
"z  c #03452A",
"x  c #0A5835",
"c  c #37403C",
"v  c #39423D",
"b  c #244E3E",
"n  c #04653A",
"m  c #57491D",
"M  c #64461D",
"N  c #794115",
"B  c #554728",
"V  c #6C4B22",
"C  c #664921",
"Z  c #6E4C27",
"A  c #77652D",
"S  c #686C27",
"D  c #3D4642",
"F  c #066B49",
"G  c #07724C",
"H  c #047552",
"J  c #087B57",
"K  c #167856",
"L  c #136E50",
"P  c #23765A",
"I  c #227E63",
"U  c #444C49",
"Y  c #48504E",
"T  c #565C5A",
"R  c #4C5352",
"E  c #706F72",
"W  c #684E4C",
"Q  c #9A0808",
"!  c #B31213",
"~  c #A23217",
"^  c #CE1512",
"/  c #F40607",
"(  c #E90D0F",
")  c #ED2B2C",
"_  c #E9221F",
"`  c #8C4A03",
"'  c #8C4B0C",
"]  c #854505",
"[  c #924D02",
"{  c #954E06",
"}  c #9C5301",
"|  c #965308",
" . c #8A4A18",
".. c #914E17",
"X. c #935116",
"o. c #94521A",
"O. c #9C541B",
"+. c #8F5013",
"@. c #A35601",
"#. c #A65901",
"$. c #A75B07",
"%. c #A55B17",
"&. c #B35C19",
"*. c #B06218",
"=. c #864A24",
"-. c #9C5A24",
";. c #995827",
":. c #9A5634",
">. c #A25D29",
",. c #A65C24",
"<. c #BC483D",
"1. c #8F7531",
"2. c #A4612C",
"3. c #AC6527",
"4. c #B7692B",
"5. c #AA6531",
"6. c #AD6935",
"7. c #A66337",
"8. c #B46D3A",
"9. c #B76D36",
"0. c #BB7339",
"q. c #AA7A23",
"w. c #83761F",
"e. c #CB7C3B",
"r. c #C47739",
"t. c #C47132",
"y. c #E75E2D",
"u. c #B43E45",
"i. c #C93F4F",
"p. c #B87848",
"a. c #AB584E",
"s. c #C84853",
"d. c #CA525B",
"f. c #CE4C55",
"g. c #F64644",
"h. c #F8534E",
"j. c #C87B44",
"k. c #D07F43",
"l. c #D35A64",
"z. c #D9636D",
"x. c #DD6873",
"c. c #E26874",
"v. c #03845D",
"b. c #09855E",
"n. c #11815D",
"m. c #058C63",
"M. c #0C8C64",
"N. c #088761",
"B. c #168864",
"V. c #05956A",
"C. c #099469",
"Z. c #159369",
"A. c #079C71",
"S. c #0A9E72",
"D. c #179972",
"F. c #248A6A",
"G. c #2C9774",
"H. c #339476",
"J. c #0CA274",
"K. c #06A876",
"L. c #10A374",
"P. c #24916B",
"I. c #9B8639",
"U. c #97842F",
"Y. c #B99838",
"T. c #AE9236",
"R. c #BBA13D",
"E. c #D0883E",
"W. c #C9A53E",
"Q. c #AD9744",
"!. c #B9A64B",
"~. c #D48445",
"^. c #DD8B4B",
"/. c #D88647",
"(. c #CB894D",
"). c #E28D4B",
"_. c #EB9554",
"`. c #E89453",
"'. c #F29B5A",
"]. c #E3914B",
"[. c #C9B24C",
"{. c #CCB553",
"}. c #D6BD57",
"|. c #CDAC4A",
" X c #E4BE5B",
".X c #E99D66",
"XX c #E3B269",
"oX c #DBC255",
"OX c #DDC25C",
"+X c #DDC14E",
"@X c #E6C95A",
"#X c #EDD35E",
"$X c #F4D55E",
"%X c #E8C862",
"&X c #F3C863",
"*X c #EAD265",
"=X c #F4DB63",
"-X c #F3D666",
";X c #F0D674",
":X c #F6E365",
">X c #F9EB6B",
",X c #F8E669",
"<X c #F7E877",
"1X c #FBF377",
"2X c #F8F26F",
"3X c #D4C063",
"4X c #3C44B0",
"5X c #4345BC",
"6X c #4144B7",
"7X c #787D83",
"8X c #4748C3",
"9X c #6668C1",
"0X c #3EA88A",
"qX c #7D828D",
"wX c #888F99",
"eX c #939CA8",
"rX c #99AEB8",
"tX c #AD9D9E",
"yX c #8FC0BE",
"uX c #FCF687",
"iX c #FEFB9A",
"pX c #FEFEA7",
"aX c #FEFEB5",
"sX c #A4AFCA",
"dX c #9598CE",
"fX c #BAC8D8",
"gX c #C1C9D3",
"hX c #CBDCED",
"jX c #C4D5E6",
"kX c #CEDFF1",
"lX c #D4DDED",
"zX c #D8E8F5",
"xX c #DCECF4",
"cX c #E6F5F9",
"vX c #EDF5FA",
"bX c #E6F4F7",
"nX c #F5F9FC",
"mX c #FAFBFC",
"MX c #F6F7F8",
"NX c #EAEEF3",
"BX c #EFECD0",
"VX c None",
/* pixels */
"VXVXVXVXVXVXVXVXVXVXVXVXVXVXVXVXVXVXVXVXVXw 4 4 5 4 y VXVXVXVXVXVXVXVXVXVXVXVXVXVXVXl u u VXVXVXVXVXVXVXVXVXVXVXVXVXVXVXVXVXVXVX",
"VXVXVXVXVXVXVXVXVXVXVXVXVXVXVXVXVXVXVXl w 5 4 6 5 r t h VXVXVXVXVXVXVXVXVXVXVXVXZ w e 5 4 5 5 VXVXVXVXVXVXVXVXVXVXVXVXVXVXVXVXVX",
"VXVXVXVXVXVXVXVXVXVXVXVXVXVXVXVXVXVXVXr 5 u.s.a.s.s.] N 7.VXVXVXVXVXVXVXVXVXVXVXf t 5 4 5 % 5 4 e VXVXVXVXVXVXVXVXVXVXVXVXVXVXVX",
"VXVXVXVXVXVXVXVXVXVXVXVXVXVXVXVXVXVXs a d.z.z.z.z.f.@.[ >.VXVXVXVXVXVXVXVXVXVXr.} i.d.l.l.d.s.0 5 w VXVXVXVXVXVXVXVXVXVXVXVXVXVX",
"VXVXVXVXVXVXVXVXVXVXVXVXVXVXVXVXVXa.N s.d.c.c.c.x.f.@.4._.'.'.'.'.'.'.'.'.'.VXt.@.<.l.c.z.z.d.f.w w e VXVXVXVXVXVXVXVXVXVXVXVXVX",
"VXVXVXVXVXVXVXVXVXVXVXVXVXVXVXVXVX>.` s.l.l.z.l.t.E._._._.'._._._.`.`.`.`.`.^.^.k.$.f.c.c.c.l.f.u.r w VXVXVXVXVXVXVXVXVXVXVXVXVX",
"VXVXVXVXVXVXVXVXVXVXVXVXVXVXVXVXVXr.#.$.f.&.)._.'._._.`.).).).E.e./.e./././.^./.).).k.j.,.f.d.f.s.s t VXVXVXVXVXVXVXVXVXVXVXVXVX",
"VXVXVXVXVXVXVXVXVXVXVXVXVXVXVXVXVXVX} #.$.).'._.).).t.0 7 0 6 6 3 3 3 3 5.e.j.k.k.^.k./.e.%.f.f.] f s VXVXVXVXVXVXVXVXVXVXVXVXVX",
"VXVXVXVXVXVXVXVXVXVXVXVXVXVXVXVXVXVXVX' '._././.9 8 7 % 6 3 3 + # # # 3 # 6 % j k.e.r.k.~.0.$.#.{ ] j VXVXVXVXVXVXVXVXVXVXVXVXVX",
"VXVXVXVXVXVXVXVXVXVXVXVXVXVXVXVXVXVXVX'.`.].8 8 6 % 6 + + % # # + + + + # # # 6 & & 4.r.e.(.j.] f %.VXVXVXVXVXVXVXVXVXVXVXVXVXVX",
"VXVXVXVXVXVXVXVXVXVXVXVXVXVXVXVXVXVX.X).6 8 6 3 3 # # + + + + + # # + + # + # @ % $ # & =.r.0.j.9.VXVXVXVXVXVXVXVXVXVXVXVXVXVXVX",
"VXVXVXVXVXVXVXVXVXVXVXVXVXVXVXVXVXVX_.8 9 6 # # # + + + + # # @ # # + + + @ # + @ @ # $ * 8.0.0.j.VXVXVXVXVXVXVXVXVXVXVXVXVXVXVX",
"VXVXVXVXVXVXVXVXVXVXVXVXVXVXVXVXVX'.p.8 7 6 $.$.+ + + + # + # # + # + # # + + @ @ @ O @ @ * 5.8.0.e.VXVXVXVXVXVXVXVXVXVXVXVXVXVX",
"VXVXVXVXVXVXVXVXVXVXVXVXVXVXVXVX.X).7 3 *.$.#.#.$.# O # + + # # # # + @ @ @ @ } } @.| @ @ X * 3.8.p.VXVXVXVXVXVXVXVXVXVXVXVXVXVX",
"VXVXVXVXVXVXVXVXVXVXVXVXVXVXVXVX].8 & ..&.#.#.#.$.#.# + # @ @ # # + @ + + @ #.@.} } } } X @ @ 5.5.9.k.VXVXVXVXVXVXVXVXVXVXVXVXVX",
"VXVXVXVXVXVXVXVXVXVXVXVXVXVXVXVX/.9 9 *.$.@.#.$.MXmX# + + # + O @ @ + @ # # } } } @.} [ f X X X 2.5.p.VXVXVXVXVXVXVXVXVXVXVXVXVX",
"VXVXVXVXVXVXVXVXVXVXVXVXVXVXVX`.9 6 6 &.#.8X8X8XmXmX+ + @ + @ # @ + O + 0 lXMX5X} } } } [ X X X 3.2.8.(.VXVXVXVXVXVXVXVXVXVXVXVX",
"VXVXVXVXVXVXVXVXVXVXVXVXVXVXVX^.9 6 # mX8X8X8X8XmXmX+ + + @ + + @ @ @ @ O NXmX8X5X5X| { [ X X X N >.2.p.VXVXVXVXVXVXVXVXVXVXVXVX",
"VXVXVXVXVXVXVXVXVXVXVXVXVXVX.X/.6 6 & mX8X8X8X8XmXW # O + @ @ @ + O O O + tXmX5X5X5X6X4X| . . . X 2.2.8.VXVXVXVXVXVXVXVXVXVXVXVX",
"VXVXVXVXVXVXVXVXVXVXVXVXVXVX`.~.6 6 & mXnXsXlXmXmX@ @ @ # @ @ @ O O O @ O O MX5X5X5X6XMXMX. . . X O.2.8.VXVXVXVXVXVXVXVXVXVXVXVX",
"VXVXVXVXVXVXVXVXVXVXVXVXVXVX^.e.& # % # nXnXmXnX+ + + + O 0 f p @ @ @ @ O @ nXMXdX9XMXMXX . X . X O.2.6.VXVXVXVXVXVXVXVXVXVXVXVX",
"VXVXVXVXVXVXVXVXVXVXVXVXVXVX/.e.& & # + + + @ @ # # @ #.@.#.$.#.#.#.p O @ @ @ mXmXMXnXW . . . . o X.-.6.VXVXVXVXVXVXVXVXVXVXVXVX",
"VXVXVXVXVXVXVXVXVXVXVXVXVXVXk.r.h & @ @ O @ @ + + $.e.e.k.k.r.r.j.0.3.#.` O O X X O O X . . X . +.X.>.5.VXVXVXVXVXVXVXVXVXVXVXVX",
"VXVXVXVXVXVXVXVXVXVXVXVXVXVX(.r.4.# # @ @ + + f &.t.k.k.8.7.:.a.5.9.t.3.| } O O O O . X . . o X X.o.-.5.VXVXVXVXVXVXVXVXVXVXVXVX",
"VXVXVXVXVXVXVX1XoXOX>X2X1XVXVX0.4.3.*.O @ p #.*.t.~.j.:.l 9 k u =.:.5.0.3.O.| @ @ @ X O . . o ' +.o.2.6.VXVXVXVXVXVXVXVXVXVXVXVX",
"VXVXVXVXVXVXuXY.R.T.uXuXuXpXpXr.5.,.O.$.$.#.$.t.t.e.:.u $ O O $ 8 j =.;.X.%.| } r @ X . . % ` ' O.-.2.0.VXVXVXVXVXVXVXVXVXVXVXVX",
"VXVXVXVXVXVX+X}.!.Q.I.A m <X<X<XuX%.O.O.| %.&.4.9.6.g = O . . o X 8 a  .+.o.| [ | [ [ ` ` ' o.X.;.2.a.VXVXVXVXVXVXVXVXVXVXVXVXVX",
"VXVXVXVXVXVX@X{.Q.1.1.A B *X%X%X&X;X..O.%.,.3.9.9.p.u & . o o o X 6 a N  .' ' [ [ ` [ ` ` ' -.-.-.5.Q.VXVXVXVXVXVXVXVXVXVXVXVXVX",
"VXVXVXVXVXVXuX%X!.I.A V i *XOXOX}.XXO. .O.,.4.6.4.,.l 6 $ o o o @ e a N N ' ] ` ' ` ] ' ' -.>.2.6.VXVXVXVXVXVXVXVXVXVXVXVXVXVXVX",
"VXVXVXVXVXVX2X@X{.Q.1.A C *X*X%X@X~ VXVX .O.>.>.5.5.j u $ $ * $ e u N =.X.+.X.X.+...o.o.-.6.6.VXVXVXVXVXVXVXVXVXVXVXVXVXVXVXVXVX",
"VXVXVXVXVXVX1X=X%X3XuXpX1X;X&X! ! Q |. X%XVX=.O.,.>.:.=.g u 8 u h N  .;.2.o.o.;.>.-.2.5.8.VXVXVXVXVXVXVXVXVXVXVXVXVXVXVXVXVXVXVX",
"VXVXVXVXVXVXVX1XuXpX;X<X&Xq q T.T.W.|. X&XXX%XT T ..,.>.>.:.;.=.:.;.2.2.5.2.2.5.6.7.VXVXVXVXVXVXVXVXVXVXVXVXVXVXVXVXVXVXVXVXVXVX",
"VXVXVXVXVXVX9 + . o uXQ q Q Q Y.R.|. X$X-X&X%X%X3Xm q 0 2 2 ; ; - - ; E E qXeXVXVXVXVXVXVXVXVXVXVXVXVXVXVXVXVXVXVXVXVXVXVXVXVXVX",
"VXVXVXVXVXVX6 + . ^ ! Q R.-.^ |.+X@X$X$X$X*X%X@XOX}.i S z x -   z z 7X7XeXeXrXrXVXVXVXVXVXVXVXVXVXVXVXVXVXVXVXVXVXVXVXVXVXVXVXVX",
"VXVXVXVXVXVX& $ g._ ( =X_ $X) $X:X:XV =X$X#X@XoXoX3Xz v.H F   1 z wXwXeXrXrXsXkXVXVXVXVXVXVXVXVXVXVXVXVXVXVXVXVXVXVXVXVXVXVXVXVX",
"VXVXVXVXVXVXVX/ h.) ,Xg.W.,X_ :X:X,XM M =X#X#XoX}.}.3XH b.b.P F.gXgXgXfXfXfXfXhXVXVXVXVXVXVXVXVXVXVXVXVXVXVXVXVXVXVXVXVXVXVXVXVX",
"VXVXVXVXVXVXaX( ( 2Xy.! =X,X( ,X>X}.V V C M m @X}.{.3XG M.M.N.b.zXzXkXhXjXjXjXF H.VXVXVXVXVXVXVXVXVXVXVXVXVXVXVXVXVXVXVXVXVXVXVX",
"VXVXVXVXVXVXaXuXg.1Xh.&.-X) (.>XV V V V C m h OX+X[.{.n v.N.xXlXxXcXxXzXkXjXjXH F.VXVXVXVXVXVXVXVXVXVXVXVXVXVXVXVXVXVXVXVXVXVXVX",
"VXVXVXVXVXVXpX/ >X2Xg. X=X=X*XV V V V V C C @XoXoX[.!.NXxXMXvXcXbXbXcXzXkXhXyXJ F.VXVXu u 9 k VXVXVXVXVXVXVXVXVXVXVXVXVXVXVXVXVX",
"VXVXVXVXVXVXpX) 1X/ 1.:X2X>X2X>X>XV V M M M oXoX[.!.vXbXvXvXnXcXcXcXcXxXhXhXJ J G.l u 6 7 & & & 9 VXVXVXVXVXVXVXVXVXVXVXVXVXVXVX",
"VXVXVXVXVXVXaX_ <X/ T.,X>X>X>X>X>XV V M M i oX{.I.E 9 nXvXcXcXnXcXcXcXkXkXJ J J F.l u e 3 @ @ @ & 9 VXVXVXVXVXVXVXVXVXVXVXVXVXVX",
"VXVXVXVXVXVXpX^ 1X/ W.,X>X>X>X>X:XV V =X=Xm m T.6 + @ X vXvXcXvXxXxXzXkXH J B.J F.h t r 4 % % X X = 9 VXVXVXVXVXVXVXVXVXVXVXVXVX",
"VXVXVXVXVXVXVXpXuX/ |.>X,X:X:X:X:XM =X#X@XoX[.U.# @ @ . xXcXzXzXkXhXH H J N.N.J B.d t y w 4 % % X * & VXVXVXVXVXVXVXVXVXVXVXVXVX",
"VXVXVXVXVXVXVXVXiXuX-X<X>X:X=X=X$X$X#X@XoX}.{.!.& @ @ o   lXkXhXF H H J B.N.N.N.Z.d p t r 5 4 # @ X $ VXVXVXVXVXVXVXVXVXVXVXVXVX",
"VXVXVXVXVXVXVXVXVXiXuX<X<X,X=X-X-X@X#X#X*X*X;Xx & $ . o eXhXP F H H N.N.m.m.B.J F.p d p t w 4 3 * @ * VXVXVXVXVXVXVXVXVXVXVXVXVX",
"VXVXVXVXVXVXVXVXVXVXVXVXiXuXuX1XuXuXuXx L n F.F G.H I.w.I H H J J N.m.m.m.v.N.N.Z.m s s t r 5 3 % $ = VXVXVXVXVXVXVXVXVXVXVXVXVX",
"VXVXVXVXVXVXVXVXVXVXVXVXVXVXVXVXn.L L n x G F.F.m.V.!.F G.H v.v.N.m.V.m.m.m.B.B.B.G.s s p t r 4 & & VXVXVXVXVXVXVXVXVXVXVXVXVXVX",
"VXVXVXVXVXVXVXVXVXVXVXVXVXVXVXVXF.L L G H v.m.C.A.A.J A.m.0Xm.v.m.m.m.m.m.m.m.N.J F.s s p t 5 5 7 k VXVXVXVXVXVXVXVXVXVXVXVXVXVX",
"VXVXVXVXVXVXVXVXVXVXVXVXVXVXVXVXH.F.B.C.M.C.V.J.J.A.V.V.m.V.K.V.V.A.V.V.M.m.M.B.J L s d a u u e VXVXVXVXVXVXVXVXVXVXVXVXVXVXVXVX",
"VXVXVXVXVXVXVXVXVXVXVXVXVXVXVXVXVXZ.K D.D.S.m.J.S.J.S.K.A.A.V.A.A.V.N.m.C.m.L B.J L j j j a VXVXVXVXVXVXVXVXVXVXVXVXVXVXVXVXVXVX",
"VXVXVXVXVXVXVXVXVXVXVXVXVXVXVXVXVXG.K b.b.D.v.L.L.A.J.J.V.A.A.A.m.V.V.L M.Z.L B.n.VXVXVXVXVXVXVXVXVXVXVXVXVXVXVXVXVXVXVXVXVXVXVX",
"VXVXVXVXVXVXVXVXVXVXVXVXVXVXVXVXVXVXF.Z.n.L.C.H J.C.F J.m.H K.A.H B.B.J N.M.G J Y VXVXVXVXVXVXVXVXVXVXVXVXVXVXVXVXVXVXVXVXVXVXVX",
"VXVXVXVXVXVXVXVXVXVXVXVXVXVXVXVXVXVXVXD.n.G.b.L L.C.H M.m.H C.C.H B.V.L Z.M.: D VXVXVXVXVXVXVXVXVXVXVXVXVXVXVXVXVXVXVXVXVXVXVXVX",
"VXVXVXVXVXVXVXVXVXVXVXVXVXVXVXVXVXVXVXT Y C.J.v.M.b.H J v.F Z.V.L B.m.D > : < Y VXVXVXVXVXVXVXVXVXVXVXVXVXVXVXVXVXVXVXVXVXVXVXVX",
"VXVXVXVXVXVXVXVXVXVXVXVXVXVXVXVXVXVXVXVXVXT Y D v D D < c : c : < : : : : < U VXVXVXVXVXVXVXVXVXVXVXVXVXVXVXVXVXVXVXVXVXVXVXVXVX",
"VXVXVXVXVXVXVXVXVXVXVXVXVXVXVXVXVXVXVXVXVXVXT R B D b < c c c c < < : : D U R VXVXVXVXVXVXVXVXVXVXVXVXVXVXVXVXVXVXVXVXVXVXVXVXVX",
"VXVXVXVXVXVXVXVXVXVXVXVXVXVXVXVXVXVXVXVXVXVXVXVXY Y U < < , , < : < D D D c : VXVXVXVXVXVXVXVXVXVXVXVXVXVXVXVXVXVXVXVXVXVXVXVXVX",
"VXVXVXVXVXVXVXVXVXVXVXVXVXVXVXVXVXVXVXVXVXVXVXVXY < > 1 R Y Y U R D D : < : : VXVXVXVXVXVXVXVXVXVXVXVXVXVXVXVXVXVXVXVXVXVXVXVXVX",
"VXVXVXVXVXVXVXVXVXVXVXVXVXVXVXVXVXVXVXVXVXVXVXVXVXU < > 1 2 VXVXVX> : , < < < VXVXVXVXVXVXVXVXVXVXVXVXVXVXVXVXVXVXVXVXVXVXVXVXVX",
"VXVXVXVXVXVXVXVXVXVXVXVXVXVXVXVXVXVXVXVXVXVXVXVXVXg f t 4 $ VXVXVXD < c c D < VXVXVXVXVXVXVXVXVXVXVXVXVXVXVXVXVXVXVXVXVXVXVXVXVX",
"VXVXVXVXVXVXVXVXVXVXVXVXVXVXVXVXVXVXVXVXVXVXVXVXVX6 % @ o o VXVXVXU c D D D c VXVXVXVXVXVXVXVXVXVXVXVXVXVXVXVXVXVXVXVXVXVXVXVXVX",
"VXVXVXVXVXVXVXVXVXVXVXVXVXVXVXVXVXVXVXVXVXVXVXVXVXVXVXVXVXVXVXVXVXVXv D D D < VXVXVXVXVXVXVXVXVXVXVXVXVXVXVXVXVXVXVXVXVXVXVXVXVX",
"VXVXVXVXVXVXVXVXVXVXVXVXVXVXVXVXVXVXVXVXVXVXVXVXVXVXVXVXVXVXVXVXVXVXu a p t % VXVXVXVXVXVXVXVXVXVXVXVXVXVXVXVXVXVXVXVXVXVXVXVXVX",
"VXVXVXVXVXVXVXVXVXVXVXVXVXVXVXVXVXVXVXVXVXVXVXVXVXVXVXVXVXVXVXVXVXVXVX# + $ o VXVXVXVXVXVXVXVXVXVXVXVXVXVXVXVXVXVXVXVXVXVXVXVXVX"
};
