/* XPM */
static char *result[] = {
/* columns rows colors chars-per-pixel */
"64 64 256 2 ",
"   c #103609",
".  c #174907",
"X  c #185406",
"o  c #174B10",
"O  c #195814",
"+  c #265703",
"@  c #265511",
"#  c #187212",
"$  c #266706",
"%  c #366808",
"&  c #35730A",
"*  c #2A6817",
"=  c #356A16",
"-  c #2A7214",
";  c #397719",
":  c #1B4920",
">  c #26552A",
",  c #1C7E21",
"<  c #286626",
"1  c #2F7329",
"2  c #35782A",
"3  c #387C36",
"4  c #4B710F",
"5  c #457A09",
"6  c #497A18",
"7  c #657018",
"8  c #467827",
"9  c #4F7D2A",
"0  c #367940",
"q  c #33890E",
"w  c #3B8819",
"e  c #389A1B",
"r  c #3C8627",
"t  c #398F2D",
"y  c #398434",
"u  c #1FA020",
"i  c #29B02F",
"p  c #49870C",
"a  c #58870C",
"s  c #55950F",
"d  c #478716",
"f  c #568817",
"g  c #4A9816",
"h  c #689213",
"j  c #689916",
"k  c #58A616",
"l  c #52AF17",
"z  c #6BA50C",
"x  c #74B109",
"c  c #7BB70E",
"v  c #66A617",
"b  c #76A718",
"n  c #65B316",
"m  c #77B219",
"M  c #478725",
"N  c #5A8723",
"B  c #48972B",
"V  c #54992A",
"C  c #4A8D36",
"Z  c #568B35",
"A  c #4C9434",
"S  c #4B9B36",
"D  c #589936",
"F  c #639724",
"G  c #669831",
"H  c #56AF27",
"J  c #59A628",
"K  c #4DA235",
"L  c #5AA837",
"P  c #5AB73D",
"I  c #65AA27",
"U  c #79A92B",
"Y  c #69B42A",
"T  c #74B72A",
"R  c #7BBB2C",
"E  c #65A839",
"W  c #6BAC3C",
"Q  c #77AD3B",
"!  c #6AB537",
"~  c #77B838",
"^  c #31CE38",
"/  c #69C617",
"(  c #71CB19",
")  c #5EC43D",
"_  c #78C42A",
"`  c #68C434",
"'  c #77C535",
"]  c #7CC334",
"[  c #468D43",
"{  c #549846",
"}  c #608E4C",
"|  c #5AB448",
" . c #53BD55",
".. c #6BA843",
"X. c #74AB46",
"o. c #73B544",
"O. c #76BA44",
"+. c #7ABC46",
"@. c #74B44A",
"#. c #7BB54A",
"$. c #77B94B",
"%. c #7ABC4C",
"&. c #6CB551",
"*. c #7DBD52",
"=. c #78B854",
"-. c #629D70",
";. c #55CE49",
":. c #6AC445",
">. c #78C544",
",. c #7DC14C",
"<. c #70D14B",
"1. c #7EC151",
"2. c #79C25D",
"3. c #63E44F",
"4. c #89B512",
"5. c #87B919",
"6. c #88B827",
"7. c #95AF36",
"8. c #8CB233",
"9. c #87B73B",
"0. c #87C61C",
"q. c #96C518",
"w. c #90D419",
"e. c #A6CE1A",
"r. c #A7D61C",
"t. c #BEE31E",
"y. c #88C52B",
"u. c #96C828",
"i. c #9AD826",
"p. c #82C234",
"a. c #89C938",
"s. c #9BCD37",
"d. c #93CC3D",
"f. c #84D138",
"g. c #8DD23C",
"h. c #97D438",
"j. c #9BD33A",
"k. c #92DA3C",
"l. c #A1CA29",
"z. c #A7D727",
"x. c #A3CC38",
"c. c #A6D838",
"v. c #B4DA36",
"b. c #ACE33B",
"n. c #B7E539",
"m. c #C3E83D",
"M. c #83B84A",
"N. c #9FBE44",
"B. c #92B04C",
"V. c #ADB54E",
"C. c #8EB06C",
"Z. c #A5B977",
"A. c #C9BD7D",
"S. c #86C947",
"D. c #81C54E",
"F. c #96C745",
"G. c #89D343",
"H. c #94D442",
"J. c #9BDB42",
"K. c #97D848",
"L. c #82C353",
"P. c #86CA54",
"I. c #87CA56",
"U. c #9BC958",
"Y. c #8DD552",
"T. c #99D654",
"R. c #A3C84C",
"E. c #A8DB47",
"W. c #B2DB4A",
"Q. c #A7DB53",
"!. c #B2DC5B",
"~. c #96E44A",
"^. c #9CE856",
"/. c #A7E446",
"(. c #B8E847",
"). c #BEF246",
"_. c #ABE353",
"`. c #A7E559",
"'. c #B8E755",
"]. c #BAF15A",
"[. c #8AC86C",
"{. c #9BDA63",
"}. c #97C975",
"|. c #A4C86B",
" X c #A5C877",
".X c #97E17A",
"XX c #ACE96C",
"oX c #B5E764",
"OX c #F2DC5D",
"+X c #C6EB48",
"@X c #CAF24A",
"#X c #C2EC53",
"$X c #C9EA5B",
"%X c #C8F256",
"&X c #D2F456",
"*X c #E9DD64",
"=X c #CAEF63",
"-X c #C8F563",
";X c #D0F063",
":X c #D3F373",
">X c #6BAF93",
",X c #64A19F",
"<X c #6BC68F",
"1X c #6ECDA8",
"2X c #79D2D8",
"3X c #75D1EE",
"4X c #76C6FF",
"5X c #78C8FD",
"6X c #8E9A8D",
"7X c #B09389",
"8X c #8CB08B",
"9X c #ADA1A4",
"0X c #F08B8A",
"qX c #D5B78C",
"wX c #EAB48D",
"eX c #F0B48F",
"rX c #EEB199",
"tX c #F7B995",
"yX c #FBA8A0",
"uX c #8ECB8D",
"iX c #B4CB8B",
"pX c #A8E48E",
"aX c #8BCCAD",
"sX c #B5D9A1",
"dX c #B8ECA7",
"fX c #CEC88E",
"gX c #E3C897",
"hX c #FDC29A",
"jX c #F8CB99",
"kX c #FECC9D",
"lX c #EBD89E",
"zX c #F5D29E",
"xX c #FDD19D",
"cX c #C1F28B",
"vX c #EDF692",
"bX c #F8C1A1",
"nX c #FDCDA3",
"mX c #EED9AA",
"MX c #F4D5A3",
"NX c #FED2A4",
"BX c #FAD9A6",
"VX c #FFDBAC",
"CX c #C8E9AA",
"ZX c #F4E0A9",
"AX c #E3EAB6",
"SX c #9EB4DA",
"DX c #D6B9D3",
"FX c #84C5D4",
"GX c #90CEEF",
"HX c #87CBFF",
"JX c #92D1FE",
"KX c #A2DAFF",
"LX c #BAE0FA",
"PX c #E9F2D9",
"IX c #C2E2FF",
"UX c #F0F5E8",
/* pixels */
"4X4X4X4X4X4X4X4X4X4X4X4X4X4X4X4X0XDXHX4X4X4X4X4X4X4X4X4X4X5X4X4X4X4X4X4XPX6X4X4X4X4X4X4X4X4X4X4X4X4X4X4X4X4X4XHX5X4X5X5X5X4X4X4X",
"4X4X4XPXSX4X4X4X4X4X4X4X4X4X4XqX0XSX5X4X4X4X4X4X4X4X4X4X4X4X4X4X5XGXPX,XUX6XPX4X4X4X4X4X4X4X4X0X4X4X4X,X>X>X5X7X7X>X>X4X5X4X4X4X",
"4X4X4XUXUX4X4X4X4X4X4X4X4X4X4X4XaXJX4X4X4X4X4X4X4X4X4X4X4X4X4X4X5X4X<X3X1X2X5X5X4X4X4X1X2XHX7X7X7XC.,X>X,X6XqXPXuXUXUXUXFX4X4X4X",
"5X3X}.D.2.aX4X4X4X4X4X4X5X3X[.,.2.aX4X4X4X4X4X4X4X4X4X4X4X4X4X4X5X5X<X3X1XFXHX5XFX4X4XaX,X,X7X7XrX,X,X,XHX6XfX8XX.PXUXUXFXvX3X4X",
"gXZXNXgXmXMXMXMXNXeXMXZXgXwXMXmXgXmXzXNXNXeXMXZXgXBXzXMXnXeXMXZXgXgXlXMXwXwXBXmXgXlXMXMXMXNXeXMXVXgXMXmXgXjXjXNXMXzXMXNXeXMXBXgX",
"tXNXNXtXMXnXnXnXnXeXNXNXhXeXNXNXtXnXnXkXkXeXNXNXhXNXkXnXnXeXNXNXtXnXnXkXrXrXnXNXkXnXnXhXkXnXeXNXNXtXMXzXzXNXeXMXZXgXhXkXtXnXVXtX",
"jXkXkXbXNXNXNXNXkXkXxXkXjXkXxXkXjXNXNXNXkXkXxXkXjXBXNXNXkXkXxXkXkXnXnXnXtXnXnXNXnXnXNXNXnXkXkXkXnXhXnXnXjXnXeXNXVXtXNXkXkXxXkXkX",
"nXkXxXmXBXVXVXVXxXjXBXkXkXxXNXkXNXVXVXVXkXxXNXkXkXVXVXVXkXkXNXkXkXnXNXnXnXnXnXNXnXnXN.B.VXkXxXNXkXnXNXNXNXkXkXkXkXjXVXxXxXNXkXnX",
"NXNXtXtXVXiXBXVXBXNXVXxXkXNXVXxXNXiXNXVXBXNXVXNXkXiXBXVXBXNXVXxXkXNXnXnX[.~ '.d.F.E.#X;XG.(.E Y xXxXZXVXVXxXxXBXkXkXVXBXNXNXxXxX",
"hXtXbX0XrX}.lXxXNXNXnXhXhXNXnXhXtX}.lXnXNXNXnXhXhX}.lXnXNXnXnXtXtXNXhXnX^.J./.G.G.6.x.H.`.k.c.K.f.d.M NXVXBXNXBXxXxXnXnXNXnXhXhX",
"xXbXqX0XyXZ. XqXtXhXwXtXkXC.E.#XV.Z. XA.tXtXeXtXxXZ. XfXtXtXwXbXNXbXtXtXJ.k.n.f.f.6.u.].G.y.H.! ~ g J B nXxXxXnXhXhXfXtXtXwXbXxX",
"kXfXZ.A.eXpX.X XtXhX|.^.E.H.R H.J.K.j.}.tXhX|.fXkXpX.X|.tXhX XfX{.rXtX#X(.+Xk._ v f T 6.b.a.s.b.~ B.B.d A.A tXeXbXxX|.tXtX XfXxX",
"-.qXsX2.qXsXcX}. X8XpXJ.g.u.& #Xf.6.g... X8XpXA.-.sXcXB.B.8XpXW ~.~ &XW.c 5.F E.g.f.` I.+.'.d.F.E.$X;XS.W.E Y Z.fXMX}. X8XpXA.-.",
"-.sX-.sXAX8XdXsXuX~.&Xc F k.f.g.a p T s.J 8 2.$X+XF.E.$X=X7.Q Y &X@X(.J.c.8.y.b.h.g.:X-X].%Xu./.j.(.].].W.(.c.'.W.Z sXuX>XuXpX-.",
"dXCX[.wXjXCXCXCX~.` k.(.+X5.b.% l.E.T d J A ^.).H.H.6.l.g.G.g.K.G.B k.T./.c.m.F.6.b.c.J.k.(.f.f.6.l.].G.y.H.! ! g K B CXCXdXCXdX",
"[.[.eXeXxX X.X}.| f.$X_.Q.].+Xj.6 '.6.l.O -Xk.+Xg.u.& T %Xk.h.6.T g E a._.s.Q.d.].+X-XJ.].h.b.u.& T #Xc.f.b.R T a.B | }.}.[.}.[.",
"9X9X9X9X9X9X9X;.@Xb.Y $X(.$X'.S.h.l.T K.A +Xm.(.9._.y._ j.b :Xz.c.u.u.W r Z Q.K.'.@X+Xn.(.x.5._.y._ H.n 6.(.z.c.u.u.u.! r { 9X9X",
"LXIXLXLXIXIXIX| d.oX+ (.cXl.+X9.N f.X.&X(.~.v.Z [.$X'.d.v.E.%XS.8.Q ! #.J F W ~.R &XW.4.4.F E.k.f._ g.y.a j f _ T a.s.f J w IXLX",
"KXJXKXKXGXJXJXK +X=Xh #XoXQ.a = 5 ^.K.:.F./.E.'.^.(.d.H.G.6._.XXS.a.K.R a.S ^.>.I h.k.h.l.@X+Xx h.y.s.c.z.F T Y T N * B L B G KX",
"JXHXJXJXHXHXHXP 7 M.#XB.V.6.n.F.S.s.| f.#Xa._.(.J.l.f.f.G.y.i.G.] T ! ~ g t B :.! k.E./.x.+XF.5.b.c.5 h i.a E.J.T T d B V Y 2 JX",
"5X4X3X5XGX].].%Xu.j.-X].E.(.T.W.Z o.-X_.{.z $XJ.'.n.G._ & g 6.v.u.g.c.b.] H.6 a.A -Xa._.s.!.d.'.+Xu.s._ 4 f #Xu.6.6.l.= O r 1 : ",
"KXKXKXKXJX(.k.(.f.g.c.G.y.F.~ g K @X).W ~.(.&Xx.x U N.E./.' H.y.j j f z R ] s.f J d 8 '.W.W.b.'.!.F.b.s.a.b 6.h.b + = 8 M < y y ",
"JXJXJXHXHX/.).k._ & 6.c.a.s.E.p.H.G.A X.&X#X_.J.v.6.).b.].k.h.i.l.h.j h.S.T K.g I ! G $X6.m.;X;X].K.S.' g.x.x.n.U 6.6.V A t 1 y ",
"5X5X/.~ &Xx.5.F b./.k.0.s F z T d.H.H d :.d.k.K.E.E.Q.F.(.b.a h n.m b.T T R 6 M L Y B x.6.b x.a Q.E.T.a.6.z.z.p.Y p.a.s.2 t 1 1 ",
"Q Y.Y.I h.k.l.@X+X'.a z.z.F b.T f 2 E B G '.-X/._.b !.a.j.+XR ] a.8.].a.6.a x.= O r O : _.:X_.l.(.+X7.W.C./.'.~ ' .   X   y [ 3 ",
"M.`.^.'.Q._.h.W.S.x.z.5 l.& ] y.y.p V w < s.9.#X'.'.Q.v.Q.!.x.h.y.5.6.z.4.= = ; y 1 ; y oXXXoXK.+X-X#XE.(.j.oXc.(.K.E.C r 3 1 < ",
"2.;.' %X8.#X(.W./.T.x.s.y.6.x.b . & 8 < y r Y ;X$X(.@X;Xv.$X:X' f.c.l.r.m 9.6.V C y t 2 5 `._.'.E.).k.f.a.6.].] d.! V B } 0 1 3 ",
"^.@X`.#XT ;X6.(.&Xv.:X' d.x.z.m 6.d.A t 7 r W.#XB.V.z.b ;X/.k.g.a.  T /.Y p.x.9   y [ 3 5 Q.4 T.v.~.+Xg.I d R u.l.v.] 6 @ [ 1 3 ",
"`.L.~.:X* U.$X$Xb ;Xc.g.+ + /.Y a.$X'.%Xu.k.d.$X$XW.(.K.W.A 6.c.s.  a.R ' T   o   3 3 y #.(...~.&Xc.5.F.g.f.g.j F z R s.f w 3 C ",
") @X'.`.5 #XoXoXoX(.N (.F d.p.R S.(.k.(.f.H.y.c.G.6.H.~ g t B a v.6 j.F.F.a.V C C 3 0 < = Q ^.:.h.K.l.m.4.j.u.z.F b.T * D B G y ",
"G.+X8 %X4 6 5 _.Q._.% c.8.y.{.+ s./.).J.y.& g 6.b.a.z.c.9.h.d a.M y.W.@ ..M 8 C O [ [ 2 4 T.~.T.Q.Q.s.U.y.n.E.h & _ a.u.d w < ,.",
"P V _.%XV 8 Q.n.|.+XT.p.a.E ~.W.&Xx.5.F j./.f.g.p.a F z T ] s.f J 8 x.: E S { Z o 1 y : *.2.E %X6.#X(.E.'.!.c.] 6.i.b = 2 < y y ",
"P | K.G.=.XXD.Q o.;XF.G.P.T.>.@Xj.k.l.+X@X(.h.s v.z.J b.T T = A J C c.x.1 C   E ..* 2 y <.^.(.b.Y ;Xu.&X;X#XS.g.x.z.m 6.V C 2 y ",
"Q P K ] S.>.L T.O.@XG c.,.~.T.W._.Q.s.Q.F.x.n.x.% u.5 R a.a.y.d L 2 8 { G E * * 1 M 8 M G.`._.T.* I.%Xl.a E.c.p.+ /.! s.9 y y r ",
"K ` G.g.! S.- H.! o Q <.d P @Xs.9.#Xn.W.v.`.!.J.u.y.5.s.b % = ; O ; y S #.O * = > A = ~ ) ) _._.5 @XoXQ.j.+X@ c.s.6.T C C 3 1 y ",
"| ~ H.T.Y K.; ; I 6 . ;.@X(./.f Y ;Xu.(.$XW.].:X] h.x.z.U ~ 6.V M t y r G ..C M % B.; . H G.j 9.4 6 5 E.'.E.8.v.6.4 + ; C 3 1 3 ",
"P >.g M.#._ J h.Y Y P P G./.^.oX% U.#X#Xb ;XE.c.g.+ + E.Y p.x.9 O [ 3 r r d g k + > > i :.P J ,.G 6 Q.9.U n.S.g.s.@ D { C 1 3 @.",
"$.K G { 3 X # w Y k J :.T (._.oX5 &XoXoXoX(.+XN (.F d.6.~ ~ Z C A 3 < g g g 6     : > i q | ~ H.=.XXD.*.I _.K.a.!.x.1 o E * y > ",
"=.Y 8 ! ! {.L O y.; k | %XV 9.(.5 6 5 _._.E.W.% c.8.y.5 + E.2 D 2 C 1 I $ E d < 1 . O ! K o.| B S.' L D.x.U S.c.A G D * * r P.=.",
"1.1.; F.! J | ..O M ' ) K I M.(.Z 8 Q.(.|.+Xv.T.] p.s.@ L A D C < 2 o X $ @ * = Z d f ! L ..H h.! S.= H.o M.N E.= +.+ M E * D.D.",
"*.%.F.X.F.Y X H - $ ^ ) | ~ J.+.%.XXD.Q o.;XW.j.H.$ W.x.1 Z   W > 2 y *.$ X g & f F._ . + J $ * ! ~.; p M D.o ' . B B B E B.&.=.",
"*.N.{ { G w N w M g 3.O.B L S I S.>.| Y.O.@XU D c.& A E Z ..* * w 8 *.L.$ $ 7.% 6 I f.n d T 9 B.g ! H R L Y.D d M M g . 4 : > =.",
"%.1.M 1.[.i , p M k ^ q Y H k.~ W S.& H.Q o M.! j 2 * O.+ C B E @ * 1.*.n p %.q.f N.,./ % e 8 S M ` q H k g B J   v $ w * o *.=.",
"%.P.' o.J ! P l ; w <.:.L K * ' Y K.; ; I 6 S.. E Q . K S r B G o f *.>.I & D.0.h ,.>./ n g M 9 U.X # f _ k l Y # . $ * = f P.%.",
"M.F.O.L.Y B H / $ K P ' V W 9.V.6 T I J ~ H Y.J ..P.M d g d . 8 > > < D.g - *.c s S.Q / n l ; ' ! L L * L p e ; m 9 $ g & O.N.%.",
"*.M.o.N.' X Y / l K # $ Y vXD { 9 ` w 0.` Y g J g n   k $ E p * 8 @ 1.~ n d 1.r.b ,.R.w.x n < ;.O.J E X O w u , k 4 q  .o.N.,.*.",
"D.D.o.N.d.O.q '.j ( d s 8 vX9 D.{.X # 1 / $ k Y n D # X $ @ $ ; N f A J k & X.=.R.~ F.z.0.( H e I R d R J g i 2 b 6 g |.,.>.,.L.",
"%.*.#.o.+.:.n 6 5.( q p 1 =.` :.! L L . 8 +.g e 2 D.s & $ O g & S E V F z F =.M.M.Q M.r.e./ l l Y e 4 $ Y ( u 2 m 7 g %.O.,.%.1.",
"I.L.,.,.D.,.I.w 5.N z k H { W 5.9.J E V X * q ) u @.k l q & # $ Y *.*.+.x f =.I.U.o.I.).4.'.h f Q D.q J 4 c.u d e.N v ~ F.+.1.P.",
"I.D.+.N.%.,.D.g ( 7 g.n S K A e.Y 6.d ! 8 +.e 3.u @.c s g ; %.s % #.N.L.l.h 1.N.,.$.*.%.@.7.v 6 S.#.n p D.W.P S L I k S.M.I.,.I.",
"*.$.%.I.%.%.%.l r.6 Y c I ,.>.0.6 N.% e 8 I.( ^ , #.q.z g & 1.s d @.L.R.q.h M.*.O.P.o.D.1.=.q.h I.1./ l e <.X J m a b #.$.*.$.*.",
"*.D.1.*.%.1.,.z 7 ,.D.q.T R.,.r.a D.I._ ; M.b.^ q +.m.q.n ; D.g ; !.U.L.m 6 2.M.O.%.$.O.I.=.q.j I.,./ z f W q _ 5.Z 4.M.M.,.L.1.",
"D.,.%.R.%.L.P.q.6 ,.! e.d W #.w.a =.M.n = $.c.E 1.S D J k & N.n 5 M.L.M.q.h M.=.%.L.I.L.,.D.c f 2.I./ q.5 o.n d e.7 u.F.Q.1.1.,.",
"1.I.L.1.%.P.,.r.p P.%.l ; O.O.t.U $.=.w.H e >.' V J b.a b d Y.n ; D.%.1.e.b M.I.o.1.[.I.=.*.0.b *.L./ t.h O.l ; Q F.m D.L.M.I.D.",
"D.D.I.D.D.D.W r.j #.o./ ; *.o.i.f M.=.(.p ,.o.o.g Y N.r.q.a +.x 5 O.$.1.D.D.D.M.!.U.1.P.%.*.t.4.#.Q i.m.h O./ p >.U.q.>.%.1.1.D.",
"D.1.1.,.+.#.+.b.h N.*./ p $.o.v.b o.o.7.b %.M.N.s $.o.,.q.h #.q.b 1.+.%.L.D.D.D.W o.$.$.X.o.N.1.W X.z.c.j R.x q +.9.~ 1.,.,.1.D.",
"D.*.%.N.Q $.vXN.b =.+.w.a %.%.+.+.,.+.D.q.N D.D.g *.*.%.m f %.e.6.W W X...,.O.O.%.N.L.B.L.+.,.=.O.X.r.e.4.D.i.a +.$.@.O.N.*.1.L.",
"+.@.=.+.R.9.vXOX4. .>.i.a %.D.,.D.D.,.D.4.a S.E n $.$.@.q.j 1.4.z #.$.#.@.N.Q $.vX*X&.=.+.=.P.%...W ).4.+.O.z.6.D.N.M.+.1.$.@.$.",
"*.=.@.N.N.W 2.{ 0  .o.z.5.*.M.,.L.O.#.o.q.6 #.vXg ,.N.M.+.,.$.@.O.#.%.%.O.+.R.B.vXOX|  .%.O.N.*.O.#.@.N.9.@.).v &.=.@.$.I.$.=.1.",
"D.=.D.%.9.W =.$.}  XM.+Xj D.+.$.O.o.D.D.t.4 vXOXm :.=.O.$.P.%.O.@.*.o.L.N.R.7.E 2.{ 0  .~ N.%.*.X.@.#.O.F.B.vXOX . .#.O.F.1.=.,.",
"D.D.#.O.~ +.~ ,.,.%.O.+.$.1.%.O.O.D.O.D.$.N.| vXr.0 ;.$.O.N.*.%.%.@.%.+.+.D.9.W =.=.} |.,.,.L.D.+.P.@.N.7.W 2.{ 0  .o.N.%.M.P.D.",
"*.*.1.I.R.D.1.>.+.~ N.O.1.P.o.O.F.O.M.%.N.N...2.4.}  .o.N.%.*.%.*.D.%.%.%.+.O.O.! S.*.%.~ %.%.,.%.~ ,.,.M.W *.=.} |.,.>.D.D.*.*.",
"*.*.,.1.+.#.N.%.O.O.,.P.1.I.,.D.,.I.L.L.,.M.W =.$.|  X,.>.D.L.Y.L.L.P.D.,.P.N.D.,.,.>.~ R.o.2.P.*.~ O.$.~ +.O.>.%.%.O.+.*.*.*.*.",
"*.1.P.O.S.O.W %.%.+.=.*.=.*.~ ,.%.L.1.,.O.O.O.O.,.%.%.o.%.*.1.,.M.L.1.L.1.D.%.%.N.+.O.+.,.P.1.I.1.1.1.I.R.D.,.,.+.~ N.O.1.P.1.*."
};
