/* XPM */
static char *result[] = {
/* columns rows colors chars-per-pixel */
"64 64 252 2 ",
"   c #0A2F17",
".  c #0D2925",
"X  c #152A27",
"o  c #0F382B",
"O  c #233B35",
"+  c #5F3F3C",
"@  c #12482F",
"#  c #23433E",
"$  c #2C5034",
"%  c #3A682B",
"&  c #346232",
"*  c #3E6B32",
"=  c #3E7131",
"-  c #5C453D",
";  c #4F5834",
":  c #6A5337",
">  c #437E2A",
",  c #426C32",
"<  c #427335",
"1  c #477839",
"2  c #677F2E",
"3  c #243740",
"4  c #1F5348",
"5  c #274745",
"6  c #295648",
"7  c #2E504C",
"8  c #2A5B4B",
"9  c #355B4C",
"0  c #375A54",
"q  c #2D6349",
"w  c #2E6A4C",
"e  c #32664D",
"r  c #36764B",
"t  c #2D6654",
"y  c #356454",
"u  c #3A6656",
"i  c #346C54",
"p  c #3B665C",
"a  c #346D5A",
"s  c #3B6B5D",
"d  c #2E7356",
"f  c #387755",
"g  c #33755B",
"h  c #3B745C",
"j  c #3D7B5C",
"k  c #377663",
"l  c #347165",
"z  c #3C7B62",
"x  c #534B47",
"c  c #425C5A",
"v  c #624445",
"b  c #436C57",
"n  c #446C5C",
"m  c #4F7050",
"M  c #47765B",
"N  c #43745D",
"B  c #437C5D",
"V  c #7E7F41",
"C  c #486A61",
"Z  c #516E63",
"A  c #447361",
"S  c #4B7363",
"D  c #427C63",
"F  c #4A7C65",
"G  c #467B6A",
"H  c #537966",
"J  c #905C3D",
"K  c #865B4C",
"L  c #996A4C",
"P  c #8C6653",
"I  c #AC6C4A",
"U  c #A56A54",
"Y  c #A8725A",
"T  c #B57658",
"R  c #AF7764",
"E  c #DC6E6C",
"W  c #57923A",
"Q  c #6C9B36",
"!  c #6AA73B",
"~  c #74AD3C",
"^  c #73B13D",
"/  c #398457",
"(  c #3C825B",
")  c #279353",
"_  c #3C9B5A",
"`  c #398764",
"'  c #3D9265",
"]  c #3C9868",
"[  c #369374",
"{  c #3CA466",
"}  c #3CA973",
"|  c #448459",
" . c #4E9157",
".. c #638E58",
"X. c #51AA57",
"o. c #6DAB42",
"O. c #72AD43",
"+. c #77AD4A",
"@. c #69B14E",
"#. c #74B445",
"$. c #76B946",
"%. c #7ABB45",
"&. c #75B54A",
"*. c #79B64A",
"=. c #76B94A",
"-. c #7BBC4C",
";. c #7DBD53",
":. c #78B855",
">. c #448363",
",. c #4B8465",
"<. c #448B65",
"1. c #4B8C67",
"2. c #41826B",
"3. c #4D8369",
"4. c #468C6B",
"5. c #4B8C69",
"6. c #52836A",
"7. c #578768",
"8. c #538B6C",
"9. c #439266",
"0. c #459764",
"q. c #42936B",
"w. c #4B946B",
"e. c #459A6C",
"r. c #4A9B6C",
"t. c #53936D",
"y. c #4B8E74",
"u. c #568872",
"i. c #489771",
"p. c #4C9C73",
"a. c #549572",
"s. c #579774",
"d. c #43A46D",
"f. c #48A569",
"g. c #51AD6B",
"h. c #43A574",
"j. c #48A974",
"k. c #55A577",
"l. c #45B574",
"z. c #6BAF68",
"x. c #7DC346",
"c. c #7DC14D",
"v. c #7EC151",
"b. c #4EC17F",
"n. c #73CA6F",
"m. c #85B53A",
"M. c #928B50",
"N. c #A99455",
"B. c #85BA49",
"V. c #9BB74E",
"C. c #82BC58",
"Z. c #B48967",
"A. c #86BA66",
"S. c #90B673",
"D. c #A7AE75",
"F. c #CA875C",
"G. c #D68B56",
"H. c #CE9258",
"J. c #C88968",
"K. c #D78C63",
"L. c #D38E69",
"P. c #E48F77",
"I. c #DFAD73",
"U. c #81C64D",
"Y. c #82C454",
"T. c #87C956",
"R. c #97C851",
"E. c #ADCD4E",
"W. c #A5C952",
"Q. c #8BC36A",
"!. c #8CC870",
"~. c #96C874",
"^. c #90C978",
"/. c #94D272",
"(. c #AACE79",
"). c #97E17A",
"_. c #F47D80",
"`. c #6CB08F",
"'. c #63A39C",
"]. c #75C581",
"[. c #61CD95",
"{. c #6BCC95",
"}. c #7CB3E9",
"|. c #6DB9FF",
" X c #75BCFA",
".X c #79D2D8",
"XX c #75D1EE",
"oX c #76C6FF",
"OX c #7AC7F9",
"+X c #75C8FA",
"@X c #B09389",
"#X c #8DB187",
"$X c #90B28F",
"%X c #A5A58B",
"&X c #ACA0A2",
"*X c #AFA5AB",
"=X c #B2AAB2",
"-X c #F18D89",
";X c #DAB988",
":X c #D8A290",
">X c #DDAF96",
",X c #C4BB9C",
"<X c #E6B58B",
"1X c #ECB093",
"2X c #F3B492",
"3X c #F6BC96",
"4X c #DBBAA3",
"5X c #FDACA5",
"6X c #8BCD8F",
"7X c #B4CF90",
"8X c #88EC9A",
"9X c #ABE48F",
"0X c #8CC5AD",
"qX c #90D9AC",
"wX c #ABCEAA",
"eX c #B5D9A1",
"rX c #AFEAA3",
"tX c #D3C890",
"yX c #E8CD9A",
"uX c #FBC399",
"iX c #F7CE9C",
"pX c #FECC9D",
"aX c #F5D29E",
"sX c #FED09E",
"dX c #CBE19D",
"fX c #FBC4A1",
"gX c #FECDA2",
"hX c #EDD7A1",
"jX c #FDD3A5",
"kX c #F8D6A7",
"lX c #FCDAA4",
"zX c #FEDCAB",
"xX c #E6CFB4",
"cX c #EEDDBC",
"vX c #F5D5B8",
"bX c #C7E8A9",
"nX c #EBE6B7",
"mX c #D6B9D3",
"MX c #84C7D6",
"NX c #83C3F4",
"BX c #83CBFE",
"VX c #8CCDFE",
"CX c #90CCF1",
"ZX c #93D1FF",
"AX c #AECCF5",
"SX c #A1D9FD",
"DX c #BAE0FA",
"FX c #EED6C4",
"GX c #F1EACE",
"HX c #C2E1FF",
"JX c #EFF5E6",
"KX c #EEFDF8",
/* pixels */
"oXoXoXoXoXoXoX+X+X+X XOXoXOXoXoX XOXoXoXoXoXoXoXoX+X%XGX+X+X+XoXoXoXOX XoXoXmX-XOXOXoXoXoXoXoXoXoXoXoXoXoXoXoXoXoXoXoXoXoXoXoXoX",
"oXoXoX+XoX{.`.@X@XoX'.`.'.OXOXOX:X|.oXoXoXoXoXoXoXJX$XJX'.JXCXoXoXoXoXoXoXoX=X-X,XoXoXoXoXoXoXoXoXoXoXoXoXoXoXoXoXoXoX+X+XoXoXoX",
"oXoXoX+XJXJXJX#XJX,X%X'.'.'.$X:X@X@XCXCX'.oXoXoXOXOX.X[.XX[.oXoXoXoXoXoXoXoXZXqXoXoXoXoXoXoXoXoXoXoXoXoXoXoXoXoXoXoXoX+X+XoXoXoX",
"+XXX+XoXKXJXGXz.6X>X#XNX'.'.'.4X@X@X'.'.qX+XoXMXOXOX X[.NXc.^.0X0X0X0X^.].T.^.^.^.^.0X0X0X0X^.z.U.^.^.^.^.^.^.~.U.n.+X+XoX+XXX+X",
"pX3XjX+XaXyXyXuXS.9XxX#XeX9X6X2XjXyXhXyXyXiXyXyX0X].tXyXtXGX<XkXaXyXtXtXtXnXyX^.0X<XhXkX$X9XdX#XrXeX^.0X<XaXiXjXhX~.6Xn.+XgX3XpX",
"pXuXgX2XsXjXuXpXkX9XwX7XdX/.(.pX3XuX3XgX2XkXgX3XgX0X3XgXjXuXgXgXpXjXsXlXzXzX1XgX0X2XpXpXlX9XwXtXdX/.(.tXtXpXuXgXgXpXuXgX2XgXuXpX",
"uXpXpXpXlXpX4XuXaX9X,X9X).(.3XpXyXfXpXpX4XjXpX3XgXfXfXgXiXuXpXpXjXkXzXiXlXlX=XlXzX<XgXpXiX9X%X9X).(.uX<X; m 2XgXjXjXjXpXpXpXgXfX",
"jXsXsXsXlXgXvXsXiXA.I.S.7XI.3XpXvXsXsXpXvXlXgXvXjXuXgXgXjXgXgXiXzXzXlXlXlXsXzXzXzX3XfXgXpXA.<XD.).;XlXuXp 4.,XjXzXzXzXsXsXsXsXsX",
"sXsXuXjXzXlXFXjXjXS.uX~.hXgXjX;XtXpXgXuXuXzXlXcXgXfXzXzXzXgXkXjXsXpXlX>X>XzX2XiXkXlXjXhXjXS.pX~.hXlXzX  h <.m lXzXjXzXjXlXuXsXsX",
"sXsXuXjX2XjXGX3XjXhXgX7XjXzXlX2X; m 2XuX5X1XjXGXgX2XE zXzXFX:X-XxXxXsX>XxX>X,XkXiXlXjXiXjXhXzX7XlXpX7 y h <.r iXkXhXgXpXjX3XsXsX",
"sXpXtX3X5X3XFX-XhXgXgXjXzXzXzXuXp ,.,XlX-X-XfXFX3X_.E gXP.5XE _.xXzXzX>Xp ,.,XzXzXaXiXlXhXgXjXzXcXxX3 8 9 u u vXiXlXtX3X2XtXsXsX",
"A.tXS.3X2XfX-X2XgXvXS.7XS.zXzX  N 9.M lXzX2XfXFXfX-X-X4XE -X_.P.eX>X>Xy s ' >XiXkX>XiX9XlXaX9X%Xy u u y u D y f 4XiXiX3XuXD.7XS.",
"8Xh.eX#X>XeX:.>X>XFX{.'.eXsX6 e z >.w iXkX>X>XFX'.n.n.^.).(.rX].cXxX7 t h ( r uXiXlXnX9XwXaX9X_.p 8 u p N D i | | lXsX(.S.eXj.8X",
"rX].g.`.nXz.eXnXnXnXrX].cXxXO 6 9 i u vXiXzXnXxX*XQ.8Xz.6X<X!.!.y >X5 7 8 u u vX4XiXiX9XdX#X9X8 y 4 D a z ,.B ' 0.<XlX6X`.g.].rX",
"~.!.~.bXpX!.<XiXuX<X~.Q.0 u p u b N e f 4XiXpX<X#XdXdXeXfX2XkXE p y p y b N y f 4XsXaXuXbXbXl t # 0 i z >.1.<.r.f.S.9XbXbX!.!.!.",
"iXjX1X!.sX<X2XiXiX2XyX-Xs 8 p s n >.u | | jXpX3Xz.!.Q.A.=X=X*X-Xp 8 p s s G i | | <XsX=X/.{ g k g i 9 n 9 M H <.( h.rXeX~.1XjXiX",
"iXiXiX1XaX=X&X*X=X=X*X8 y 4 z i D 3.B ' q.=X*X&X&X&X&X&X&X=Xp.8 y 4 z u D 2.B 0.q.<X=X=X*X{.KXk d D A 6.A 7.7.KX1.j./.^.<XiXiXiX",
"&X&X&X&X&X&X&X&X&X&Xl y @ 0 y z ` <.1.r.d.S.&X&X&X&X&X&X&X{ l t @ 0 i A >.4.<.r.d.S.&X&X&X8 o / ` h 4.a.3.t.s.w.e.d.*X&X&X&X&X&X",
"DXHXDXDXVXVXVXVXZX} l k l u 9 C 0 H H | ( h.ZXZXSXSXVXVXVXh.g h a i 9 M 9 M H | ( j.VXVXVX8 o ` @ z i.a.6.5.s.| e.f HXDXDXDXHXDX",
"VXVXSXSXBXBXVXZXZX{.KXk g z N u.n 7.7.KX0.h.BXBXZXOXBXBX7X{.KXh g G A u.C 7.7.KX9.l.^.BX Xa 8 8 7 7 j.l.6   p.f b 4.ZXZXSXSXVXZX",
"VXBXOXZXOXoX XoX&X7 o k ` j 4.a.,.t.s.1.e.f.CXOXOX X X&X&X8 @ g ` h 4.a.,.5.s.w.q.f.&XOXOXg k g h 8 d | 5 X $ f B q.BXBXZX XBXVX",
"oX X X X|.|.|.HXt 8 o ) @ z i.s.3.t.s.>.e./ OXXX}. X XHXt 4 o ` @ h i.a.3.8.s.,.e./ HX|.|.:.h h D z t.8.M 8.s.a.1.<.CXOXOXOX XoX",
"|.|. X:.Q.Q.6XM ` a 8 9 7 5 j.l.6   p.f b 4.5.XXXXNXVX( ` t 8 y 9 7 j.l.$ o p.| u y.4.HX|.|.k k z >.s.8.,.,.t.p.w.9.XXOX}. X|.|.",
"A.Q.Q.:.=.*.Q.` d g z a k q d | 5 X $ f B q.` NXOXZXZX` d l z d h 8 d ( # . $ f B 4.` DXAX4 8 d 9.0.r.w.B 9.1.f.f.KX/ p.0.Q.!.A.",
"C.C.Q.:.A.:.A.y t / k z D j a.8.M 3.s.t.1.q.h.' q.ZXAX0 q ( k j z z s.7.M ,.s.a.1.q.h.`.AX5 5 w e KX( q.w ' | f.f.B j d.j.!.C.C.",
"C.A.C.C.-X+.l k t <.z k j >.s.8.,.1.t.t.t.,.,.5.4.NXl l d ` z k j >.s.8.,.5.t.a.w.q.e.{ [ KXp G u.8.u.H M D 7.4.| <.>.d.j.C.A.C.",
"(.(.A.D.E :.l l a h 8 d 9.0.w.i.B 4.1.f.f.KX1.h.2.z l k g s 6 d 9.0.r.w.z 4.1.f.f.KX/ p.0.u p z z t.u.u.M z ` G t.] @ w.( C.(.(.",
"v.j.Y.M.v.:.` l z i e w e KX( q.w ' | g.f.N  .8.2.` / k z i u q w KX( 9.w ' | g.f.j f h.j.` g 3.8 ` ` 2.2.2.G G p.3.f h 5.f.h.U.",
"U.A. ...d d # O . k 6 A u.y.u.H N B 6.<.| <.7.M 8 ` 3 3 . k 7 z u.8.u.H M B 6.| ,.<.>.d.k.` ` 2.2.G 2.,.$ u.O f.s.A G z 4.k.Q.x.",
"^ f.1.d d 8 7 3 5 i 0 2.h a.8.u.M <.6.s.8.] } p t G 4 3 5 a 0 G z a.y.u.M >.8.s.t.[ @ ` ` G 2.` c c c Z Z n b Z H G 3.i.' h.f.^ ",
"e.p.d l z KXp 0 0 5 . G q j.f w.$ w.| g.f.6.3.p l ` G p 0 5 . G 8 j.g w.$ 2.` 2.z 2.G D y.2.G 3.c c C S H S A S H G ,.h.] ] r.e.",
"m d g d ` t p t 0 7 7 0 . k.X 6.5 u.X j.s.A 3.p k l ` G t 7 z [ 2.2.2.2.G s.X j.k.n G ` q.k.f.i i A S u.6.5.,.3.3.D KXh.l.h.<.m ",
"i.d d d d g g g k u C c c c c n Z b n C Z d.u [ a g g 2.` G C c c c c Z Z n n Z Z F 3.i.' [ p.i.w.A D 8.8.1.8.1.1.>.<.0.l.] [ a.",
"| f.g { k g h z z s Z n c c C H H S S M H s p ` g g h z k a Z n c c n H H M A Z H D 3.h.e.] p.m 1.F j e.1.w.f w.( f.r  .{ d.r.| ",
"..1 b d g 8 e ` ` z N A 9 n F 6.7.3.3.,.u.p.p d g 6 w ' ` G N D 7 n M u.6.5.,.3.4.D KXd.l.j.9.y.p F M 1.f f 8.5.f / ,.o f u m ..",
"g.{ <.4 8 q e ( d >.D A 9 n D 6.7.5.,.4.4./ 8 4 6 t w ( i D D D 9 N A 8.7.1.,.1.,.1.9.0.l.] [ y.p 5.5.1.,.,.t.<.4.1.7 b B | { X.",
"] q.9.u p 5 o l i w >.B y F j r.w.w.b r.j 8 8 a p 5 o a t w >.D y G B r.w.1.M r.( f.f  .{ 0.0.u p 5.1.1.6.9.| p.@ u b F >.<.] { ",
"g.9.e.<.p 0 7 . ( ' z G 4.4.N ( f f 8.1.f ` KXl a 0 0 . ` ' z G q.,.N ( u / 7.<.f / ,.o r b / H 6.5.1.5 . 3.. j.e n N ,.<.e.9.g.",
"{ ] d.<.k C c X a   <.C e.a.6.F ,.<.8 1.8 8 k z l p 0 X s   ` C e.a.3.F 3.<.t.1.1.>.7 b B | d.g.5.5.5.Z 0 n Z 6.7.| | 9.9.d.] ] ",
"f._ h.' z p s s 0 5 O . j.r.i.5.6.<.6 8 8 w 3.g A y C C 0 5 O . j.r.w.w.6.9.B d.@ u b F ,.9.s ] KX5.Z Z 0 C H 7.6.8.>.<.' d._ f.",
"#.l.( <.G A p S N 7 # O i 5 9 $ . 3.. j.8 6 s j D N n S N 7 5 o j 5 9 7 X F . d.e n M 3.<.e.q.g.p 5.6.H 9 F ,.s.t.w.<.q.| ( } $.",
":.:.' KXd KXu ,.z s y N n H Z Z 7 C Z 6.6.6 O 8 d KXi ,.z s u n n S m Z 0 n S 6.7.| ,.<.<.d.] u 5.,.H H u F 7.s.a.0.' 0.KX' n.;.",
"v. .,.h.h 8 q >.>.h s D n H Z Z c Z F 7.6.1.,.b h 9 8 >.>.h h A n H Z Z c n H 7.6.1.>.1.1.1.1.1.5.5.1.1.1.1.1.1.d.( <.p.p.0.*.;.",
"< < = ..f g f e.i h >.>.6.3.H H 9 F 3.s.a.1.3.O p g f r.i h >.>.6.H H H 9 F 3.s.a.1.1.e.>.( p i | 5.n f 1.1.7.f / 4.<.j.f.:.*.#.",
"% W 1 m f g g q a ` ,.>.4.,.H H u F 6.s.p.9.3.q n h s.q a ` ,.,.3.,.H 6.u F ,.s.1.w.' 9.KXp p B p.5.5.5.>.s.t.1.] e.X.-.c.-.c.=.",
"Y.< < 1 1 ' ` j f q ] r.<.KX,.5.$ 8.f g.d.| 4.p.O 7.s.N 3.q s.r.<.KXF 9.$ 1.M 1.f.j 4.p.p.0., = k.,.a.q.q.p.p.z. .v.v.=.R.%.*.Y.",
":.1 1 1 1 1.9.` j z f i z >.N f b 7.| j / 4., 1 q 6.O p p D f >.j >.h B N 5.1.. / 4.<.j.f.% % - : L I T M.o.! #.^ E.*.&.~ U.-.;.",
"U.C.< < * , , & & 1.- t.p.6.y.<.<.t.t.t.4.d.< 1 < % q 8 q 9 r q k.6.y.3.. j B j / r.X.#.W W W + J H.G.G.F.%.B.m.x.T.;.U.%.R.C.Y.",
";.U.* , % , , % % ; - p.k.H a.9.y.a.p.W = * m W = m = ; w q r.r.f ,.a.9.1.1.5.* , % % % $ v P P G.G.G.F.V.! ^ -.$.x.v.#.$.x.Y.-.",
"-.-.%.< , % , , % - + - : L I T M.1 1 m 1 = < 1 = = < = % - - v J H.K.G.Z.$.1 W 1 1 < ; P v R U G.G.K.F.I.! ! %.U.-.T.T.T.$.-.x.",
"$.v.=.% % % , > % - - - L H.G.G.T % % * 1 1 W = 1 1 = % $ x K U G.G.G.F.N.! = = < 1 * K K - Y Z.T T E K.T M.! v.U.c.x.m.-.=.Y.$.",
"c.U.c.B.% % % % & - K L G.G.G.G.V.~ $.* * = * = < , , ; P v R Y F.G.H.H.I.! 1 = * , * : M.+ J.J.U T G.I.U Q ! v.T.Y.;.*.B.Y.U.-.",
"v.U.c.E.W W  .; P v R Y T G.G.G.I.! ! %.* > = % , * = K K - Y R I T F.K.T M.! m.~ #.#.~ ! K K.L.U L L.I.M.^ #.v.U.U.U.R.E.c.U.v.",
"-.U.U.Y.-.~ V.K K + Y R T T J.K.T M.! ;.&.#.% % % % % : M.+ J.J.Y T G.P.I Q ! ^ W.~ $.E.W.Y K.J.I K R P.H.~ o.c.c.U.U.x.v.U.c.;.",
"T.U.T.$.-.T.Y.: M.+ J.J.Y T G.P.I ! ^ %X@.&.#.%.~ R.V.%.Q P L.L.I U L.I.M.^ ~ V.! %.#.m.~ ~ L Q Q V.+.2 Z.%.x.v.v.c.U.x.-.T.U.T.",
"C.U.;.c.#.;.:.;.! P L.J.I U L.I.M.^ %.{.g.W } [.b.#.U.~ o.Y L.J.U K R P.H.O.~ ~ B.W.~ #.O.#.B.V.E.c.c.U.W.W.c.c.-.;.c.v.c.v.U.Y.",
";.c.v.=.-.;.;.=.o.Y K.J.U K T P.H.^ ! n.n. .z.] } o.:.$.c.=.L V Q V.+.2 J.X.@.o.O.o.#.! %.O.U.U.U.Y.T.U.R.V.$.#.Y.;.~ ^ m.c.c.v.",
"Y.;.;.Y.Y.=.;.c.&.:.L Q Q V.+.Q Z.X.@.! _ W s.D.z.&.c.=.=.#.x.-.x.! #.#.n.z.f.V.O.o.o.! ! o.m.%.-.v.U.U.O.+.U.Y.;.x.T.! %.-.v.Y.",
"v.c.#.v.;.=.;.-.;.-.#.$.-.%.+.+.Q.z.l.X.} ) e.`.`.! c.=.#.^ =.#.x.=.-.c.&.+.R.%.+.o.o.! ~ O.B.U.c.=.;.U.B.-.*.-.C.$.T.#.U.#.v.v.",
"=.U.U.;.-.;.#.v.#.c.#.#.=.x.;.Q  .S.g.{ g.> g.n.n.! #.=.#.$.#.#.#.;.#.Y.-.=.-.B.=.#.O.#.+.O.#.~ @.v.;.&.=.-.R.B.c.#.;.=.=.U.c.=.",
";.*.&.T.&.;.v.o.c.-.c.$.%.@.{ W [.`.n.X.) W n.n.v.o.=.x.^ &.@.-.B.#.-.=.=.c.$.-.-.#.*.#.c.-.;.#.%.U.&.&.-.#.-.-.=.$.T.T.Y.&.:.;.",
";.;.;.Y.Y.T.Y.Y.-.=.c.$.-.X.} } X.W n.@.x.@.[.@.@.:.:.$.%.$.-.$.v.Y.-.%.-.$.$.c.$.=.#.T.U.$.-.-.-.$.Y.-.;.=.Y.;.v.@.v.Q.T.;.C.;.",
"v.v.v.T.T.T.v.v.c.=.x.c.-.{ l.X.#.! /.! ^ $.[ } _ $.x.-.Y.=.;.T.v.v.T.U.-.x.-.=.U.%.-.U.c.x.=.=.;.^ $.=.c.-.U.U.B.E.W.Y.T.c.x.v.",
"T.-.T.Y.c.-.v.Y.;.v.v.$.$.U.x.x.T.x.x.c.c.x.@.=.x.x.$.$.^ U.v.c.v.Y.U.Y.c.-.#.$.U.-.%.T.-.;.-.v.v.c.Y.=.-.T.$.T.Y.C.Y.;.Y.T.-.T."
};
