/* XPM */
static char *result[] = {
/* columns rows colors chars-per-pixel */
"64 64 190 2 ",
"   c #367940",
".  c #35725B",
"X  c #337A64",
"o  c #D77B71",
"O  c #EA7276",
"+  c #76A52F",
"@  c #6AA73C",
"#  c #6BAB3C",
"$  c #78A932",
"%  c #72AE3B",
"&  c #7BAD3D",
"*  c #74B83D",
"=  c #3DA570",
"-  c #539649",
";  c #608E4F",
":  c #5BAE52",
">  c #53BD55",
",  c #6CA743",
"<  c #72AD44",
"1  c #72AF49",
"2  c #6EB445",
"3  c #73B544",
"4  c #76BA44",
"5  c #7ABC46",
"6  c #75B44B",
"7  c #79B64B",
"8  c #77B84A",
"9  c #7ABC4C",
"0  c #78AF5B",
"q  c #62BC5C",
"w  c #77B653",
"e  c #79B750",
"r  c #7CBC52",
"t  c #78B95A",
"y  c #549175",
"u  c #6F9369",
"i  c #769976",
"p  c #4CA77F",
"a  c #6BAD6C",
"s  c #7EC14C",
"d  c #7EC151",
"f  c #78C15D",
"g  c #78C975",
"h  c #81B43E",
"j  c #8CB63F",
"k  c #89B93B",
"l  c #86B846",
"z  c #9FBE44",
"x  c #81BF53",
"c  c #80BC5F",
"v  c #84B76B",
"b  c #91B572",
"n  c #A5B977",
"m  c #E4946E",
"M  c #C9BD7D",
"N  c #81C746",
"B  c #82C54E",
"V  c #85C94C",
"C  c #9EC148",
"Z  c #82C454",
"A  c #86CA54",
"S  c #89CC54",
"D  c #86C65A",
"F  c #87CA59",
"G  c #9DCA56",
"H  c #8DD158",
"J  c #A9D04C",
"K  c #A3C952",
"L  c #B6D55D",
"P  c #8CC56D",
"I  c #8DC971",
"U  c #9FC674",
"Y  c #92CB72",
"T  c #97C979",
"R  c #95D078",
"E  c #A4C56C",
"W  c #A6C774",
"Q  c #A6CE7F",
"!  c #97E17A",
"~  c #F2DC5D",
"^  c #E9DD64",
"/  c #F47D80",
"(  c #5D9A94",
")  c #5F989F",
"_  c #718F8F",
"`  c #64B48B",
"'  c #6EAA97",
"]  c #6BBCB0",
"[  c #75C581",
"{  c #66C899",
"}  c #6ECDA8",
"|  c #79D2D8",
" . c #72D0E9",
".. c #7BC5F7",
"X. c #76C6FF",
"o. c #7AC6FB",
"O. c #76C8FE",
"+. c #7ACAFF",
"@. c #76D1F0",
"#. c #8E9A8D",
"$. c #AD8E89",
"%. c #8FB186",
"&. c #89B288",
"*. c #91AD92",
"=. c #ACA0A2",
"-. c #AFA5AB",
";. c #EF8B88",
":. c #D7BF80",
">. c #DBAB94",
",. c #D4B394",
"<. c #E9B48C",
"1. c #F0B48F",
"2. c #E5A095",
"3. c #F7A593",
"4. c #EABA9E",
"5. c #F5B192",
"6. c #F3BE93",
"7. c #FCBD93",
"8. c #F7BE98",
"9. c #F8B999",
"0. c #CD89A4",
"q. c #FCAAA3",
"w. c #87C88B",
"e. c #8DD68B",
"r. c #8CDA90",
"t. c #B6C583",
"y. c #A4D284",
"u. c #B7D09C",
"i. c #B6DC98",
"p. c #88EC9A",
"a. c #A6E48D",
"s. c #ABE48F",
"d. c #8AC7AD",
"f. c #90D9AC",
"g. c #B5D9A1",
"h. c #ACC9B0",
"j. c #A7ECA3",
"k. c #B7EFA1",
"l. c #B9EAAA",
"z. c #C0C58A",
"x. c #CBC78D",
"c. c #E3C797",
"v. c #FDC29A",
"b. c #F7CD9D",
"n. c #FECC9D",
"m. c #EBD69E",
"M. c #EBD99F",
"N. c #F5D29E",
"B. c #FED09E",
"V. c #C1F28B",
"C. c #C5E196",
"Z. c #EEF88E",
"A. c #EAF594",
"S. c #FAF496",
"D. c #F3C3A3",
"F. c #FAC2A1",
"G. c #FDCDA3",
"H. c #EDDAA2",
"J. c #F4D5A3",
"K. c #FED3A5",
"L. c #FBD9A5",
"P. c #F8D9AA",
"I. c #FFDBAC",
"U. c #F7D6B8",
"Y. c #C4E5A5",
"T. c #C6E7A8",
"R. c #CBE9AB",
"E. c #C7F0AE",
"W. c #CBEEB0",
"Q. c #F4E0A9",
"!. c #E3EAB6",
"~. c #92BDDC",
"^. c #A5B0D9",
"/. c #D6B9D3",
"(. c #85C3CE",
"). c #83C5D6",
"_. c #87CDEB",
"`. c #8ECCE9",
"'. c #98CBE7",
"]. c #82C9FF",
"[. c #8DCEFF",
"{. c #8FD1FB",
"}. c #91D0FD",
"|. c #A2DAFF",
" X c #BBE1FA",
".X c #C3DEC1",
"XX c #EBF2DA",
"oX c #C1E1FF",
"OX c #F2F1E8",
"+X c white",
/* pixels */
"X.X.X.X.+.X.X.X.X.X.X.X.X.X.X.X.3./.].X.X.X.X.X.X.X.X.X.O.O.O.X.X.X.X.X.XX#.X.X.X.X.X.X.X.X.X.X.X.o.X.X.+.+.X.X.X.X.X.X.X.X.X.X.",
"X.X.X.X.'.+.X.X.X.+.X.X.X.X.O.,.m ^.o.o.o.X.X.X.X.X.X.X.X.X.X.X...'.OX( OX*.XXX.X.X.X.X.X.X.X.2.o.X.X.( ' ' O.+.X.X.X.'.X.X.X.X.",
"X.X.X.~.OX+.X.X.X.X.X.X.X.X.O.O.f.'.X.O.X.X.X.X.X.X.X.X.X.X.X.X.X.X.{  .{ | X.X.o.X.O.] | ~.$.$.>.*.( ' ( #.X.X.X.X.X.OX~.X.X.X.",
"O.@.S.(.a d.X.X.X.X.X.X.O.@.I s ` d.X.O.X.X.X.X.X.X.X.X.X.X.X.O.X.X.{ _.} ).+.o.| O.O.d.] ) $.$.,._ ( ' _.#.X.X.X.X.d.[ (.S.@...",
"n.8.K.c.H.J.b.J.K.1.J.Q.c.1.J.Q.c.H.J.G.K.1.J.Q.c.J.N.J.K.1.J.Q.c.c.m.J.9.>.P.H.c.m.J.N.J.K.1.J.U.c.H.H.<.J.1.K.J.N.J.N.c.K.9.G.",
"n.v.J.v.K.G.G.G.n.1.K.K.8.1.K.K.v.G.n.n.n.5.K.K.8.G.G.F.n.5.K.K.8.G.G.n.9.5.K.P.n.G.G.n.n.n.5.K.P.v.J.N.J.L.5.B.n.G.G.J.6.G.v.n.",
"v.n.n.4.K.K.K.K.n.n.B.n.n.n.b.n.b.K.K.K.n.n.b.n.n.K.K.K.n.n.N.n.n.G.G.G.7.G.G.K.n.n.K.K.G.n.n.b.n.n.G.G.n.G.n.n.G.K.K.I.4.n.n.G.",
"B.B.B.U.P.I.I.I.B.n.L.n.n.B.K.n.n.I.I.I.B.B.K.n.n.I.I.I.B.n.K.n.G.v.K.K.F.G.G.K.G.K.I.I.I.B.b.K.n.n.K.K.G.n.b.n.I.I.I.I.U.B.n.n.",
"B.n.v.8.I.t.L.I.L.J.I.G.G.K.I.B.K.t.L.I.J.K.I.G.B.t.L.L.L.K.L.B.n.K.G.G.G.U.I.L.K.K.t.L.I.L.J.I.B.B.I.I.I.B.N.N.I.L.t.I.v.v.n.B.",
"B.K.7.q.5.T M.K.B.K.G.8.v.K.G.v.v.T M.G.K.K.G.F.v.T M.B.K.K.G.v.v.K.n.n.5.o I.L.U.2.T H.G.G.G.G.v.v.t.L.I.L.K.B.G.M.T 5.q.v.B.B.",
"B.B.x.;.3.n Q M 7.7.<.8.n.9.1.8.B.n W x.7.7.1.8.B.n Q x.7.7.1.F.n.F.5.9.;.O G.m q.O n y.:.7.7.<.v.K.Q m.B.K.v.7.x.Q n 3.;.x.K.n.",
"b z.b ;.5.s.! E 7.8.W x.B.6.W x.B.s.! U 7.6.E x.K.s.R W 8.6.W x.K.4.5.D.;./ <.o ;.;.s.R U 8.6.W x.B.n Q M 7.v.v.E R s.5.;.n t.b ",
"p.p g.v >.u.k.R W &.a.M u &.a.M u u.V.R W &.a.M u u.V.R W &.a.M u 4._ y P g I e.Q y u.s.R W &.a.M u a.! W v.&.W T V.i.,.0 g.( } ",
"j.[ a g.!.%.k.i.w.` r.u.p ` r.g.p %.k.i.w.` r.u.p %.k.g.w.` r.g.p ,..Xh.v r.a r.g X %.k.i.e.` r.i.( i.s.R W ` w.g.l.b !.g.a g j.",
"Y I b <.n.Y.R.E.W.R.T.T.l.R.T.T.l.Y.R.E.E.R.T.T.l.Y.R.E.W.R.Y.T.Z D i %.C.i.i.i.= . T.R.W.W.R.T.T.l.b k.a.w.R.W.E.R.Y.b.<.Y Y Y ",
"<.K.8 w.9 r R Y w.I P Y I I P Y I y.R Y I Y P Y I y.Y Y Y I b Y Z Z D D D D I y.w.X y.R Y Y I I Y I R.R.w.s.k.s.j C Q a.a.S B.N.",
"=.=.r =.w.w.w.e 7 w.e =.w.e e =.r e e r e =.-.=.=.=.-.=.=.=.-.e r e z D z z =.z z =.=.7 -.D e =.3 -.3 6 k.z k.w.k.w.w.w.a.z D =.",
"Z w.w.e oXw.]. X].oXoX X XoXoXoXoX X XoXoXoX XoXoXoX X XoXoXoX}.oXoX X XoXoXoX X XoXoX X XoXoXoXoX X X X< 3 oXz  Xz oXoXw.w.D  X",
"w.z oXoXoXw. XoXoXoXoX X].{.{.{.}.|.|.[.{.[.|.|.{.}.|.|.{.{.}.}.{.}.|.|.{.{.}.|.|.}.[.|.|.}.{.{.}.|.].}.}.}.oXoXz w. XoXoXz w.[.",
"z w.{.{.}.w.].}.}.}.}.|.].].].].[.}.[.].].[.}.[.].].}.[.].].].}.].].}.[.].].].}.{.].[.}.[.].].].].].[.].].].{.{.z ].|.}.{.w.C ].",
"}.w.].].].].].].].].].}.o.`.`.`.o...o.`.`.o.....`.o.}...`.`.X...}.[.[.].[.}.[.[.o.`.X...o.`.].`.].].o.].`.].].].].].].[.].w.}...",
"z w.$ `.].w...`.`.`.]...[.].}.{.}.|.|.{.{.{.|.}.}.oX[.}.[.[.}.[.{.}...`.X...o.|.{.}.|.|.{.].{.{.}.].].{.].].`.`.z ....].$ w.z D ",
"|.].].e |.].}.].{.{.}.|.].].[.].].}.}.}.].].}.}.oX}.[.[.].].oX[.oXoX[.0.0.|.{.oX].oX].[.].].].].].].].].].].[.}.].{.].$ ].].|.v ",
"].w.[.].}.].].].].].[.}. X].]. XoX}. X}.].oXoX XoXoX X}.oXoXoXoXoXoX        ].oX].[.].].oXoX].].].].oXoX X].].].].].].}.].w.].].",
"z ].oXoX]. X X].+. XoX}.[.].].}.}.].}.}.[.{.].{.].].].oX].].oXoX[.].].[.].]. X].].].|.].].].].].].].[.].].]. X].]. X X]. X].z D ",
"z D ].].].].[.].[.}.[.].o.`.o...o.].}.}.].].oX].].].].].oX].[.].].[.].].[.].].].].].].].].].].].].].].].].].}.[.].{.].].].D z |.",
"].].Z ].].]...`.o...o.].{.0.0.|.{.].].}.oX].oX].].].].].].].].].].].[.].].].oX].].].].].].X.].].].].].].].]...X.`.O.].].D ].].w.",
"w.D ].].].].{.0.0.|.{.].        ].].].].].].].].].].].].].].].o.].].oXoX].].].].].].].].].].].].].].].].].].|.0.0.{.].].].Z w.].",
"Z ].$ ].].].        ].].].[.].].oX].].].].].].].].].].].].].].].].].].].].].].].].].].].].{.].[.}.[.].].].].        +.].$ ].Z Z ",
"w.].].D ].].].[.].]. X].].].].].].].].].].].].].].].].].].].].].].].].].].].].].].].].].]...`.].....].].].].].].[.].].].].].w.].",
"w.$ ].].].].].].].].].].].].].].].].].].].].].].].].].].].].].].].].].].].].].].].].].].].{.0.0.}.{.].].].].].].].].].].].$ w.w.",
"F ].+.].].].].].].].].].].].].].].].].].].].].].+X+X].].].].].].].].].].].].].].].].].+.].        ].].].].].].].].].].].].].F }.",
"{.c ].].l $ ].].].].].].].].].].].].].].].].].m +X+X].].].+X].].].].].].o.].].].].].].].].].[.].].oX].].].].].].].].$ h ].c }.D ",
"w.].].].% ].].].+.].].].].].].].].].].].].].].].].+X+X+X+X+X].].].].].].].].].].].].].].].+.].].].].].].].].].].].].].% ].].w.Z ",
"w.].].].].].].].].].].].].].].].].].].].].].].].].+X+X+X+XoX].].[.].].].].].[.].].].].].].].].].].].].].].r ].].].].].].].].w.].",
"D x {.[.].].].].].].].].].].].}.].].].].].].].[.{.oX+X+XoX].oX].].].].].].].].].].].].].].].].].].].].].].d ].].].].].].}.Z D w.",
"x Z ].].}.< ].].].}.].].< ].Z ].].].].].].[.].].[.].oX].}.}.].].].].].].].].].].].].].].].].].].2 ].].].].].}.].].].< }.].B r w.",
"z ].z z }.].< ].B ].].].].9 ].].].].{.].].}.[.].].].].].].].].].].].].].].].].].].].].].].].].o.B ].].7 ].7 ].Z ].< ].}.z ].z t ",
"e r ].].].].].9 ].].].].8 w ].].].]...`.o...O.].].].].].].].].].[.].].].].].].5 ].].].].].].w J 3 o.].].r }.].].9 ].].].].e e ].",
"].6 ].].8 }.8 7 ].].].].}.].9 ].].].{.0.0.|.{.].].].].].].].].].].].].].].7 ].].].].].].B ].d l ].A s 9 }.}.].].7 8 }.8 ].7 ].e ",
"].7 4 9 s ].].].7 7 ].].].].].9 B ].        ].].].].].].].].].].].].].].].].].].].].].].].].r ].].9 9 }.}.r ].].4 d ].].9 4 ].1 ",
", s F ].o.].].4 z ].].4 ].].].].].].].[.].].oX].}.].].].].L ].].].].].].].].].].].].S ].x x ].].].}.}.].9 s ].].].].9 V A s , +.",
"r 7 S 8 ].].5 ].x ].].].9 z }.].9 ].].].].].].r ].].].].].l x ].].].].].4 ].].].].].d s ].].].}.}.J s s V s 4 d 7 3 V s A 7 r Z ",
"6 z w 8 7 3 V s ].].r ].].# ].}.].}.3 z e 3 6 ].].].].x ].].].].].].r ].].].].].].s ].{.A.].].7 J B d D B z 8 A B s V # 3 4 8 6 ",
"9 B Z Z B B V # 4 7 8 ].9 5 ].].z Z ].}.}.{.].z ].G o.].3 ].].].S ].].].].].}.}.}.}.& Z.~ Z.q 0 d 9 d V V 4 z 3 s 4 9 A.C B z 8 ",
"Z 9 r 9 s 8 4 A.z B z B 3 % 7 7 ].8 8 A 7 6 {.].}.].].0 q A.].}.}.{.}.}.}.d d s C s C k A.; : > B s 9 +.N z z s z & Z.~ Z.q 0 D ",
"7 & 7 3 z & Z.~ Z.q 0 5 V 8 3 6 > 5 B z r B 8 r ].}.}.}.A.^ A.l ].r 8 , 4 8 6 ].G 4 C # f -   > 5 h Z r B s 9 Z 4 C : A.-   > r ",
"Z C B s 4 C : A.-   > 9 z 9 3 3 > B z s V Z 8 d 9 B B > ].A.-   z ].r z A Z w r k # & % t 9 - E $ 3 8 6 9 8 B 9 z z # t : ; > B ",
"r z 5 9 z z # t : ; > 3 s 9 3 8 E s s Z B Z 8 ].F 4 F E ; 8 ; # h d r 8 3 S w B G 3 F s d d & 3 & V Z 8 r F 5 Z 8 F s V 3 V Z 7 ",
"s l z & B h # r 8 : E s A 9 5 8 5 4 5 9 s 9 8 z V s 1 8 7 3 9 9 8 8 C D Z d V z s 9 d 8 6 9 4 , S 4 S w B B 5 s d s 9 9 9 5 s 9 ",
"r 4 * * z 4 8 3 s s 9 * L G Z S 9 x 3 Z A S < r e r Z 8 r 8 Z r x 2 d C Z e r r 4 F 4 A Z w d Z Z F d V B 4 Z 9 8 r 9 9 F 7 d 4 ",
"9 z 4 s s S B s > * C s # 3 4 9 3 3 S x F Z 7 r 8 r 4 8 r d B s l L G Z z d r Z 3 9 4 3 F w V d F Z w r e % B s s d d d d s B s ",
"d s s d d d Z s < 5 9 3 9 C B z B 3 r 6 r e x 9 s z s 8 6 s s 8 d l x r Z 9 r 7 8 D D F Z V s G Z F r d r 3 s B s Z d Z d d s d ",
"r V Z d r F s 9 < z & 9 Z.^ q 0 7 9 r 7 w e 7 3 V 9 A 9 d 9 9 8 2 Z 7 r 8 Z r Z 2 s F d e r r Z r Z z r e 4 Z 9 7 s F 9 d d V d ",
"F V F d s V # 3 8 4 C j A.~ : > 5 4 e 8 Z Z N 9 V # 3 8 8 3 3 z 5 4 9 d 9 B s B L G Z H 7 r z , 7 % K , s 3 9 7 4 @ V s Z F s F ",
"9 V r Z 8 4 9 C z z z # f -   > 3 z 3 Z x 9 s 8 8 A.z B z Z * s 4 B 8 9 D B s V # 3 8 8 3 6 z d @ < + l K G z B z s 8 9 d d s Z ",
"e A d 7 & 7 3 6 9 s h # r 9 - E s s 4 s 8 3 z & Z.~ Z.q 0 4 8 A 4 # @ 3 # 9 9 8 5 z B z x 5 s 7 3 , , B s V 0 q ^ Z.9 & 9 d V e ",
"Z d w Z C r 3 6 9 8 4 5 3 s l 9 4 5 s S B s 4 C : A.-   > 5 4 z s 9 8 7 1 z & 9 Z.^ q 0 8 7 S 9 < , < 5 8 9 > : ~ A.j C Z 7 d Z ",
"s d 8 9 z 9 * 4 s F z V s s 4 * z * 8 3 9 9 z z # f : ; > * z s 5 4 r 9 3 5 C j A.~ : > 5 4 z 9 6 5 6 z & 8 >   - f # C r 6 d d ",
"8 s V 9 h 9 s 4 s B 9 5 z s 4 s s S B s z & B h # t 8 : E s s V 6 r 3 Z z z z # f -   > * z 9 x < < 8 5 C j E ; 8 t # & s V s 8 ",
"r e 8 r 8 5 * s s 5 * s 9 s 5 3 4 s 5 B * * z * 8 3 s s 5 3 5 9 B 6 9 3 8 N h # r 8 - E s s Z B 5 A < z C % 5 s s * 5 * r 6 8 r ",
"d r r r z V s s 4 * z 4 d A 3 4 z 4 s 9 5 5 s S Z s > * z s r 9 7 B 9 9 9 8 4 5 * s x 5 4 5 9 s 9 4 B B h # * * s s V C r d r r ",
"d s s 8 9 5 z 5 4 s s S s F s V s F Z Z s 4 5 s 5 B E s s V B H Z d S B s A z V s s * * z 4 d F d % 7 4 * 5 5 8 s z s 9 7 s d d ",
"F 9 F F N 4 # 9 9 3 e r w r * s s d s s * 4 C 4 5 9 s 3 9 9 r s x Z B D 9 B 9 5 C s 4 5 s S d F d s Z A z V 8 5 8 # 4 N F F 9 F "
};
